<ttFont>
          <CharString index="0">
            134 353 rmoveto
            -13 -49 -7 -43 -42 vvcurveto
            -146 84 -83 169 172 114 138 264 57 vhcurveto
            43 200 rlineto
            120 26 19 18 65 hhcurveto
            12 40 rlineto
            -263 hlineto
            -12 -40 rlineto
            62 -3 40 -17 -40 vvcurveto
            -46 -39 -206 -41 -128 vhcurveto
            -140 -45 -70 -104 -132 hhcurveto
            -105 -56 68 106 28 4 32 9 34 hvcurveto
            65 251 rlineto
            145 37 16 20 95 hhcurveto
            11 40 rlineto
            -319 hlineto
            -13 -40 rlineto
            69 25 -14 -40 -19 -6 -31 -7 -27 hvcurveto
            return
          </CharString>
          <CharString index="1">
            332 488 rmoveto
            25 16 -21 -35 -129 -119 -242 -93 -34 -22 31 48 138 125 210 102 hvcurveto
            82 -14 rmoveto
            46 -17 -27 20 -44 hhcurveto
            -144 -172 -221 -184 -90 41 -55 67 66 76 55 74 39 hvcurveto
            4 -1 rlineto
            -2 -26 -1 -15 -12 vvcurveto
            -53 17 -22 31 60 69 57 98 55 vhcurveto
            -26 21 rlineto
            -61 -44 -37 -43 -19 hhcurveto
            -12 -7 10 19 44 36 141 38 101 hvcurveto
            return
          </CharString>
          <CharString index="2">
            488 rmoveto
            18 9 -12 -25 -24 -7 -25 -24 -69 hvcurveto
            -71 -201 -8 -25 -37 vvcurveto
            -48 21 -32 33 53 100 82 79 43 vhcurveto
            -26 14 rlineto
            -68 -61 -34 -29 -19 hhcurveto
            -7 -3 5 10 25 22 64 31 90 hvcurveto
            41 119 12 43 35 vvcurveto
            52 -32 29 -58 -82 -68 -54 -119 -68 vhcurveto
            -3 3 rlineto
            12 28 5 29 34 vvcurveto
            57 -16 22 -43 -74 -57 -65 -136 -47 vhcurveto
            30 -15 rlineto
            81 26 54 80 30 hhcurveto
            11 6 -10 -17 -26 -16 -57 -47 -146 hvcurveto
            return
          </CharString>
          <CharString index="3">
            136 36 23 28 88 hhcurveto
            11 40 rlineto
            -325 -18 callsubr
            27 -7 -41 -19 -5 -26 -10 -37 hvcurveto
            -117 -442 rlineto
            -98 -26 -30 -20 31 callgsubr
            319 -92 callgsubr
            return
          </CharString>
          <CharString index="4">
            505 780 rmoveto
            -230 -201 -222 -255 -189 111 -124 171 229 199 222 257 190 -109 121 -170 hvcurveto
            -52 vmoveto
            108 50 -73 -159 -262 -125 -190 -168 -114 -61 87 169 240 136 188 174 hvcurveto
            return
          </CharString>
          <CharString index="5">
            440 348 rmoveto
            214 301 rlineto
            67 47 13 14 54 hhcurveto
            11 40 rlineto
            -247 hlineto
            -11 -40 rlineto
            46 28 -15 -28 -24 -12 -17 -29 -42 hvcurveto
            -139 -203 -107 258 rlineto
            -6 14 -2 13 9 vvcurveto
            26 21 9 50 vhcurveto
            11 40 rlineto
            -281 hlineto
            -11 -40 rlineto
            66 17 -10 -96 40 hvcurveto
            120 -288 -46 -178 rlineto
            -99 -26 -33 -19 -86 -69 callgsubr
            339 hlineto
            12 40 rlineto
            -71 -30 13 45 18 4 23 8 29 hvcurveto
            return
          </CharString>
          <CharString index="6">
            137 65 rlineto
            32 15 19 16 21 vvcurveto
            22 -15 13 -23 -21 -21 -10 -23 -25 vhcurveto
            -130 -119 rlineto
            return
          </CharString>
          <CharString index="7">
            rmoveto
            -35 27 -27 35 35 27 27 35 35 -27 27 -35 -35 -27 -27 -35 vhcurveto
            endchar
          </CharString>
          <CharString index="8">
            -38 14 75 -54 hhcurveto
            -30 -21 -23 -33 -44 36 -35 55 74 86 63 131 101 hvcurveto
            133 172 127 252 109 vvcurveto
            39 -16 34 -34 -27 -29 -22 -48 vhcurveto
            -23 7 -61 -27 vvcurveto
            -81 -60 -107 -50 -63 vhcurveto
            -4 hlineto
            -34 161 -19 90 -20 73 -16 42 rlinecurve
            50 -19 -16 16 -25 hhcurveto
            -59 -61 -88 -124 -28 hvcurveto
            37 -10 rlineto
            82 21 20 37 25 hhcurveto
            return
          </CharString>
          <CharString index="9">
            410 486 rmoveto
            37 -23 -17 17 -46 hhcurveto
            -138 -175 -220 -174 -93 53 -63 68 65 80 49 88 50 hvcurveto
            8 -2 rlineto
            -4 -15 -3 -17 -14 vvcurveto
            -57 27 -32 48 68 53 61 131 45 vhcurveto
            -38 9 rlineto
            -80 -26 -38 -54 -29 hhcurveto
            -14 -11 11 30 43 15 75 57 209 hvcurveto
            111 405 rlineto
            -193 hlineto
            -11 -40 rlineto
            69 23 -7 -20 -11 -6 -24 -10 -36 hvcurveto
            -137 -205 rmoveto
            return
          </CharString>
          <CharString index="10">
            -138 -57 -67 -50 -159 hhcurveto
            -83 -29 23 48 16 3 18 6 22 hvcurveto
            104 396 rlineto
            136 36 23 28 88 hhcurveto
            11 40 rlineto
            -325 -18 callsubr
            27 -7 -41 -19 -6 -26 -9 -37 hvcurveto
            -113 -442 rlineto
            -95 -24 -23 -23 -87 hhcurveto
            return
          </CharString>
          <CharString index="11">
            69 37 26 37 43 vvcurveto
            50 -23 29 -40 -35 -24 -22 -31 -28 18 -19 26 11 9 3 5 6 vhcurveto
            -29 -20 -24 -45 -25 vhcurveto
            endchar
          </CharString>
          <CharString index="12">
            rmoveto
            -58 -167 -12 -46 -45 vvcurveto
            -44 15 -19 36 67 91 65 78 42 vhcurveto
            -28 21 rlineto
            -55 -40 -42 -34 -27 hhcurveto
            -13 -6 8 15 12 3 8 52 145 hvcurveto
            28 76 13 58 44 vvcurveto
            70 -35 39 -63 -61 -58 -36 -62 -43 vhcurveto
            -3 2 return
          </CharString>
          <CharString index="13">
            820 -36 callsubr
            -48 -182 rlineto
            -388 hlineto
            39 148 rlineto
            -104 callsubr
            52 199 rlineto
            388 hlineto
            -55 -209 rlineto
            -98 -26 -30 -20 31 callgsubr
            319 -92 callgsubr
            return
          </CharString>
          <CharString index="14">
            rmoveto
            -138 -109 rlineto
            45 hlineto
            133 54 105 -54 rlineto
            45 hlineto
            -80 109 rlineto
            endchar
          </CharString>
          <CharString index="15">
            538 713 rmoveto
            46 -46 -48 21 -62 hhcurveto
            -131 -105 -93 -115 hvcurveto
            -185 282 -38 -167 vvcurveto
            -80 -69 -59 -95 -103 -61 74 137 -9 vhcurveto
            -33 hlineto
            return
          </CharString>
          <CharString index="16">
            hstemhm
            22 69 7 11 callsubr
            hintmask 1100011111100000
            -60 callgsubr
            hintmask 1100011111010000
            -95 callgsubr
            hintmask 1010011111100000
            -12 -12 -7 -3 -11 hhcurveto
            hintmask 1100011111100000
            -40 -16 43 -55 hhcurveto
            -65 -58 -59 -65 -38 20 -23 34 29 21 17 24 hvcurveto
            32 -35 9 25 vvcurveto
            hintmask 1000111111100000
            11 6 6 10 vhcurveto
            hintmask 1010011111100000
            30 15 -52 73 hhcurveto
            2 -3 rlineto
            -86 -116 -43 -100 -83 vvcurveto
            -85 44 -50 73 65 68 38 69 59 vhcurveto
            56 150 rmoveto
            -4 15 -1 16 18 vvcurveto
            hintmask 1001011111100000
            89 23 73 26 11 4 -14 -24 -58 -24 -58 -35 -57 vhcurveto
            return
          </CharString>
          <CharString index="17">
            -19 47 19 -6 18 hhcurveto
            26 24 13 23 17 hvcurveto
            16 21 13 34 3 27 rrcurveto
            -33 hlineto
            -30 -9 -13 -12 -22 hhcurveto
            -17 -17 5 17 -39 hvcurveto
            return
          </CharString>
          <CharString index="18">
            16 -11 9 -19 -27 -26 -11 -22 -43 vhcurveto
            -150 -77 rlineto
            endchar
          </CharString>
          <CharString index="19">
            106 -10 62 676 17 callsubr
            hintmask 11001000
            -85 callsubr
            hintmask 10011000
            46 251 -19 callgsubr
            hintmask 11001000
            41 -59 -57 19 -64 hhcurveto
            -225 -200 -226 -253 -191 112 -120 180 123 85 57 142 92 hvcurveto
            return
          </CharString>
          <CharString index="20">
            181 rmoveto
            -76 -40 -62 -56 -47 hhcurveto
            -44 -26 39 64 159 102 182 89 16 8 -5 -9 hvcurveto
            -9 -8 -10 -17 vvcurveto
            return
          </CharString>
          <CharString index="21">
            138 109 rlineto
            -45 hlineto
            -133 -54 -105 54 rlineto
            -45 hlineto
            80 -109 rlineto
            endchar
          </CharString>
          <CharString index="22">
            665 189 rmoveto
            -36 24 rlineto
            -111 -71 -75 -50 -96 hhcurveto
            -127 -66 84 164 240 137 188 175 102 50 -65 -144 10 hvcurveto
            38 hlineto
            return
          </CharString>
          <CharString index="23">
            -56 -16 -28 -30 -43 vvcurveto
            -48 36 -29 58 68 48 39 54 32 -15 29 -36 22 vhcurveto
            -34 -32 rmoveto
            25 -18 14 -19 -26 vvcurveto
            -32 -28 -23 -39 -34 -17 19 34 36 19 26 39 16 vhcurveto
            19 37 rmoveto
            return
          </CharString>
          <CharString index="24">
            232 780 rmoveto
            -20 hlineto
            -26 -28 -30 -23 -44 hhcurveto
            -7 -22 rlineto
            30 19 7 9 hhcurveto
            4 2 -2 -4 -1 0 -3 -1 -2 hvcurveto
            -40 -159 rlineto
            -43 -11 -17 -13 -38 hhcurveto
            -5 -21 rlineto
            153 hlineto
            5 21 rlineto
            -32 -10 14 21 15 5 21 5 20 hvcurveto
            return
          </CharString>
          <CharString index="25">
            rmoveto
            -98 119 rlineto
            23 -19 -18 10 -21 hhcurveto
            -24 -25 -16 -27 -17 15 -14 24 -13 hvcurveto
            119 -65 rlineto
            endchar
          </CharString>
          <CharString index="26">
            -20 hstemhm
            77 91 37 89 hintmask 10101110
            -80 callsubr
            hintmask 01011110
            -76 callgsubr
            37 23 29 29 vhcurveto
            hintmask 10101110
            -58 callsubr
            return
          </CharString>
          <CharString index="27">
            77 387 rmoveto
            -121 128 -43 -108 vvcurveto
            -50 -30 -31 -48 -30 -7 10 43 -4 vhcurveto
            return
          </CharString>
          <CharString index="28">
            rmoveto
            123 75 50 56 87 vvcurveto
            34 -18 19 -34 -45 -42 -33 -44 -24 14 -15 26 11 12 3 5 9 vhcurveto
            -14 -51 -34 -39 -74 -46 rrcurveto
            return
          </CharString>
          <CharString index="29">
            268 rmoveto
            -48 -149 -67 -223 -16 -65 rrcurveto
            -4 -16 -2 -13 -12 vvcurveto
            -35 14 -15 31 38 20 25 54 9 vhcurveto
            34 206 3 1 rlineto
            -24 11 21 -12 31 hhcurveto
            54 54 54 97 43 hvcurveto
            3 -3 rlineto
            -3 -19 -2 -18 -20 vvcurveto
            -65 15 -26 37 64 81 77 99 40 vhcurveto
            -30 15 rlineto
            -60 -26 -51 -56 -28 hhcurveto
            -11 -6 9 17 24 14 50 44 136 46 callsubr
            -144 -53 -90 -124 -51 hhcurveto
            -18 -9 13 29 33 13 57 22 65 hvcurveto
            61 178 5 17 31 vvcurveto
            hintmask 11011100
            34 -19 21 -31 -59 -91 -76 -85 -43 vhcurveto
            26 -14 rlineto
            55 45 32 29 16 hhcurveto
            7 4 -7 -14 -25 -9 -36 -32 -99 hvcurveto
            endchar
          </CharString>
          <CharString index="30">
            47 378 rmoveto
            38 17 54 46 27 hhcurveto
            10 5 -7 -15 -28 -12 -46 -51 -159 hvcurveto
            -65 -207 rlineto
            93 hlineto
            45 138 rlineto
            181 59 88 144 51 hhcurveto
            return
          </CharString>
          <CharString index="31">
            rmoveto
            127 28 rlineto
            57 12 32 18 27 vvcurveto
            return
          </CharString>
          <CharString index="32">
            -55 -14 -27 -32 -32 -42 20 60 -48 hhcurveto
            -30 -19 -21 -32 -41 37 -26 59 -53 callsubr
            return
          </CharString>
          <CharString index="33">
            -49 -34 24 37 -2 hvcurveto
            -36 hlineto
            -3 -11 -1 -11 -10 vvcurveto
            -58 41 -40 66 75 73 54 76 25 vhcurveto
            endchar
          </CharString>
          <CharString index="34">
            41 9 32 36 37 vvcurveto
            38 -32 24 -50 -53 -39 -28 -38 -22 15 -15 24 12 11 6 9 4 vhcurveto
            -16 -9 10 16 hvcurveto
            return
          </CharString>
          <CharString index="35">
            -20 8 callgsubr
            -96 29 -80 50 -54 hvcurveto
            -106 -135 rlineto
            68 hlineto
            78 99 rlineto
            -31 44 56 -16 63 hhcurveto
            229 199 222 257 93 -26 77 -47 54 hvcurveto
            107 135 rlineto
            -69 hlineto
            -78 -99 rlineto
            33 -45 -56 18 -65 hhcurveto
            -52 vmoveto
            54 40 -19 -38 26 hvcurveto
            -408 -518 rlineto
            -15 39 -7 49 59 vvcurveto
            240 136 188 174 vhcurveto
            158 -232 rmoveto
            -262 -125 -190 -168 -54 -42 20 38 -30 vhcurveto
            405 513 rlineto
            9 -33 5 -39 -47 vvcurveto
            return
          </CharString>
          <CharString index="36">
            -49 -26 78 -99 hhcurveto
            -89 -69 -62 -79 -48 25 -29 42 31 18 17 29 hvcurveto
            return
          </CharString>
          <CharString index="37">
            80 rmoveto
            -18 -14 17 38 -14 hvcurveto
            -51 132 26 12 rlineto
            110 50 66 67 62 vvcurveto
            51 -39 32 -62 -59 -50 -33 -64 -38 vhcurveto
            -4 1 return
          </CharString>
          <CharString index="38">
            10 -2 -12 8 -14 hhcurveto
            -29 -25 -26 -30 -37 36 -25 52 69 55 44 54 34 -21 27 -37 9 hvcurveto
            4 vlineto
            return
          </CharString>
          <CharString index="39">
            36 callsubr
            34 -27 30 -37 -35 -27 -29 -36 37 callsubr
            hvcurveto
            return
          </CharString>
          <CharString index="40">
            44 63 -48 59 hhcurveto
            53 39 58 60 7 hvcurveto
            -33 hlineto
            -30 -9 -13 -12 -22 hhcurveto
            return
          </CharString>
          <CharString index="41">
            -31 callgsubr
            hintmask 0110011001000000
            -69 callsubr
            hintmask 1001011000100000
            -73 callsubr
            hintmask 1000110101000000
            -39 callgsubr
            hintmask 1010011010000000
            -45 callgsubr
          </CharString>
          <CharString index="42">
            rmoveto
            -37 25 -25 41 59 56 51 61 37 -26 25 -42 -61 -52 -56 -56 vhcurveto
            103 70 rmoveto
            21 14 -13 -19 -33 -30 -27 -29 -23 -14 14 20 33 32 25 29 hvcurveto
            return
          </CharString>
          <CharString index="43">
            -32 callsubr
            245 hmoveto
            -101 callsubr
            endchar
          </CharString>
          <CharString index="44">
            34 16 -25 -41 -127 -116 -239 -91 -40 -26 31 48 140 119 213 104 hvcurveto
            return
          </CharString>
          <CharString index="45">
            387 44 rmoveto
            -127 -66 86 170 240 145 188 187 120 59 -56 -122 13 hvcurveto
            38 hlineto
            return
          </CharString>
          <CharString index="46">
            rmoveto
            -28 24 -24 28 31 24 24 28 31 -24 24 -31 -28 -24 -24 -31 vhcurveto
            endchar
          </CharString>
          <CharString index="47">
            rmoveto
            13 50 rlineto
            -270 hlineto
            -13 -50 rlineto
            endchar
          </CharString>
          <CharString index="48">
            -121 rmoveto
            -34 -35 -35 -19 -25 hhcurveto
            -28 -23 21 27 return
          </CharString>
          <CharString index="49">
            50 -19 -88 61 hhcurveto
            26 17 17 28 50 -48 36 -64 -96 -70 -65 -88 hvcurveto
            return
          </CharString>
          <CharString index="50">
            93 48 -43 -128 hvcurveto
            38 hlineto
            20 213 rlineto
            -668 hlineto
            -95 -213 rlineto
            40 hlineto
            return
          </CharString>
          <CharString index="51">
            hhcurveto
            -51 -43 -47 -67 -11 hvcurveto
            endchar
          </CharString>
          <CharString index="52">
            39 32 30 39 38 -30 33 -41 -39 -30 -32 -40 -40 32 -28 37 hvcurveto
            return
          </CharString>
          <CharString index="53">
            vvcurveto
            -53 36 -32 61 60 56 29 53 41 vhcurveto
            return
          </CharString>
          <CharString index="54">
            -4 callgsubr
            105 45 callgsubr
            -108 hlineto
            180 45 62 99 69 hhcurveto
            35 21 -25 -38 return
          </CharString>
          <CharString index="55">
            -50 -35 -27 -25 -20 hhcurveto
            -195 188 rmoveto
            110 30 74 95 55 hhcurveto
            26 15 -15 -26 -54 -84 -70 -116 -40 hvcurveto
            return
          </CharString>
          <CharString index="56">
            37 -34 -39 17 -51 hhcurveto
            -129 -109 -104 -124 -58 25 -45 51 -36 hvcurveto
            -2 -4 rlineto
            return
          </CharString>
          <CharString index="57">
            1 -3 rlineto
            1 6 16 1 13 hhcurveto
            43 24 -14 -27 -36 -33 -27 -32 hvcurveto
            return
          </CharString>
          <CharString index="58">
            rmoveto
            -113 -155 rlineto
            -54 -74 -8 -12 -11 vvcurveto
            -9 6 -10 15 15 15 11 47 26 vhcurveto
            79 142 7 11 56 88 1 13 rcurveline
            -121 hlineto
            -21 -9 3 8 hvcurveto
            return
          </CharString>
          <CharString index="59">
            rmoveto
            50 -36 33 -53 -19 -17 -5 -11 -17 vhcurveto
            -3 1 rlineto
            64 18 43 45 43 hhcurveto
            hintmask 11101010
            16 5 -7 -19 -14 8 -8 11 17 10 12 16 25 -29 18 -38 -85 -79 -98 -106 -69 35 -43 55 hvcurveto
            hintmask 11101100
            61 54 54 62 hvcurveto
            -96 59 rmoveto
            29 14 -21 -41 -50 -28 -40 -36 -28 -15 24 43 51 26 34 38 hvcurveto
            endchar
          </CharString>
          <CharString index="60">
            142 11 87 92 146 vvcurveto
            25 -2 15 -7 18 vhcurveto
            14 21 5 2 9 hhcurveto
            return
          </CharString>
          <CharString index="61">
            865 386 rmoveto
            219 -174 175 -216 -213 -171 -178 -217 -217 172 -178 213 215 174 176 220 vhcurveto
            -48 hmoveto
            -192 -153 -156 -188 -188 -149 156 191 190 148 157 188 189 153 -153 -193 vhcurveto
            return
          </CharString>
          <CharString index="62">
            rmoveto
            -190 hlineto
            182 47 38 57 72 hhcurveto
            40 36 -18 -31 20 hvcurveto
            -22 -50 -25 -74 -16 -66 rrcurveto
            endchar
          </CharString>
          <CharString index="63">
            rmoveto
            -34 -17 28 54 147 132 216 90 31 24 -35 -46 -149 -133 -215 -93 hvcurveto
            return
          </CharString>
          <CharString index="64">
            -58 55 62 -28 74 hhcurveto
            141 113 109 135 hvcurveto
            return
          </CharString>
          <CharString index="65">
            -38 callsubr
            -40 230 hstemhm
            hintmask 11000000
            return
          </CharString>
          <CharString index="66">
            rmoveto
            -123 -76 -50 -56 -86 vvcurveto
            -35 17 -18 35 45 42 33 44 23 -15 16 -25 -11 -12 -3 -5 -9 vhcurveto
            14 51 34 39 74 46 rrcurveto
            return
          </CharString>
          <CharString index="67">
            33 114 rlineto
            49 hlineto
            6 24 rlineto
            -49 hlineto
            -128 hmoveto
            109 106 3 -1 -29 -105 rlineto
            return
          </CharString>
          <CharString index="68">
            95 -64 -21 81 71 170 218 -148 70 return
          </CharString>
          <CharString index="69">
            0 -30 callsubr
            return
          </CharString>
          <CharString index="70">
            -260 60 -60 return
          </CharString>
          <CharString index="71">
            566 rmoveto
            136 36 23 28 88 hhcurveto
            11 40 rlineto
            -325 -18 callsubr
            27 -7 -41 -19 -5 -26 -10 -37 hvcurveto
            return
          </CharString>
          <CharString index="72">
            -29 -10 75 465 -20 30 -20 return
          </CharString>
          <CharString index="73">
            228 -10 85 280 185 -113 70 -39 82 -61 61 return
          </CharString>
          <CharString index="74">
            53 -32 -96 68 hhcurveto
            30 21 22 32 49 -57 38 -73 -59 -47 -26 -57 -41 hvcurveto
            return
          </CharString>
          <CharString index="75">
            rmoveto
            -101 callsubr
            return
          </CharString>
          <CharString index="76">
            rmoveto
            160 -304 -59 83 vvcurveto
            21 26 10 63 5 vhcurveto
            return
          </CharString>
          <CharString index="77">
            40 690 40 return
          </CharString>
          <CharString index="78">
            10 -2 -11 8 -13 hhcurveto
            -26 -21 -25 -29 -39 35 -25 52 73 59 50 61 52 -42 38 -57 hvcurveto
            endchar
          </CharString>
          <CharString index="79">
            215 11 rmoveto
            -86 -30 -117 -125 -50 return
          </CharString>
          <CharString index="80">
            40 250 50 440 -20 return
          </CharString>
          <CharString index="81">
            46 -17 -27 20 -44 hhcurveto
            -144 -172 -221 -184 -90 41 -55 66 67 85 58 76 46 hvcurveto
            -85 9 51 -49 82 hhcurveto
            83 74 49 94 57 hvcurveto
            -342 355 rmoveto
            30 14 -20 -41 hvcurveto
            return
          </CharString>
          <CharString index="82">
            rmoveto
            -14 -19 -3 -3 -7 hvcurveto
            -3 2 27 77 rlineto
            -4 17 23 -3 15 hhcurveto
            36 23 17 32 11 hvcurveto
            return
          </CharString>
          <CharString index="83">
            rlineto
            -87 hlineto
            -13 -46 rlineto
            86 hlineto
            return
          </CharString>
          <CharString index="84">
            -156 -118 -210 -95 -34 -21 31 52 140 133 204 91 vhcurveto
            285 5 rmoveto
            23 12 -14 -28 -80 -95 -82 -128 -35 hvcurveto
            122 34 84 117 70 hhcurveto
            return
          </CharString>
          <CharString index="85">
            44 -44 156 263 131 -43 43 return
          </CharString>
          <CharString index="86">
            134 -126 53 89 vvcurveto
            return
          </CharString>
          <CharString index="87">
            -278 -10 77 387 86 return
          </CharString>
          <CharString index="88">
            57 153 rlineto
            -83 hlineto
            return
          </CharString>
          <CharString index="89">
            hlineto
            -11 -40 rlineto
            72 return
          </CharString>
          <CharString index="90">
            rmoveto
            -94 226 rlineto
            -106 -20 hlineto
            35 -2 5 -11 -45 vvcurveto
            -152 vlineto
            -50 -6 -7 -38 -1 vhcurveto
            -20 117 20 vlineto
            -38 1 -6 7 53 vvcurveto
            177 4 vlineto
            return
          </CharString>
          <CharString index="91">
            45 8 41 -23 23 66 52 -34 34 -34 49 return
          </CharString>
          <CharString index="92">
            rmoveto
            -34 -25 18 26 hvcurveto
            35 52 1 50 vvcurveto
            return
          </CharString>
          <CharString index="93">
            -260 43 -43 112 35 41 return
          </CharString>
          <CharString index="94">
            14 46 rlineto
            -109 hlineto
            return
          </CharString>
          <CharString index="95">
            17 callgsubr
            vhcurveto
            hintmask 11110100
            -18 callgsubr
          </CharString>
          <CharString index="96">
            rlineto
            -28 -88 -15 -64 -35 vvcurveto
            -73 54 -51 76 162 179 217 190 return
          </CharString>
          <CharString index="97">
            38 97 54 118 16 vvcurveto
            21 -14 14 -22 -80 16 -106 -160 -21 vhcurveto
            return
          </CharString>
          <CharString index="98">
            -50 -5 -7 -39 -1 vhcurveto
            -20 135 20 vlineto
            -38 1 -6 7 53 vvcurveto
            146 vlineto
            49 5 11 35 1 vhcurveto
            20 -100 vlineto
            -98 -226 rlineto
            return
          </CharString>
          <CharString index="99">
            -11 29 -7 28 34 vvcurveto
            32 6 37 13 48 vhcurveto
            -8 86 20 -32 46 hhcurveto
            40 40 37 42 26 -18 19 -29 -46 -36 -32 -9 -92 hvcurveto
            return
          </CharString>
          <CharString index="100">
            rmoveto
            24 20 -61 138 136 138 -14 21 -213 -159 rlineto
            return
          </CharString>
          <CharString index="101">
            36 -5 -42 41 hhcurveto
            27 20 20 27 hvcurveto
            return
          </CharString>
          <CharString index="102">
            34 -38 31 -42 -30 -30 -18 -35 -31 vhcurveto
            return
          </CharString>
          <CharString index="103">
            10 -20 -30 6 -31 hhcurveto
            -64 -51 -25 -54 -44 hvcurveto
            return
          </CharString>
          <CharString index="104">
            6 callgsubr
            159 26 264 26 -11 -20 hstemhm
            121 54 135 55 -2 54 135 55 return
          </CharString>
          <CharString index="105">
            2 1 -1 2 vvcurveto
            -17 hlineto
            -37 -95 rlineto
            22 hlineto
            8 16 rlineto
            return
          </CharString>
          <CharString index="106">
            -7 -40 rlineto
            68 -2 21 -9 -27 vvcurveto
            -14 -6 return
          </CharString>
          <CharString index="107">
            -21 426 124 -87 87 -10 -20 return
          </CharString>
          <CharString index="108">
            19 callsubr
            55 85 return
          </CharString>
          <CharString index="109">
            100 72 55 88 74 vvcurveto
            38 -30 33 -41 -39 -30 -32 -40 -34 17 -24 34 6 7 1 2 8 vhcurveto
            endchar
          </CharString>
          <CharString index="110">
            rmoveto
            -23 hlineto
            -186 -178 -5 -20 rlineto
            118 hlineto
            return
          </CharString>
          <CharString index="111">
            87 -46 55 -81 -65 -61 -36 -61 -39 vhcurveto
            -3 2 rlineto
            return
          </CharString>
          <CharString index="112">
            34 -26 24 -36 -50 -38 -47 -63 return
          </CharString>
          <CharString index="113">
            46 -5 47 76 46 -21 43 return
          </CharString>
          <CharString index="114">
            74 121 468 return
          </CharString>
          <CharString index="115">
            0 44 -44 85 -74 -21 91 39 callgsubr
            210 50 return
          </CharString>
          <CharString index="116">
            -33 9 75 -48 hhcurveto
            -31 -18 -23 -36 -43 37 -33 49 91 90 112 114 29 hvcurveto
            return
          </CharString>
          <CharString index="117">
            -5 -14 -23 -3 -29 hhcurveto
            -29 -26 3 4 -12 hvcurveto
            return
          </CharString>
          <CharString index="118">
            95 196 69 64 68 116 110 -87 87 return
          </CharString>
          <CharString index="119">
            hlineto
            168 34 53 121 53 hhcurveto
            return
          </CharString>
          <CharString index="120">
            -99 -10 50 453 47 return
          </CharString>
          <CharString index="121">
            rmoveto
            75 83 112 102 return
          </CharString>
          <CharString index="122">
            hstem
            24 105 251 return
          </CharString>
          <CharString index="123">
            15 callsubr
            96 vstem
            187 -10 rmoveto
            144 145 190 168 return
          </CharString>
          <CharString index="124">
            52 -52 232 -190 -20 37 callgsubr
            return
          </CharString>
          <CharString index="125">
            -113 -30 -53 -66 -65 hhcurveto
            return
          </CharString>
          <CharString index="126">
            53 callgsubr
            104 return
          </CharString>
          <CharString index="127">
            30 callgsubr
            10 96 return
          </CharString>
          <CharString index="128">
            52 172 rlineto
            -92 hlineto
            return
          </CharString>
          <CharString index="129">
            -28 -22 -28 -7 vhcurveto
            return
          </CharString>
          <CharString index="130">
            11 -21 740 40 return
          </CharString>
          <CharString index="131">
            113 -262 rlineto
            8 hlineto
            117 262 rlineto
            4 -180 hlineto
            return
          </CharString>
          <CharString index="132">
            449 0 43 247 50 45 44 114 -20 203 44 return
          </CharString>
          <CharString index="133">
            21 281 -20 30 -20 hstemhm
            return
          </CharString>
          <CharString index="134">
            68 29 callgsubr
            return
          </CharString>
          <CharString index="135">
            380 46 -46 218 return
          </CharString>
          <CharString index="136">
            78 -78 92 -92 237 return
          </CharString>
          <CharString index="137">
            -4 hlineto
            101 451 rlineto
            return
          </CharString>
          <CharString index="138">
            69 -69 130 hstemhm
            return
          </CharString>
          <CharString index="139">
            134 41 callgsubr
            return
          </CharString>
          <CharString index="140">
            46 36 32 8 94 hvcurveto
            -28 -99 -31 -53 -52 -56 rrcurveto
            return
          </CharString>
          <CharString index="141">
            -48 -10 75 -44 -21 487 53 return
          </CharString>
          <CharString index="142">
            113 -81 126 return
          </CharString>
          <CharString index="143">
            35 29 27 35 return
          </CharString>
          <CharString index="144">
            -36 29 -25 33 return
          </CharString>
          <CharString index="145">
            80 -69 -21 483 68 249 35 5 -20 hstemhm
            return
          </CharString>
          <CharString index="146">
            -21 callsubr
            19 callgsubr
            return
          </CharString>
          <CharString index="147">
            61 -35 41 -52 -14 callgsubr
            return
          </CharString>
          <CharString index="148">
            559 116 155 -20 hstem
            136 139 return
          </CharString>
          <CharString index="149">
            77 387 86 164 return
          </CharString>
          <CharString index="150">
            -58 -15 -22 -29 -29 hhcurveto
            return
          </CharString>
          <CharString index="151">
            -1 -10 -3 -11 return
          </CharString>
          <CharString index="152">
            170 140 hstemhm
            15 140 -58 140 return
          </CharString>
          <CharString index="153">
            hvcurveto
            74 229 rlineto
            -93 hlineto
            -74 -200 rlineto
            return
          </CharString>
          <CharString index="154">
            14 callgsubr
            hstemhm
            return
          </CharString>
          <CharString index="155">
            246 450 rmoveto
            return
          </CharString>
          <CharString index="156">
            0 callsubr
            hstemhm
            return
          </CharString>
          <CharString index="157">
            14 callsubr
            61 -35 41 -52 return
          </CharString>
          <CharString index="158">
            rmoveto
            -39 -39 -57 -71 -50 vhcurveto
            23 -32 rlineto
            return
          </CharString>
          <CharString index="159">
            65 -65 116 return
          </CharString>
          <CharString index="160">
            hstemhm
            174 80 return
          </CharString>
        <CharString name=".notdef">
          134 -260 61 1110 59 hstem
          130 110 275 111 vstem
          130 -260 rmoveto
          496 1230 -496 hlineto
          110 -59 rmoveto
          275 -1110 -275 hlineto
          endchar
        </CharString>
        <CharString name="A">
          -35 callgsubr
          hstem
          690 780 -105 callgsubr
          endchar
        </CharString>
        <CharString name="A.ss01">
          106 -35 callgsubr
          hstem
          455 93 vstem
          550 780 rmoveto
          -84 hlineto
          -340 -549 rlineto
          -146 -90 -46 -45 -63 hhcurveto
          -2 -40 rlineto
          258 hlineto
          2 40 rlineto
          -52 -31 9 29 11 4 18 78 117 hvcurveto
          44 66 rlineto
          223 -123 hlineto
          -109 -13 -18 -78 vhcurveto
          -2 -40 rlineto
          296 hlineto
          2 40 rlineto
          -69 -26 9 40 -9 hvcurveto
          -4 16 -1 29 32 vvcurveto
          -289 174 rmoveto
          200 333 rlineto
          4 hlineto
          -13 -333 rlineto
          endchar
        </CharString>
        <CharString name="AE">
          25 callsubr
          hstem
          -79 callgsubr
          endchar
        </CharString>
        <CharString name="AEacute">
          25 callsubr
          -44 234 hstemhm
          hintmask 11111000
          -79 callgsubr
          190 510 -76 callsubr
          hintmask 11110100
          -89 callsubr
        </CharString>
        <CharString name="Aacute">
          -35 callgsubr
          200 -20 hstem
          690 780 -105 callgsubr
          194 510 -76 callsubr
          -89 callsubr
        </CharString>
        <CharString name="Abreve">
          -35 callgsubr
          85 69 -69 115 hstemhm
          hintmask 11101000
          690 780 -105 callgsubr
          317 620 rmoveto
          hintmask 11110000
          13 callgsubr
          hintmask 11101000
          -74 callgsubr
        </CharString>
        <CharString name="Acircumflex">
          -35 callgsubr
          200 -20 hstem
          690 780 -105 callgsubr
          156 620 -93 callsubr
        </CharString>
        <CharString name="Adieresis">
          -35 callgsubr
          99 101 hstem
          690 780 -105 callgsubr
          60 570 -96 callgsubr
        </CharString>
        <CharString name="Agrave">
          -35 callgsubr
          200 -20 hstem
          690 780 -105 callgsubr
          211 510 23 callgsubr
          -72 callgsubr
        </CharString>
        <CharString name="Amacron">
          -35 callgsubr
          120 50 hstem
          690 780 -105 callgsubr
          319 540 -60 callsubr
        </CharString>
        <CharString name="Aogonek">
          -234 60 174 -27 callsubr
          hstem
          523 -59 callsubr
          40 45 51 66 35 hvcurveto
          134 hlineto
          10 40 rlineto
          -73 -20 10 39 16 4 26 8 35 hvcurveto
          139 614 rlineto
          -84 hlineto
          -461 -549 rlineto
          -146 -123 -57 -45 -63 hhcurveto
          -10 -40 rlineto
          259 hlineto
          10 40 rlineto
          -55 -20 9 25 16 9 20 109 114 hvcurveto
          63 66 rlineto
          215 hlineto
          -27 -123 rlineto
          -109 -24 -17 -18 -78 hhcurveto
          -10 -40 rlineto
          97 22 callgsubr
          -242 492 rmoveto
          259 310 rlineto
          4 hlineto
          -82 -310 rlineto
          endchar
        </CharString>
        <CharString name="Aring">
          -35 callgsubr
          70 31 67 32 hstem
          616 32 70 33 vstem
          690 780 -105 callgsubr
          125 538 -48 callgsubr
        </CharString>
        <CharString name="Aringacute">
          -35 callgsubr
          70 31 67 27 5 -20 hstemhm
          722 101 hintmask 11111010
          517 850 rmoveto
          60 hlineto
          46 8 rlineto
          -17 7 16 -11 23 hhcurveto
          37 35 27 34 11 hvcurveto
          45 9 26 15 20 vvcurveto
          13 -11 7 -19 -16 -14 -5 -8 -18 vhcurveto
          hintmask 11110110
          11 -9 -14 7 -17 hhcurveto
          -38 -36 -30 -36 -9 hvcurveto
          hintmask 11111010
          74 34 rmoveto
          16 10 -10 -15 -22 -22 -20 -23 -15 -10 9 15 22 21 21 23 hvcurveto
          -6 -148 -105 callgsubr
          endchar
        </CharString>
        <CharString name="Atilde">
          -35 callgsubr
          78 29 callgsubr
          hintmask 11101000
          690 780 -105 callgsubr
          56 506 rmoveto
          29 9 11 11 22 hhcurveto
          hintmask 11110000
          -67 callsubr
          hintmask 11100100
          -48 -51 46 -60 -56 callsubr
        </CharString>
        <CharString name="B">
          114 0 45 340 51 289 45 hstemhm
          580 74 -74 106 hintmask 11110000
          280 385 rmoveto
          57 hlineto
          135 65 -45 -101 -111 -86 -83 -147 -42 -52 6 54 25 14 52 7 25 hvcurveto
          -260 -207 rmoveto
          366 hlineto
          183 134 85 136 97 -64 65 -116 24 hvcurveto
          4 vlineto
          hintmask 11101000
          93 14 119 42 130 vvcurveto
          138 -138 35 -115 vhcurveto
          -268 hlineto
          -11 -40 rlineto
          66 26 -16 -45 -18 -4 -23 -7 -28 hvcurveto
          -118 -441 rlineto
          -104 -28 -26 -15 -81 hhcurveto
          367 605 rmoveto
          57 15 20 23 36 hhcurveto
          115 45 -37 -86 -99 -87 -67 -126 hvcurveto
          -74 hlineto
          endchar
        </CharString>
        <CharString name="C">
          106 -10 52 callgsubr
          hintmask 11010000
          -85 callsubr
          hintmask 10110000
          46 251 -19 callgsubr
          hintmask 11010000
          41 -59 -57 19 -64 hhcurveto
          -225 -200 -226 -253 -191 112 -120 180 123 85 57 142 92 hvcurveto
          endchar
        </CharString>
        <CharString name="CR">
          -309 endchar
        </CharString>
        <CharString name="Cacute">
          -88 callsubr
          -197 661 -76 callsubr
          hintmask 10101000
          -89 callsubr
        </CharString>
        <CharString name="Ccaron">
          -88 callsubr
          -88 662 rmoveto
          hintmask 10101000
          -86 callsubr
        </CharString>
        <CharString name="Ccedilla">
          106 -14 callsubr
          62 52 callgsubr
          193 85 hintmask 10111011
          -85 callsubr
          hintmask 10110111
          46 251 -19 callgsubr
          hintmask 10111011
          41 -59 -57 19 -64 hhcurveto
          -225 -200 -226 -253 -187 107 -119 174 -5 hvcurveto
          -70 -102 -50 callsubr
          hintmask 01111011
          -68 callgsubr
          41 65 100 12 75 59 81 125 rlinecurve
          endchar
        </CharString>
        <CharString name="Ccircumflex">
          -88 callsubr
          hintmask 10101000
          -164 771 -93 callsubr
        </CharString>
        <CharString name="Cdotaccent">
          106 -10 62 676 52 -10 -20 102 107 37 callgsubr
          306 107 0 61 hintmask 11011010
          -85 callsubr
          hintmask 10111100
          46 251 -19 callgsubr
          hintmask 11011100
          41 -59 -57 19 -64 hhcurveto
          -225 -200 -226 -253 -191 112 -120 180 123 85 57 142 92 hvcurveto
          -165 715 -61 callsubr
        </CharString>
        <CharString name="D">
          214 0 44 676 50 hstem
          681 116 vstem
          152 -61 callgsubr
          -115 -442 -103 callgsubr
          endchar
        </CharString>
        <CharString name="Dcaron">
          214 0 44 676 50 -50 240 hstemhm
          681 116 hintmask 11010000
          152 -61 callgsubr
          -115 -442 -103 callgsubr
          306 620 rmoveto
          hintmask 10110000
          -86 callsubr
        </CharString>
        <CharString name="Dcroat">
          217 0 44 322 50 304 50 hstem
          684 116 vstem
          155 -61 callgsubr
          -48 -184 rlineto
          -93 hlineto
          -13 -50 rlineto
          93 hlineto
          -54 -208 -103 callgsubr
          36 135 rlineto
          115 hlineto
          13 50 rlineto
          -114 hlineto
          endchar
        </CharString>
        <CharString name="Ddotbelow">
          214 -232 124 108 44 676 50 hstem
          229 124 328 116 vstem
          152 -61 callgsubr
          -115 -442 -103 callgsubr
          -8 -401 -100 callsubr
        </CharString>
        <CharString name="E">
          -59 callgsubr
          hstem
          -26 hmoveto
          623 -107 callgsubr
          endchar
        </CharString>
        <CharString name="Eacute">
          -59 callgsubr
          -44 234 hstemhm
          hintmask 11110000
          -26 hmoveto
          623 -107 callgsubr
          453 810 -76 callsubr
          hintmask 11101000
          -89 callsubr
        </CharString>
        <CharString name="Ebreve">
          -59 callgsubr
          75 69 -69 115 hstemhm
          hintmask 11110100
          -26 hmoveto
          623 -107 callgsubr
          632 920 rmoveto
          hintmask 11111000
          13 callgsubr
          hintmask 11110100
          -74 callgsubr
        </CharString>
        <CharString name="Ecaron">
          -59 callgsubr
          -44 234 hstemhm
          hintmask 11110000
          -26 hmoveto
          623 -107 callgsubr
          548 811 rmoveto
          hintmask 11101000
          -86 callsubr
        </CharString>
        <CharString name="Ecircumflex">
          -59 callgsubr
          -44 234 hstemhm
          hintmask 11110000
          -26 hmoveto
          623 -107 callgsubr
          hintmask 11101000
          467 920 -93 callsubr
        </CharString>
        <CharString name="Edieresis">
          -59 callgsubr
          89 101 hstem
          -26 hmoveto
          623 -107 callgsubr
          367 870 -96 callgsubr
        </CharString>
        <CharString name="Edotaccent">
          -59 callgsubr
          82 107 hstem
          456 107 vstem
          -26 hmoveto
          623 -107 callgsubr
          471 864 -61 callsubr
        </CharString>
        <CharString name="Edotbelow">
          118 -17 callgsubr
          106 43 342 44 114 -20 203 44 hstem
          249 115 vstem
          -26 hmoveto
          623 -107 callgsubr
          255 -208 -100 callsubr
        </CharString>
        <CharString name="Egrave">
          -59 callgsubr
          -44 234 hstemhm
          hintmask 11110000
          -26 hmoveto
          623 -107 callgsubr
          599 810 23 callgsubr
          hintmask 11101000
          -72 callgsubr
        </CharString>
        <CharString name="Emacron">
          -59 callgsubr
          110 50 hstem
          -26 hmoveto
          623 -107 callgsubr
          636 840 -60 callsubr
        </CharString>
        <CharString name="Eng">
          220 -260 53 -53 226 34 -30 callsubr
          hstemhm
          hintmask 10110000
          410 -207 rmoveto
          -31 -21 18 25 hvcurveto
          33 42 0 44 vvcurveto
          hintmask 01110000
          31 -22 22 -31 -49 -38 -48 -61 -72 54 -45 86 103 68 64 132 34 vhcurveto
          177 676 rlineto
          68 18 46 50 51 hhcurveto
          11 40 rlineto
          -256 hlineto
          -12 -40 rlineto
          47 -1 37 -33 -57 vvcurveto
          -11 -2 -13 -3 -13 vhcurveto
          -106 -405 rlineto
          -4 hlineto
          -250 573 rlineto
          -235 hlineto
          -12 -40 rlineto
          88 -1 59 -33 -63 vvcurveto
          -10 44 callsubr
          vhcurveto
          -118 -444 rlineto
          -68 -18 -55 -50 -62 -69 callgsubr
          286 hlineto
          12 40 rlineto
          -59 1 -36 29 55 vvcurveto
          13 2 14 4 16 vhcurveto
          114 434 rlineto
          4 hlineto
          251 -577 -14 -53 rlineto
          hintmask 10110000
          -113 -30 -54 -66 -61 hhcurveto
          endchar
        </CharString>
        <CharString name="Eogonek">
          118 -234 60 174 43 342 44 114 -20 203 44 hstem
          136 79 vstem
          -26 hmoveto
          287 22 callgsubr
          -29 31 rlineto
          -34 -35 -35 -19 -25 hhcurveto
          -28 -23 21 27 40 45 51 66 35 hvcurveto
          271 -107 callgsubr
          endchar
        </CharString>
        <CharString name="Eth">
          217 0 44 322 50 304 50 hstem
          684 116 vstem
          155 -61 callgsubr
          -48 -184 rlineto
          -93 hlineto
          -13 -50 rlineto
          93 hlineto
          -54 -208 -103 callgsubr
          36 135 rlineto
          115 hlineto
          13 50 rlineto
          -114 hlineto
          endchar
        </CharString>
        <CharString name="Etilde">
          -59 callgsubr
          27 callsubr
          hintmask 11110100
          -26 hmoveto
          623 -107 callgsubr
          373 806 rmoveto
          29 9 11 11 22 hhcurveto
          hintmask 11111000
          -67 callsubr
          hintmask 11110010
          -48 -51 46 -60 -56 callsubr
        </CharString>
        <CharString name="Euro">
          90 -10 53 257 52 84 52 56 236 -51 51 hstemhm
          124 114 290 88 26 81 hintmask 11101111
          368 43 rmoveto
          -83 -47 55 95 33 6 37 10 37 hvcurveto
          233 hlineto
          14 52 rlineto
          -235 hlineto
          6 29 11 36 7 19 rrcurveto
          234 hlineto
          13 52 rlineto
          -231 hlineto
          158 61 84 83 100 hhcurveto
          58 33 -28 -50 -41 -23 -36 -32 -9 hvcurveto
          hintmask 11110111
          -15 8 11 -6 22 hhcurveto
          57 38 39 60 82 -67 55 -101 -150 -145 -114 -178 -79 hvcurveto
          -90 hlineto
          -12 -52 rlineto
          83 hlineto
          -9 -22 -11 -35 -5 -27 rrcurveto
          -80 hlineto
          -14 -52 rlineto
          85 hlineto
          -4 -34 0 -12 -17 vvcurveto
          -157 82 -90 142 138 130 84 99 46 -20 25 -34 -20 -20 -9 -15 -20 vhcurveto
          17 -10 9 -15 -28 vvcurveto
          -69 -76 -55 -84 vhcurveto
          endchar
        </CharString>
        <CharString name="F">
          37 0 43 342 44 114 -20 203 44 hstem
          -26 hmoveto
          350 hlineto
          11 43 rlineto
          -90 -32 23 48 16 3 18 6 22 hvcurveto
          57 215 rlineto
          80 hlineto
          53 17 -30 -66 -18 -1 -20 -2 -24 hvcurveto
          40 hlineto
          70 316 rlineto
          -37 hlineto
          -92 -42 -26 -22 -71 hhcurveto
          -68 hlineto
          78 297 rlineto
          130 hlineto
          84 50 -31 -127 34 hvcurveto
          38 202 -546 -18 callsubr
          28 -9 -44 -19 -5 -25 -9 -34 hvcurveto
          -116 -441 rlineto
          -95 -25 -21 -23 -88 hhcurveto
          endchar
        </CharString>
        <CharString name="G">
          -10 callgsubr
          -10 -20 37 callgsubr
          hintmask 11110100
          -62 callsubr
          hintmask 11101100
          36 220 -19 callgsubr
          hintmask 11110100
          -93 callgsubr
          endchar
        </CharString>
        <CharString name="Gbreve">
          -10 callgsubr
          -10 -20 95 69 -69 115 37 callgsubr
          0 241 hintmask 1111010100000000
          -62 callsubr
          hintmask 1110110100000000
          36 220 -19 callgsubr
          hintmask 1111001100000000
          -93 callgsubr
          290 916 rmoveto
          hintmask 1111010100000000
          13 callgsubr
          hintmask 1111001010000000
          -74 callgsubr
        </CharString>
        <CharString name="Gcircumflex">
          -10 callgsubr
          -52 232 -190 -20 hstemhm
          73 121 hintmask 11110010
          -62 callsubr
          hintmask 11100110
          36 220 -19 callgsubr
          hintmask 11110010
          -93 callgsubr
          hintmask 11101010
          130 916 -93 callsubr
        </CharString>
        <CharString name="Gcommaaccent">
          187 -12 callgsubr
          44 54 256 39 211 -20 198 52 -10 -20 37 callgsubr
          88 122 0 178 hintmask 1111110110000000
          -62 callsubr
          hintmask 1111101110000000
          36 220 -19 callgsubr
          hintmask 1111110101000000
          -93 callgsubr
          -78 -294 17 callgsubr
          vhcurveto
          hintmask 1111110110000000
          -18 callgsubr
        </CharString>
        <CharString name="Gdotaccent">
          -10 callgsubr
          -10 -20 102 107 37 callgsubr
          320 107 hintmask 11110111
          -62 callsubr
          hintmask 11101111
          36 220 -19 callgsubr
          hintmask 11110111
          -93 callgsubr
          127 860 -61 callsubr
        </CharString>
        <CharString name="H">
          289 0 40 327 51 312 40 hstem
          -94 callsubr
          endchar
        </CharString>
        <CharString name="Hbar">
          291 0 40 327 51 123 50 139 40 hstem
          929 541 rmoveto
          13 50 rlineto
          -113 hlineto
          114 32 25 25 83 hhcurveto
          11 40 rlineto
          -325 -18 callsubr
          27 -7 -41 -19 -5 -26 -10 -37 hvcurveto
          -3 -9 rlineto
          -387 hlineto
          114 32 25 25 83 hhcurveto
          11 40 rlineto
          -325 -18 callsubr
          27 -7 -41 -19 -5 -26 -10 -37 hvcurveto
          -3 -9 rlineto
          -106 hlineto
          -13 -50 rlineto
          106 hlineto
          -101 -383 rlineto
          -98 -26 -30 -20 31 callgsubr
          319 -92 callgsubr
          52 199 rlineto
          388 hlineto
          -55 -209 rlineto
          -98 -26 -30 -20 31 callgsubr
          319 -92 callgsubr
          98 373 rlineto
          -523 -123 rmoveto
          32 123 rlineto
          388 hlineto
          -32 -123 rlineto
          endchar
        </CharString>
        <CharString name="Hcircumflex">
          289 0 40 327 51 312 40 -40 230 hstemhm
          hintmask 11100000
          -94 callsubr
          hintmask 11010000
          -144 792 -93 callsubr
        </CharString>
        <CharString name="Hdotbelow">
          289 -17 callgsubr
          106 40 327 51 312 40 hstem
          -94 callsubr
          -400 -336 -100 callsubr
        </CharString>
        <CharString name="I">
          7 callgsubr
          hstem
          329 566 rmoveto
          -104 callsubr
          endchar
        </CharString>
        <CharString name="IJ">
          341 0 40 -40 26 callgsubr
          212 185 hintmask 10011000
          329 566 rmoveto
          -104 callsubr
          330 -125 -15 callsubr
          hintmask 01011000
          5 callsubr
          vhcurveto
          hintmask 00111000
          -84 callgsubr
          18 callsubr
          endchar
        </CharString>
        <CharString name="Iacute">
          -202 -42 callsubr
          329 566 rmoveto
          -104 callsubr
          72 682 -76 callsubr
          hintmask 10100000
          -89 callsubr
        </CharString>
        <CharString name="Ibreve">
          7 callgsubr
          75 69 -69 115 hstemhm
          hintmask 11010000
          329 566 rmoveto
          -104 callsubr
          260 792 rmoveto
          hintmask 11100000
          13 callgsubr
          hintmask 11010000
          -74 callgsubr
        </CharString>
        <CharString name="Icircumflex">
          -202 -42 callsubr
          329 566 rmoveto
          -104 callsubr
          hintmask 10100000
          94 792 -93 callsubr
        </CharString>
        <CharString name="Idieresis">
          7 callgsubr
          89 101 hstem
          329 566 rmoveto
          -104 callsubr
          2 742 -96 callgsubr
        </CharString>
        <CharString name="Idotaccent">
          7 callgsubr
          82 107 hstem
          316 107 vstem
          329 566 rmoveto
          -104 callsubr
          92 736 -61 callsubr
        </CharString>
        <CharString name="Idotbelow">
          -202 -17 callgsubr
          106 -30 callsubr
          hstem
          39 124 vstem
          329 566 rmoveto
          -104 callsubr
          -185 -336 -100 callsubr
        </CharString>
        <CharString name="Igrave">
          -202 -42 callsubr
          329 566 rmoveto
          -104 callsubr
          218 682 23 callgsubr
          hintmask 10100000
          -72 callgsubr
        </CharString>
        <CharString name="Imacron">
          7 callgsubr
          110 50 hstem
          329 566 rmoveto
          -104 callsubr
          264 712 -60 callsubr
        </CharString>
        <CharString name="Iogonek">
          -202 -234 60 174 -30 callsubr
          hstem
          -42 79 vstem
          183 -59 callsubr
          40 45 51 66 35 hvcurveto
          143 -92 callgsubr
          105 398 rlineto
          136 36 23 28 88 hhcurveto
          11 40 rlineto
          -325 -18 callsubr
          27 -7 -41 -19 -5 -26 -10 -37 hvcurveto
          -117 -442 rlineto
          -98 -26 -30 -20 31 callgsubr
          111 22 callgsubr
          endchar
        </CharString>
        <CharString name="Itilde">
          -202 32 callgsubr
          329 566 rmoveto
          -104 callsubr
          -2 678 rmoveto
          29 9 11 11 22 hhcurveto
          hintmask 11100000
          -67 callsubr
          hintmask 11001000
          -48 -51 46 -60 -56 callsubr
        </CharString>
        <CharString name="J">
          -79 -10 53 -53 241 499 40 hstemhm
          -23 98 hintmask 10110000
          32 callsubr
          hintmask 01110000
          5 callsubr
          -84 callgsubr
          hintmask 10110000
          18 callsubr
          endchar
        </CharString>
        <CharString name="Jcircumflex">
          -79 -10 53 -53 241 499 40 -40 230 hstemhm
          -23 98 hintmask 10101000
          32 callsubr
          hintmask 01101000
          5 callsubr
          -84 callgsubr
          hintmask 10011000
          18 callsubr
          321 917 -93 callsubr
        </CharString>
        <CharString name="K">
          203 -38 callsubr
          hstem
          328 -11 callgsubr
          -25 -20 -74 -69 callgsubr
          319 hlineto
          12 40 rlineto
          -71 -30 13 45 18 4 23 8 29 hvcurveto
          50 189 40 28 158 -212 rlineto
          39 -53 18 -33 -19 vvcurveto
          -23 -27 -5 -47 vhcurveto
          -11 -40 rlineto
          314 hlineto
          11 40 rlineto
          -54 -13 5 142 -107 hvcurveto
          -196 258 154 108 rlineto
          148 210 31 29 43 hhcurveto
          10 40 rlineto
          -284 hlineto
          -10 -40 rlineto
          43 24 -9 -19 -25 -37 -42 -84 -60 hvcurveto
          -207 -148 rlineto
          endchar
        </CharString>
        <CharString name="Kcommaaccent">
          203 -12 callgsubr
          54 -30 callsubr
          hstem
          328 -11 callgsubr
          -25 -20 -74 -69 callgsubr
          319 hlineto
          12 40 rlineto
          -71 -30 13 45 18 4 23 8 29 hvcurveto
          50 189 40 28 158 -212 rlineto
          39 -53 18 -33 -19 vvcurveto
          -23 -27 -5 -47 vhcurveto
          -11 -40 rlineto
          314 hlineto
          11 40 rlineto
          -54 -13 5 142 -107 hvcurveto
          -196 258 154 108 rlineto
          148 210 31 29 43 hhcurveto
          10 40 rlineto
          -284 hlineto
          -10 -40 rlineto
          43 24 -9 -19 -25 -37 -42 -84 -60 hvcurveto
          -207 -148 rlineto
          35 -677 rmoveto
          -96 callsubr
        </CharString>
        <CharString name="L">
          80 0 43 687 40 hstem
          -25 -37 callgsubr
          -97 callsubr
          endchar
        </CharString>
        <CharString name="Lacute">
          80 0 43 687 40 -40 230 hstemhm
          hintmask 11000000
          -25 -37 callgsubr
          -97 callsubr
          298 810 -76 callsubr
          hintmask 10100000
          -89 callsubr
        </CharString>
        <CharString name="Lcaron">
          80 0 43 687 40 -40 230 hstemhm
          hintmask 11000000
          -25 -37 callgsubr
          -97 callsubr
          393 811 rmoveto
          hintmask 10100000
          -86 callsubr
        </CharString>
        <CharString name="Lcommaaccent">
          80 -12 callgsubr
          54 43 687 40 hstem
          219 122 vstem
          -25 -37 callgsubr
          -97 callsubr
          260 -290 rmoveto
          -96 callsubr
        </CharString>
        <CharString name="Ldot">
          80 0 43 295 124 268 40 hstem
          416 124 vstem
          -25 -37 callgsubr
          -97 callsubr
          430 360 -100 callsubr
        </CharString>
        <CharString name="Lslash">
          82 0 43 687 40 hstem
          -23 -37 callgsubr
          -138 -57 -67 -50 -159 hhcurveto
          -83 -29 23 48 16 3 18 6 22 hvcurveto
          62 236 107 57 17 65 -107 -57 25 95 rlineto
          136 36 23 28 88 hhcurveto
          11 40 rlineto
          -325 -18 callsubr
          27 -7 -41 -19 -6 -26 -9 -37 hvcurveto
          -49 -192 -86 -45 -17 -65 86 46 -47 -186 rlineto
          -95 -24 -23 -23 -87 hhcurveto
          endchar
        </CharString>
        <CharString name="M">
          398 -38 callsubr
          hstem
          849 655 rmoveto
          -132 -497 rlineto
          -98 -26 -25 -20 -74 -69 callgsubr
          319 hlineto
          12 40 rlineto
          -71 -30 13 45 18 4 23 8 29 hvcurveto
          105 398 rlineto
          135 36 15 29 76 hhcurveto
          11 40 rlineto
          -211 hlineto
          -377 -596 rlineto
          -4 hlineto
          -71 596 rlineto
          -240 -18 callsubr
          27 -7 -41 -19 -5 -26 -10 -37 hvcurveto
          -117 -442 rlineto
          -68 -18 -55 -50 -62 -69 callgsubr
          276 hlineto
          12 40 rlineto
          -52 1 -34 29 54 vvcurveto
          13 3 15 4 16 vhcurveto
          128 487 rlineto
          4 hlineto
          78 -655 rlineto
          43 hlineto
          410 655 rlineto
          endchar
        </CharString>
        <CharString name="N">
          220 -38 callsubr
          hstem
          620 hmoveto
          162 612 rlineto
          68 18 46 50 51 hhcurveto
          11 40 rlineto
          -256 hlineto
          -12 -40 rlineto
          47 -1 37 -33 -57 vvcurveto
          -11 -2 -13 -3 -13 vhcurveto
          -106 -405 rlineto
          -4 hlineto
          -250 573 rlineto
          -235 hlineto
          -12 -40 rlineto
          88 -1 59 -33 -63 vvcurveto
          -10 44 callsubr
          vhcurveto
          -118 -444 rlineto
          -68 -18 -55 -50 -62 -69 callgsubr
          286 hlineto
          12 40 rlineto
          -59 1 -36 29 55 vvcurveto
          13 2 14 4 16 vhcurveto
          114 434 rlineto
          4 hlineto
          262 -602 rlineto
          endchar
        </CharString>
        <CharString name="NULL">
          -622 endchar
        </CharString>
        <CharString name="Nacute">
          220 -42 callsubr
          620 hmoveto
          162 612 rlineto
          68 18 46 50 51 hhcurveto
          11 40 rlineto
          -256 hlineto
          -12 -40 rlineto
          47 -1 37 -33 -57 vvcurveto
          -11 -2 -13 -3 -13 vhcurveto
          -106 -405 rlineto
          -4 hlineto
          -250 573 rlineto
          -235 hlineto
          -12 -40 rlineto
          88 -1 59 -33 -63 vvcurveto
          -10 44 callsubr
          vhcurveto
          -118 -444 rlineto
          -68 -18 -55 -50 -62 -69 callgsubr
          286 hlineto
          12 40 rlineto
          -59 1 -36 29 55 vvcurveto
          13 2 14 4 16 vhcurveto
          114 434 rlineto
          4 hlineto
          262 -602 rlineto
          -78 850 -76 callsubr
          hintmask 10100000
          -89 callsubr
        </CharString>
        <CharString name="Ncaron">
          220 -42 callsubr
          620 hmoveto
          162 612 rlineto
          68 18 46 50 51 hhcurveto
          11 40 rlineto
          -256 hlineto
          -12 -40 rlineto
          47 -1 37 -33 -57 vvcurveto
          -11 -2 -13 -3 -13 vhcurveto
          -106 -405 rlineto
          -4 hlineto
          -250 573 rlineto
          -235 hlineto
          -12 -40 rlineto
          88 -1 59 -33 -63 vvcurveto
          -10 44 callsubr
          vhcurveto
          -118 -444 rlineto
          -68 -18 -55 -50 -62 -69 callgsubr
          286 hlineto
          12 40 rlineto
          -59 1 -36 29 55 vvcurveto
          13 2 14 4 16 vhcurveto
          114 434 rlineto
          4 hlineto
          262 -602 rlineto
          17 851 rmoveto
          hintmask 10100000
          -86 callsubr
        </CharString>
        <CharString name="Ncommaaccent">
          220 -12 callgsubr
          54 -30 callsubr
          hstem
          620 hmoveto
          162 612 rlineto
          68 18 46 50 51 hhcurveto
          11 40 rlineto
          -256 hlineto
          -12 -40 rlineto
          47 -1 37 -33 -57 vvcurveto
          -11 -2 -13 -3 -13 vhcurveto
          -106 -405 rlineto
          -4 hlineto
          -250 573 rlineto
          -235 hlineto
          -12 -40 rlineto
          88 -1 59 -33 -63 vvcurveto
          -10 44 callsubr
          vhcurveto
          -118 -444 rlineto
          -68 -18 -55 -50 -62 -69 callgsubr
          286 hlineto
          12 40 rlineto
          -59 1 -36 29 55 vvcurveto
          13 2 14 4 16 vhcurveto
          114 434 rlineto
          4 hlineto
          262 -602 rlineto
          -228 -250 rmoveto
          -96 callsubr
        </CharString>
        <CharString name="Ndotaccent">
          220 -38 callsubr
          82 107 hstem
          620 hmoveto
          162 612 rlineto
          68 18 46 50 51 hhcurveto
          11 40 rlineto
          -256 hlineto
          -12 -40 rlineto
          47 -1 37 -33 -57 vvcurveto
          -11 -2 -13 -3 -13 vhcurveto
          -106 -405 rlineto
          -4 hlineto
          -250 573 rlineto
          -235 hlineto
          -12 -40 rlineto
          88 -1 59 -33 -63 vvcurveto
          -10 44 callsubr
          vhcurveto
          -118 -444 rlineto
          -68 -18 -55 -50 -62 -69 callgsubr
          286 hlineto
          12 40 rlineto
          -59 1 -36 29 55 vvcurveto
          13 2 14 4 16 vhcurveto
          114 434 rlineto
          4 hlineto
          262 -602 rlineto
          -75 904 -61 callsubr
        </CharString>
        <CharString name="Ntilde">
          220 32 callgsubr
          620 hmoveto
          162 612 rlineto
          68 18 46 50 51 hhcurveto
          11 40 rlineto
          -256 hlineto
          -12 -40 rlineto
          47 -1 37 -33 -57 vvcurveto
          -11 -2 -13 -3 -13 vhcurveto
          -106 -405 rlineto
          -4 hlineto
          -250 573 rlineto
          -235 hlineto
          -12 -40 rlineto
          88 -1 59 -33 -63 vvcurveto
          -10 44 callsubr
          vhcurveto
          -118 -444 rlineto
          -68 -18 -55 -50 -62 -69 callgsubr
          286 hlineto
          12 40 rlineto
          -59 1 -36 29 55 vvcurveto
          13 2 14 4 16 vhcurveto
          114 434 rlineto
          4 hlineto
          262 -602 rlineto
          -160 846 rmoveto
          29 9 11 11 22 hhcurveto
          hintmask 11100000
          -67 callsubr
          hintmask 11001000
          -48 -51 46 -60 -56 callsubr
        </CharString>
        <CharString name="O">
          -21 callgsubr
          hstem
          74 121 468 121 vstem
          -103 callsubr
          endchar
        </CharString>
        <CharString name="OE">
          536 0 43 344 40 115 -20 208 40 hstem
          68 124 vstem
          585 770 rmoveto
          -256 -261 -215 -256 -172 130 -127 203 hvcurveto
          614 hlineto
          78 211 rlineto
          -47 hlineto
          -118 -53 -59 -50 -141 hhcurveto
          -102 -43 17 53 -1 hvcurveto
          12 1 15 4 17 vhcurveto
          55 230 rlineto
          121 -1 23 -15 -69 vvcurveto
          -16 -1 -18 -1 -21 vhcurveto
          40 hlineto
          60 295 rlineto
          -38 hlineto
          -100 -38 -34 -15 -123 hhcurveto
          68 283 rlineto
          10 8 7 11 vhcurveto
          81 hlineto
          124 42 -27 -132 36 hvcurveto
          38 202 hlineto
          -549 -40 rmoveto
          64 26 -11 -45 -14 -4 -19 -4 -23 hvcurveto
          -111 -466 rlineto
          -94 -22 -15 -16 -94 hhcurveto
          -140 -83 83 138 35 5 36 10 42 hvcurveto
          219 50 141 135 177 hhcurveto
          endchar
        </CharString>
        <CharString name="Oacute">
          -21 callgsubr
          -52 232 hstemhm
          7 callsubr
          121 hintmask 11011000
          -103 callsubr
          -26 122 -76 callsubr
          hintmask 10111000
          -89 callsubr
        </CharString>
        <CharString name="Obreve">
          -21 callgsubr
          65 69 -69 115 hstemhm
          7 callsubr
          121 hintmask 11011100
          -103 callsubr
          182 232 rmoveto
          hintmask 11101100
          13 callgsubr
          hintmask 11011100
          -74 callgsubr
        </CharString>
        <CharString name="Ocircumflex">
          -21 callgsubr
          -52 232 hstemhm
          7 callsubr
          121 hintmask 11011000
          -103 callsubr
          hintmask 10111000
          4 232 -93 callsubr
        </CharString>
        <CharString name="Odieresis">
          -21 callgsubr
          79 101 hstemhm
          7 callsubr
          40 -40 121 hintmask 11110100
          -103 callsubr
          -87 182 rmoveto
          -2 -5 0 -5 -5 vvcurveto
          -21 15 -15 23 32 35 29 35 21 -16 16 -24 -28 22 callsubr
          182 hmoveto
          -2 -5 0 -5 -5 vvcurveto
          -21 15 -15 24 vhcurveto
          hintmask 11111000
          31 35 29 35 21 -16 16 -23 -29 -28 -22 -28 -7 hvcurveto
          endchar
        </CharString>
        <CharString name="Odotbelow">
          198 -17 callgsubr
          96 54 684 52 hstem
          74 121 67 124 277 121 vstem
          -103 callsubr
          -243 -896 -100 callsubr
        </CharString>
        <CharString name="Ograve">
          -21 callgsubr
          -52 232 hstemhm
          7 callsubr
          121 hintmask 11011000
          -103 callsubr
          120 122 23 callgsubr
          hintmask 10111000
          -72 callgsubr
        </CharString>
        <CharString name="Ohungarumlaut">
          -21 callgsubr
          70 110 hstem
          74 121 468 121 vstem
          -103 callsubr
          -84 122 rmoveto
          -65 callgsubr
          247 hmoveto
          -65 callgsubr
          endchar
        </CharString>
        <CharString name="Omacron">
          -21 callgsubr
          100 50 hstem
          74 121 468 121 vstem
          -103 callsubr
          172 152 -60 callsubr
        </CharString>
        <CharString name="Oogonek">
          198 36 callgsubr
          54 -32 -21 737 52 hstemhm
          74 121 -37 37 -37 79 426 121 hintmask 10110011
          383 -59 callsubr
          37 38 46 57 34 hvcurveto
          hintmask 11011001
          8 8 -1 8 hhcurveto
          229 199 222 257 190 -109 121 -170 -230 -201 -222 -255 -160 79 -113 127 -31 hvcurveto
          hintmask 11010101
          -78 -37 -44 -54 -57 -54 callsubr
          93 880 rmoveto
          108 50 -73 -159 -262 -125 -190 -168 -114 -61 87 169 240 136 188 174 hvcurveto
          endchar
        </CharString>
        <CharString name="Oslash">
          198 -41 -21 52 54 684 52 48 -72 callsubr
          endchar
        </CharString>
        <CharString name="Oslashacute">
          198 -41 -21 52 54 684 52 48 -20 152 -72 callsubr
          -171 354 -76 callsubr
          -89 callsubr
        </CharString>
        <CharString name="Otilde">
          -21 callgsubr
          58 29 callgsubr
          7 callsubr
          121 hintmask 11010110
          -103 callsubr
          -90 118 rmoveto
          29 9 11 11 22 hhcurveto
          hintmask 11100110
          -67 callsubr
          hintmask 11001110
          -48 -51 46 -60 -56 callsubr
        </CharString>
        <CharString name="P">
          45 0 45 313 51 316 45 hstem
          597 111 vstem
          275 358 rmoveto
          72 hlineto
          209 152 101 139 108 -102 64 -171 hvcurveto
          -278 hlineto
          -11 -40 rlineto
          81 -2 23 -13 -40 vvcurveto
          -17 -4 -25 -9 -33 vhcurveto
          -118 -441 rlineto
          -82 -22 -39 -37 -64 -69 callgsubr
          332 hlineto
          11 45 rlineto
          -76 -38 20 40 17 8 38 13 47 hvcurveto
          118 438 rmoveto
          64 17 15 16 54 hhcurveto
          106 54 -41 -80 -114 -109 -81 -151 hvcurveto
          -49 hlineto
          endchar
        </CharString>
        <CharString name="Q">
          212 -260 92 39 52 67 62 676 52 hstem
          74 121 482 121 vstem
          513 780 rmoveto
          -235 -204 -222 -254 -185 107 -122 166 -7 hvcurveto
          -192 -81 rlineto
          -71 -30 -22 -21 -34 vvcurveto
          -31 19 -19 32 vhcurveto
          73 -1 97 73 84 72 -131 151 hhcurveto
          112 90 72 109 24 hvcurveto
          -33 15 rlineto
          -69 -20 -57 -35 -67 -107 -51 91 -112 hhcurveto
          -2 3 217 118 rlineto
          140 76 99 167 180 vvcurveto
          191 -111 122 -174 vhcurveto
          -52 vmoveto
          112 52 -74 -160 -253 -129 -189 -173 -117 -63 87 162 240 140 187 178 hvcurveto
          endchar
        </CharString>
        <CharString name="R">
          0 27 callgsubr
          hstem
          582 111 vstem
          -99 callgsubr
          endchar
        </CharString>
        <CharString name="Racute">
          0 27 callgsubr
          -45 235 hstemhm
          582 111 hintmask 11101000
          -99 callgsubr
          116 424 -76 callsubr
          hintmask 11011000
          -89 callsubr
        </CharString>
        <CharString name="Rcaron">
          0 27 callgsubr
          -45 235 hstemhm
          582 111 hintmask 11101000
          -99 callgsubr
          211 425 rmoveto
          hintmask 11011000
          -86 callsubr
        </CharString>
        <CharString name="Rcommaaccent">
          -12 callgsubr
          54 27 callgsubr
          hstem
          278 122 182 111 vstem
          -99 callgsubr
          12 -676 rmoveto
          -96 callsubr
        </CharString>
        <CharString name="Rdotbelow">
          -17 callgsubr
          106 27 callgsubr
          hstem
          275 124 183 111 vstem
          -99 callgsubr
          -18 -594 -100 callsubr
        </CharString>
        <CharString name="S">
          -24 -10 47 callsubr
          91 55 98 184 0 89 hintmask 10110100
          -92 callsubr
          hintmask 01111000
          -13 callgsubr
          rlineto
          hintmask 10110100
          -43 callsubr
          hintmask 10111000
          -77 callgsubr
          endchar
        </CharString>
        <CharString name="Sacute">
          -6 callgsubr
          hintmask 10101100
          -92 callsubr
          hintmask 01101100
          -13 callgsubr
          rlineto
          hintmask 10011100
          -43 callsubr
          -77 callgsubr
          -203 95 -76 callsubr
          -89 callsubr
        </CharString>
        <CharString name="Scaron">
          -6 callgsubr
          0 89 hintmask 10101010
          -92 callsubr
          hintmask 01101100
          -13 callgsubr
          rlineto
          hintmask 10101010
          -43 callsubr
          hintmask 10011100
          -77 callgsubr
          -100 96 rmoveto
          -86 callsubr
        </CharString>
        <CharString name="Schwa">
          22 -10 58 669 64 hstem
          16 125 366 121 vstem
          176 570 rmoveto
          92 64 81 55 70 hhcurveto
          75 41 -61 -111 -26 -1 -26 -5 -27 hvcurveto
          -264 -57 -221 -160 -134 vvcurveto
          -73 65 -52 92 216 239 292 265 148 -73 86 -128 -115 -102 -62 -119 -80 vhcurveto
          69 -552 rmoveto
          -34 -24 20 40 119 147 122 199 52 hvcurveto
          -181 -54 -124 -172 -110 hhcurveto
          endchar
        </CharString>
        <CharString name="Scircumflex">
          -6 callgsubr
          0 89 hintmask 10101010
          -92 callsubr
          hintmask 01101100
          -13 callgsubr
          rlineto
          hintmask 10101010
          -43 callsubr
          hintmask 10011100
          -77 callgsubr
          -179 205 -93 callsubr
        </CharString>
        <CharString name="Sdotbelow">
          -24 -17 callgsubr
          96 47 callsubr
          91 55 12 124 -38 184 0 89 hintmask 11011101
          -92 callsubr
          hintmask 10111010
          -13 callgsubr
          rlineto
          hintmask 11011101
          -43 callsubr
          hintmask 11011010
          -77 callgsubr
          hintmask 11011101
          -400 -923 -100 callsubr
        </CharString>
        <CharString name="T">
          158 0 34 callgsubr
          hintmask 10100000
          -16 callgsubr
          hintmask 11000000
          -57 callsubr
          hintmask 10100000
          -73 callgsubr
          endchar
        </CharString>
        <CharString name="Tbar">
          175 0 40 359 50 108 213 -42 42 hstemhm
          hintmask 11010000
          529 610 rmoveto
          96 25 26 22 66 hhcurveto
          hintmask 11100000
          -57 callsubr
          hintmask 11010000
          108 57 86 63 117 hhcurveto
          38 17 -16 -38 -16 -3 -20 -6 -24 hvcurveto
          -44 -165 rlineto
          -261 hlineto
          -13 -50 rlineto
          260 hlineto
          -64 -241 rlineto
          -104 -28 -38 -14 31 callgsubr
          348 hlineto
          12 40 rlineto
          -84 -31 15 43 18 8 22 8 30 hvcurveto
          61 231 rlineto
          272 hlineto
          13 50 rlineto
          -271 hlineto
          endchar
        </CharString>
        <CharString name="Tcaron">
          158 0 18 callgsubr
          -42 232 hstemhm
          hintmask 10100000
          -16 callgsubr
          hintmask 11000000
          -57 callsubr
          hintmask 10010000
          -73 callgsubr
          180 683 rmoveto
          -86 callsubr
        </CharString>
        <CharString name="Tdotbelow">
          158 -17 callgsubr
          106 34 callgsubr
          226 124 hintmask 11011000
          -16 callgsubr
          hintmask 11101000
          -57 callsubr
          hintmask 11011000
          -73 callgsubr
          -181 -336 -100 callsubr
        </CharString>
        <CharString name="Thorn">
          83 0 38 138 50 323 47 136 38 hstem
          561 127 vstem
          343 613 rmoveto
          105 30 20 14 119 hhcurveto
          11 38 rlineto
          -353 hlineto
          -11 -38 rlineto
          71 -2 20 -11 -37 vvcurveto
          -15 -3 -20 -8 -29 vhcurveto
          -125 -466 -25 -94 -21 -17 -93 -3 rlinecurve
          -11 -38 rlineto
          352 hlineto
          11 38 rlineto
          -91 -27 12 43 15 3 19 8 30 hvcurveto
          5 19 rlineto
          90 hlineto
          228 145 97 152 114 -81 57 -160 hvcurveto
          -109 hlineto
          -17 -64 rmoveto
          11 3 8 6 10 hhcurveto
          92 hlineto
          91 36 -29 -74 -134 -98 -86 -153 hvcurveto
          -71 hlineto
          endchar
        </CharString>
        <CharString name="U">
          -20 callgsubr
          hstem
          114 100 vstem
          -107 callsubr
          endchar
        </CharString>
        <CharString name="Uacute">
          -20 callgsubr
          -40 230 hstemhm
          114 100 hintmask 11010000
          -107 callsubr
          288 251 -76 callsubr
          hintmask 10110000
          -89 callsubr
        </CharString>
        <CharString name="Ubreve">
          -20 callgsubr
          75 69 -69 115 hstemhm
          114 100 hintmask 11011000
          -107 callsubr
          459 361 rmoveto
          hintmask 11101000
          13 callgsubr
          hintmask 11011000
          -74 callgsubr
        </CharString>
        <CharString name="Ucircumflex">
          -20 callgsubr
          -40 230 hstemhm
          114 100 hintmask 11010000
          -107 callsubr
          hintmask 10110000
          302 361 -93 callsubr
        </CharString>
        <CharString name="Udieresis">
          -20 callgsubr
          89 101 hstem
          114 100 vstem
          -107 callsubr
          202 311 -96 callgsubr
        </CharString>
        <CharString name="Udotbelow">
          186 -17 callgsubr
          96 56 684 40 hstem
          114 100 vstem
          -107 callsubr
          83 -767 -100 callsubr
        </CharString>
        <CharString name="Ugrave">
          -20 callgsubr
          -40 230 hstemhm
          114 100 hintmask 11010000
          -107 callsubr
          434 251 23 callgsubr
          hintmask 10110000
          -72 callgsubr
        </CharString>
        <CharString name="Uhungarumlaut">
          -20 callgsubr
          80 110 hstem
          114 100 vstem
          -107 callsubr
          218 251 rmoveto
          -65 callgsubr
          247 hmoveto
          -65 callgsubr
          endchar
        </CharString>
        <CharString name="Umacron">
          -20 callgsubr
          110 50 hstem
          114 100 vstem
          -107 callsubr
          471 281 -60 callsubr
        </CharString>
        <CharString name="Uogonek">
          186 36 callgsubr
          56 684 40 hstemhm
          114 100 -35 79 hintmask 11101000
          404 -59 callsubr
          36 37 46 57 34 hvcurveto
          15 hlineto
          172 114 138 264 57 hvcurveto
          43 200 rlineto
          120 26 19 18 65 hhcurveto
          12 40 rlineto
          -263 hlineto
          -12 -40 rlineto
          62 -3 40 -17 -40 vvcurveto
          -46 -39 -206 -41 -128 vhcurveto
          -140 -45 -70 -104 -132 hhcurveto
          hintmask 11110000
          -105 -56 68 106 28 4 32 9 34 hvcurveto
          65 251 rlineto
          145 37 16 20 95 hhcurveto
          11 40 rlineto
          -319 hlineto
          -13 -40 rlineto
          69 25 -14 -40 -19 -6 -31 -7 -27 hvcurveto
          -66 -246 rlineto
          -13 -49 -7 -43 -42 vvcurveto
          -124 60 -79 121 -20 vhcurveto
          hintmask 11101000
          -74 -37 -42 -52 40 callgsubr
          endchar
        </CharString>
        <CharString name="Uring">
          -20 callgsubr
          60 31 67 32 hstem
          114 100 vstem
          -107 callsubr
          275 279 -48 callgsubr
        </CharString>
        <CharString name="Utilde">
          -20 callgsubr
          27 callsubr
          114 100 hintmask 11010100
          -107 callsubr
          206 247 rmoveto
          29 9 11 11 22 hhcurveto
          hintmask 11100100
          -67 callsubr
          hintmask 11001100
          -48 -51 46 -60 -56 callsubr
        </CharString>
        <CharString name="V">
          130 23 callsubr
          hstem
          248 142 rmoveto
          -4 hlineto
          101 461 rlineto
          109 24 17 18 78 hhcurveto
          10 40 rlineto
          -296 hlineto
          -10 -40 rlineto
          73 20 -10 -39 -16 -4 -26 -8 -35 hvcurveto
          -139 -614 rlineto
          84 hlineto
          451 549 rlineto
          148 121 59 43 63 hhcurveto
          10 40 rlineto
          -259 hlineto
          -10 -40 rlineto
          46 23 -5 -20 -24 -38 -47 -74 -88 hvcurveto
          endchar
        </CharString>
        <CharString name="V.ss01">
          101 23 callsubr
          hstem
          214 99 vstem
          308 116 rmoveto
          -4 hlineto
          2 141 0 -5 7 351 rrcurveto
          109 2 11 18 78 hhcurveto
          2 40 rlineto
          -296 hlineto
          -2 -40 rlineto
          102 7 -19 -103 hvcurveto
          -67 -3 -321 -230 vvcurveto
          84 hlineto
          340 549 rlineto
          146 90 46 45 63 hhcurveto
          2 40 rlineto
          -258 hlineto
          -2 -40 rlineto
          54 25 -10 -29 -12 -4 -8 -78 -125 hvcurveto
          endchar
        </CharString>
        <CharString name="W">
          442 23 callsubr
          hstem
          -101 callgsubr
          endchar
        </CharString>
        <CharString name="W.ss01">
          406 23 callsubr
          hstem
          215 94 0 246 0 96 vstem
          655 142 rmoveto
          -4 hlineto
          154 1 153 1 154 vhcurveto
          109 1 12 18 78 hhcurveto
          2 40 rlineto
          -286 hlineto
          -2 -40 rlineto
          65 20 50 callgsubr
          -25 vlineto
          -244 -435 rlineto
          -4 hlineto
          153 1 153 1 153 vhcurveto
          108 1 14 19 56 hhcurveto
          2 40 rlineto
          -276 hlineto
          -2 -40 rlineto
          73 22 50 callgsubr
          -2 -205 -2 -204 -1 -205 rrcurveto
          84 hlineto
          261 477 rlineto
          -477 81 vlineto
          302 549 rlineto
          151 83 54 40 63 hhcurveto
          2 40 rlineto
          -259 hlineto
          -2 -40 rlineto
          42 27 -4 -19 -23 -21 -47 -50 -91 hvcurveto
          endchar
        </CharString>
        <CharString name="Wacute">
          442 23 callsubr
          -40 230 hstemhm
          hintmask 11000000
          -101 callgsubr
          -268 304 -76 callsubr
          hintmask 10100000
          -89 callsubr
        </CharString>
        <CharString name="Wcircumflex">
          442 23 callsubr
          -40 230 hstemhm
          hintmask 11000000
          -101 callgsubr
          hintmask 10100000
          -254 414 -93 callsubr
        </CharString>
        <CharString name="Wdieresis">
          442 23 callsubr
          89 101 hstem
          -101 callgsubr
          -354 364 -96 callgsubr
        </CharString>
        <CharString name="Wgrave">
          442 23 callsubr
          -40 230 hstemhm
          hintmask 11000000
          -101 callgsubr
          -122 304 23 callgsubr
          hintmask 10100000
          -72 callgsubr
        </CharString>
        <CharString name="X">
          159 -38 callsubr
          hstem
          454 422 rmoveto
          175 192 rlineto
          88 80 40 28 58 hhcurveto
          11 40 rlineto
          -258 hlineto
          -12 -40 rlineto
          39 19 -10 -20 -24 -27 -41 -61 -68 hvcurveto
          -86 -96 -49 108 rlineto
          -21 47 -10 31 23 vvcurveto
          34 21 16 46 vhcurveto
          11 40 rlineto
          -311 hlineto
          -11 -40 rlineto
          67 28 -21 -87 42 hvcurveto
          108 -227 -231 -266 -67 -77 -9 -5 -75 -7 rlinecurve
          -10 -40 rlineto
          289 hlineto
          9 40 rlineto
          -54 -24 11 25 29 34 54 79 87 hvcurveto
          83 92 81 -179 rlineto
          11 -25 7 -27 -17 vvcurveto
          -34 -27 -16 -57 vhcurveto
          -9 -40 rlineto
          330 hlineto
          9 40 rlineto
          -73 -32 27 100 -46 hvcurveto
          endchar
        </CharString>
        <CharString name="Y">
          67 -38 callsubr
          hstem
          -102 callsubr
          endchar
        </CharString>
        <CharString name="Yacute">
          67 -42 callsubr
          -102 callsubr
          32 682 -76 callsubr
          hintmask 10100000
          -89 callsubr
        </CharString>
        <CharString name="Ycircumflex">
          67 -42 callsubr
          -102 callsubr
          hintmask 10100000
          60 792 -93 callsubr
        </CharString>
        <CharString name="Ydieresis">
          67 -38 callsubr
          89 101 hstem
          -102 callsubr
          -38 742 -96 callgsubr
        </CharString>
        <CharString name="Ygrave">
          67 -42 callsubr
          -102 callsubr
          178 682 23 callgsubr
          hintmask 10100000
          -72 callgsubr
        </CharString>
        <CharString name="Ytilde">
          67 32 callgsubr
          -102 callsubr
          -50 678 rmoveto
          29 9 11 11 22 hhcurveto
          hintmask 11100000
          -67 callsubr
          hintmask 11001000
          -48 -51 46 -60 -56 callsubr
        </CharString>
        <CharString name="Z">
          42 callgsubr
          hstem
          696 751 -94 callgsubr
          endchar
        </CharString>
        <CharString name="Zacute">
          42 callgsubr
          190 -20 hstem
          696 751 -94 callgsubr
          255 800 -76 callsubr
          -89 callsubr
        </CharString>
        <CharString name="Zcaron">
          42 callgsubr
          -48 238 hstemhm
          hintmask 11000000
          696 751 -94 callgsubr
          350 801 rmoveto
          hintmask 10100000
          -86 callsubr
        </CharString>
        <CharString name="Zdotaccent">
          42 callgsubr
          82 107 hstem
          416 107 vstem
          696 751 -94 callgsubr
          258 854 -61 callsubr
        </CharString>
        <CharString name="Zdotbelow">
          50 -17 callgsubr
          106 50 672 48 hstem
          167 124 vstem
          696 751 -94 callgsubr
          9 -218 -100 callsubr
        </CharString>
        <CharString name="a">
          -34 callgsubr
          21 callgsubr
          hintmask 11011000
          -106 callsubr
          hintmask 10111000
          -19 callsubr
          endchar
        </CharString>
        <CharString name="aacute">
          -34 callgsubr
          293 -20 21 callgsubr
          hintmask 11011100
          -106 callsubr
          hintmask 10111100
          -19 callsubr
          -108 121 -32 callsubr
          endchar
        </CharString>
        <CharString name="abreve">
          -34 callgsubr
          136 31 callsubr
          10 95 140 40 15 87 hintmask 11010111
          -106 callsubr
          hintmask 10101111
          -19 callsubr
          53 246 rmoveto
          hintmask 11010111
          15 callgsubr
          hintmask 11001111
          -74 callsubr
        </CharString>
        <CharString name="acircumflex">
          -34 callgsubr
          270 -20 21 callgsubr
          hintmask 11011100
          -106 callsubr
          hintmask 10111100
          -19 callsubr
          -93 250 -89 callgsubr
        </CharString>
        <CharString name="acute">
          -347 672 -21 152 -20 hstem
          67 651 -32 callsubr
          endchar
        </CharString>
        <CharString name="acute.cap">
          -327 871 -21 110 -20 hstem
          65 850 -76 callsubr
          -89 callsubr
        </CharString>
        <CharString name="adieresis">
          -34 callgsubr
          141 116 21 callgsubr
          hintmask 11011100
          -106 callsubr
          hintmask 10111100
          -19 callsubr
          -206 179 -97 callgsubr
        </CharString>
        <CharString name="ae">
          134 -10 55 -55 71 427 52 10 -20 hstemhm
          10 95 268 39 237 94 hintmask 10101110
          -23 callgsubr
          hintmask 10011110
          30 74 rlineto
          -83 hlineto
          -28 -76 rlineto
          hintmask 10101110
          -26 callsubr
          hintmask 01101110
          -23 callsubr
          endchar
        </CharString>
        <CharString name="aeacute">
          134 -10 55 -55 71 427 52 10 -20 273 -20 hstemhm
          10 95 268 39 237 94 hintmask 10101111
          -23 callgsubr
          hintmask 10011111
          30 74 rlineto
          -83 hlineto
          -28 -76 rlineto
          hintmask 10101111
          -26 callsubr
          hintmask 01101111
          -23 callsubr
          -152 158 -32 callsubr
          endchar
        </CharString>
        <CharString name="agrave">
          -34 callgsubr
          293 -20 21 callgsubr
          hintmask 11011100
          -106 callsubr
          hintmask 10111100
          -19 callsubr
          14 121 -82 callsubr
        </CharString>
        <CharString name="amacron">
          -34 callgsubr
          192 50 21 callgsubr
          hintmask 11011100
          -106 callsubr
          hintmask 10111100
          -19 callsubr
          63 172 -60 callsubr
        </CharString>
        <CharString name="ampersand">
          276 -10 105 161 53 -53 148 46 97 -77 77 88 123 -70 92 -76 54 hstemhm
          59 87 65 60 145 49 -49 108 16 90 43 237 -196 60 73 63 hintmask 1101001011101011
          388 780 rmoveto
          -104 -73 -68 -98 -32 7 -40 10 -22 hvcurveto
          -104 -26 -65 -89 -116 vvcurveto
          -170 151 -129 199 204 161 136 171 67 -24 61 -35 21 vhcurveto
          2 4 rlineto
          hintmask 1101010011101100
          113 3 80 68 93 vvcurveto
          83 -61 61 -83 -57 -36 -28 -44 -32 19 -19 32 vhcurveto
          hintmask 1011000111101011
          66 -41 69 46 hhcurveto
          27 25 -31 -34 -56 -52 -36 -80 hvcurveto
          -105 hlineto
          -114 -80 -67 -96 -74 47 -54 64 57 46 39 47 34 -23 28 -28 -23 -16 -17 -23 hvcurveto
          -9 2 -13 -9 vvcurveto
          hintmask 1100101011101011
          -16 -8 -8 -15 -30 -24 31 40 54 44 36 65 79 61 -65 -84 -122 -127 -104 -150 -162 -129 109 138 69 35 52 46 vhcurveto
          49 7 -57 55 hhcurveto
          30 18 17 29 31 -16 13 -65 21 hvcurveto
          -22 7 -12 22 33 vvcurveto
          64 44 45 61 50 43 -31 -50 22 vhcurveto
          hintmask 1101001011011100
          20 4 13 24 32 vvcurveto
          67 -55 46 -81 vhcurveto
          endchar
        </CharString>
        <CharString name="aogonek">
          -52 36 callgsubr
          71 427 52 -10 -20 hstemhm
          10 95 79 79 37 87 hintmask 11011110
          409 -59 callsubr
          36 38 46 56 35 hvcurveto
          58 5 65 56 52 93 -26 21 rcurveline
          -61 -44 -37 -43 -19 hhcurveto
          -12 -7 10 19 44 36 141 38 101 hvcurveto
          -19 callsubr
          -21 -56 rlineto
          hintmask 11101110
          46 -17 -27 20 -44 hhcurveto
          -144 -172 -221 -184 -90 41 -55 67 66 76 55 74 39 hvcurveto
          4 -1 rlineto
          -2 -26 -1 -15 -12 vvcurveto
          -30 5 -20 11 -12 vhcurveto
          -84 -37 -48 -56 -59 -54 callsubr
          -106 640 rmoveto
          25 16 -21 -35 -129 -119 -242 -93 -34 -22 31 48 138 125 210 102 hvcurveto
          endchar
        </CharString>
        <CharString name="apostrophe">
          -428 632 -21 219 -20 hstem
          82 611 -2 callgsubr
        </CharString>
        <CharString name="aring">
          -34 callgsubr
          146 40 92 42 hstemhm
          10 95 175 42 -22 87 31 43 hintmask 1101110110000000
          -106 callsubr
          hintmask 1011111010000000
          -19 callsubr
          -155 188 -65 callsubr
          endchar
        </CharString>
        <CharString name="aringacute">
          -34 callgsubr
          74 40 92 42 32 -20 172 -20 35 callgsubr
          43 hintmask 1101111110000000
          -106 callsubr
          hintmask 1011111110000000
          -19 callsubr
          -134 116 -65 callsubr
          -27 74 -32 callsubr
          endchar
        </CharString>
        <CharString name="asciicircum">
          -141 251 -21 179 -20 hstem
          225 409 rmoveto
          -165 -179 rlineto
          44 hlineto
          150 118 88 -118 rlineto
          45 hlineto
          -72 179 rlineto
          endchar
        </CharString>
        <CharString name="asciitilde">
          -89 241 76 -28 74 hstemhm
          hintmask 01000000
          104 249 rmoveto
          29 9 12 11 21 hhcurveto
          21 22 -3 -20 64 hvcurveto
          hintmask 10000000
          -18 57 25 -7 24 hhcurveto
          24 20 11 25 21 hvcurveto
          17 25 12 30 3 27 rrcurveto
          -33 hlineto
          -30 -9 -12 -12 -22 hhcurveto
          -21 -25 6 16 -48 hvcurveto
          hintmask 01000000
          18 -54 -32 6 -26 hhcurveto
          -49 -44 -48 -66 -11 hvcurveto
          endchar
        </CharString>
        <CharString name="asterisk">
          -90 360 210 -180 250 -149 79 -79 92 -92 249 -191 -20 31 80 -80 210 hstemhm
          222 91 26 92 hintmask 0100000011000000
          332 536 rmoveto
          26 -27 24 -42 5 -21 rrcurveto
          -22 5 10 -34 36 hhcurveto
          24 22 15 30 52 -67 -6 -61 73 hvcurveto
          hintmask 0000011011000000
          4 24 23 2 16 36 18 -11 21 hhcurveto
          32 14 25 19 24 -21 23 -23 -30 -21 -38 -18 -95 hvcurveto
          29 77 52 29 35 vvcurveto
          hintmask 0000010111000000
          21 -19 24 -28 -26 -19 -21 -36 -38 -1 -34 -16 -46 vhcurveto
          hintmask 0000100011000000
          79 -66 14 66 -51 hhcurveto
          -23 -24 -13 -34 -49 50 19 76 -87 hvcurveto
          hintmask 0010000011000000
          -4 -22 -20 -2 -14 hhcurveto
          hintmask 0001000011000000
          -35 -23 13 -23 hhcurveto
          -31 -18 -22 -23 -24 20 -23 25 31 6 36 19 109 hvcurveto
          -23 -58 -10 -14 -19 -19 rrcurveto
          -22 -22 -7 -8 -17 vvcurveto
          hintmask 1000000011000000
          -24 14 -24 32 30 14 22 39 1 vhcurveto
          1 38 1 27 17 50 rrcurveto
          endchar
        </CharString>
        <CharString name="at">
          408 -134 48 163 50 371 42 -10 -20 225 45 hstemhm
          66 91 141 98 223 91 -62 62 225 45 hintmask 1110111101000000
          684 441 rmoveto
          -3 1 rlineto
          67 -19 -36 31 -62 hhcurveto
          -133 -133 -146 -146 -99 64 -72 86 61 66 46 69 41 hvcurveto
          3 -1 rlineto
          -76 6 36 -38 65 hhcurveto
          135 119 162 183 213 -162 145 -239 -288 -225 -210 -270 -254 201 -180 284 125 106 36 81 117 hvcurveto
          -21 31 rlineto
          -67 -97 -105 -33 -112 hhcurveto
          -243 -164 156 229 246 187 190 241 202 148 -134 -181 -143 -93 -150 -88 -27 -17 15 25 20 11 53 15 53 hvcurveto
          hintmask 1101111101000000
          67 237 rlineto
          -96 hlineto
          hintmask 1110111011000000
          -135 -32 rmoveto
          48 28 -39 -65 -127 -99 -145 -86 -44 -23 36 69 135 88 136 88 hvcurveto
          endchar
        </CharString>
        <CharString name="atilde">
          -34 callgsubr
          142 76 -28 74 -4 -20 21 callgsubr
          hintmask 11010111
          -106 callsubr
          hintmask 10101011
          -19 callsubr
          -202 130 -49 callgsubr
          hintmask 11010111
          -90 callsubr
          hintmask 11001011
          17 -39 -27 7 -20 -56 callsubr
        </CharString>
        <CharString name="b">
          -88 -10 51 445 53 251 34 5 -20 hstemhm
          28 95 277 99 hintmask 11011100
          331 829 rmoveto
          -192 -9 rlineto
          hintmask 11101100
          -8 -30 rlineto
          52 24 -11 -24 -12 -8 -28 -7 -24 hvcurveto
          -121 -390 -11 callsubr
          4 callsubr
          hintmask 11011100
          -30 -403 -44 callsubr
          endchar
        </CharString>
        <CharString name="backslash">
          -159 44 callgsubr
          287 hmoveto
          64 hlineto
          -146 770 rlineto
          -55 hlineto
          endchar
        </CharString>
        <CharString name="bar">
          -272 -229 -21 1070 -20 hstem
          127 80 vstem
          127 820 rmoveto
          -1070 80 1070 vlineto
          endchar
        </CharString>
        <CharString name="braceleft">
          -286 -129 -21 980 -20 hstemhm
          25 91 -18 92 hintmask 11010000
          179 198 rmoveto
          7 26 4 23 19 vvcurveto
          40 -18 24 -52 10 vhcurveto
          1 5 90 18 28 56 22 82 rlinecurve
          48 179 19 71 32 40 66 16 rlinecurve
          6 23 rlineto
          -143 -40 -44 -127 -35 hvcurveto
          -48 -175 -21 -76 -22 -38 -80 -15 rlinecurve
          -7 -25 rlineto
          46 -4 16 -33 -39 vvcurveto
          -17 -3 -19 -5 -18 vhcurveto
          -53 -196 rlineto
          hintmask 11100000
          -8 -29 -4 -23 -20 vvcurveto
          -63 43 -19 103 vhcurveto
          6 22 rlineto
          -44 13 -17 22 35 vvcurveto
          16 4 20 6 22 vhcurveto
          endchar
        </CharString>
        <CharString name="braceright">
          -286 -129 -21 980 -20 hstemhm
          163 87 -17 91 hintmask 11100000
          41 hmoveto
          -19 -72 -30 -37 -71 -19 -6 -22 rcurveline
          133 51 33 121 33 hvcurveto
          53 196 16 60 38 64 70 6 rlinecurve
          7 25 rlineto
          -48 10 -18 21 36 vvcurveto
          17 4 20 7 25 vhcurveto
          48 175 rlineto
          hintmask 11010000
          9 35 6 28 24 vvcurveto
          61 -38 23 -103 vhcurveto
          -6 -23 rlineto
          39 -11 17 -23 -36 vvcurveto
          -17 -3 -18 -6 -22 vhcurveto
          -48 -179 rlineto
          hintmask 11100000
          -8 -29 -5 -26 -22 vvcurveto
          -40 17 -28 52 -11 vhcurveto
          -1 -5 -85 -14 -31 -48 -21 -80 rlinecurve
          endchar
        </CharString>
        <CharString name="bracketleft">
          -253 -150 47 876 47 hstem
          470 773 rmoveto
          13 47 rlineto
          -241 hlineto
          -262 -970 rlineto
          240 hlineto
          13 47 rlineto
          -151 hlineto
          237 876 rlineto
          endchar
        </CharString>
        <CharString name="bracketright">
          -253 -150 47 876 47 hstem
          -89 -103 rmoveto
          -13 -47 rlineto
          240 hlineto
          263 970 rlineto
          -241 hlineto
          -13 -47 rlineto
          151 hlineto
          -237 -876 rlineto
          endchar
        </CharString>
        <CharString name="breve">
          -306 646 31 callsubr
          33 40 hintmask 01100000
          276 776 rmoveto
          hintmask 10100000
          15 callgsubr
          hintmask 01100000
          -74 callsubr
        </CharString>
        <CharString name="breve.cap">
          -306 845 69 -69 115 hstemhm
          hintmask 01000000
          274 960 rmoveto
          hintmask 10000000
          13 callgsubr
          hintmask 01000000
          -74 callgsubr
        </CharString>
        <CharString name="brokenbar">
          -284 -159 -21 930 -20 hstem
          122 80 vstem
          122 750 rmoveto
          -385 80 385 vlineto
          -80 -545 rmoveto
          -385 80 385 vlineto
          endchar
        </CharString>
        <CharString name="bullet">
          -137 237 -21 305 -20 hstem
          250 216 rmoveto
          87 70 68 85 85 -70 67 -82 -85 -71 -67 -85 -85 71 -68 80 hvcurveto
          endchar
        </CharString>
        <CharString name="c">
          -5 callgsubr
          hstemhm
          14 105 215 96 hintmask 10111000
          338 -87 callsubr
          hintmask 11011000
          -28 22 -22 30 30 22 23 33 52 -47 39 -63 -141 -165 -209 -178 -98 57 -65 86 84 77 61 110 55 vhcurveto
          endchar
        </CharString>
        <CharString name="c_t">
          172 -10 59 -59 77 326 147 -93 46 155 50 -19 51 39 -20 hstemhm
          14 105 174 50 -9 96 37 96 hintmask 1001101101100000
          338 -87 callsubr
          hintmask 1010101101100000
          -28 22 -22 30 30 22 23 33 31 -18 27 -27 16 vhcurveto
          hintmask 1010011110100000
          -29 20 -13 25 34 vvcurveto
          47 29 30 45 vhcurveto
          hintmask 0101101110100000
          -53 callgsubr
          hintmask 1010011110100000
          -1 callgsubr
          -141 -165 -209 -178 -98 57 -65 86 84 77 61 110 55 hvcurveto
          endchar
        </CharString>
        <CharString name="cacute">
          -5 callgsubr
          263 -75 callgsubr
          -69 490 -32 callsubr
          endchar
        </CharString>
        <CharString name="caron">
          -254 672 -21 129 -20 hstem
          211 651 -78 callgsubr
        </CharString>
        <CharString name="caron.alt">
          -460 605 -21 96 100 hstem
          30 121 vstem
          20 584 -56 callgsubr
        </CharString>
        <CharString name="caron.cap">
          -254 872 -21 109 -20 hstem
          224 851 rmoveto
          -86 callsubr
        </CharString>
        <CharString name="ccaron">
          -5 callgsubr
          240 -75 callgsubr
          1 490 -78 callgsubr
        </CharString>
        <CharString name="ccedilla">
          -181 -14 callsubr
          62 59 344 147 -47 47 hstemhm
          14 105 62 85 68 96 hintmask 1011011110000000
          338 -87 callsubr
          hintmask 1011101110000000
          -28 22 -22 30 30 22 23 33 52 -47 39 -63 -141 -165 -209 -178 -95 53 -63 81 -5 vhcurveto
          -70 -102 -50 callsubr
          hintmask 0111101110000000
          -68 callgsubr
          44 69 65 19 58 57 44 88 rlinecurve
          endchar
        </CharString>
        <CharString name="ccircumflex">
          -5 callgsubr
          240 -75 callgsubr
          -54 619 -89 callgsubr
        </CharString>
        <CharString name="cdotaccent">
          -5 callgsubr
          141 124 hstemhm
          14 105 166 124 -75 96 hintmask 10111010
          338 -87 callsubr
          hintmask 11011010
          -28 22 -22 30 30 22 23 33 52 -47 39 -63 -141 -165 -209 -178 -98 57 -65 86 84 77 61 110 55 vhcurveto
          hintmask 11011100
          -88 582 -100 callsubr
        </CharString>
        <CharString name="cedilla">
          -390 -14 callsubr
          84 -20 hstemhm
          155 85 hintmask 10111000
          190 12 rmoveto
          -53 hlineto
          -85 -124 -50 callsubr
          hintmask 01111000
          -68 callgsubr
          endchar
        </CharString>
        <CharString name="cent">
          -154 -126 -21 138 58 649 -20 hstem
          22 105 215 96 vstem
          346 -87 callsubr
          -28 22 -22 30 30 22 23 33 46 -38 36 -52 8 vhcurveto
          52 159 rlineto
          -52 hlineto
          -54 -162 rlineto
          -132 -29 -140 -190 -164 vvcurveto
          -82 39 -58 63 -17 vhcurveto
          -45 -143 rlineto
          52 hlineto
          44 138 80 4 73 60 53 106 rlinecurve
          endchar
        </CharString>
        <CharString name="circumflex">
          -254 672 -21 129 -20 hstem
          156 780 -89 callgsubr
        </CharString>
        <CharString name="circumflex.cap">
          -254 872 -21 109 -20 hstem
          143 960 -93 callsubr
        </CharString>
        <CharString name="colon">
          -318 -10 140 45 callsubr
          hintmask 11100000
          84 -10 20 callgsubr
          82 310 rmoveto
          hintmask 11010000
          -55 callsubr
          endchar
        </CharString>
        <CharString name="comma">
          -357 -154 -21 175 130 hstem
          -1 140 vstem
          71 3 51 callsubr
          2 callsubr
        </CharString>
        <CharString name="commaaccent">
          -460 -239 -21 96 100 hstem
          20 122 vstem
          47 -260 rmoveto
          -96 callsubr
        </CharString>
        <CharString name="copyright">
          296 -10 48 119 41 371 40 123 48 hstem
          91 48 121 87 470 48 vstem
          -46 callsubr
          -199 -81 rmoveto
          -70 -19 -43 -37 -65 hhcurveto
          -93 -51 64 117 119 52 71 90 65 50 -37 -60 16 hvcurveto
          26 hlineto
          -5 131 rlineto
          -21 hlineto
          -10 -35 rlineto
          29 -46 -36 12 -44 hhcurveto
          -133 -91 -95 -139 -132 85 -86 133 99 55 60 88 19 hvcurveto
          endchar
        </CharString>
        <CharString name="currency">
          75 43 -21 24 50 335 50 25 -20 hstem
          118 50 335 50 vstem
          94 57 rmoveto
          34 -34 71 71 rlineto
          -31 37 46 -17 53 hhcurveto
          52 46 16 31 38 hvcurveto
          71 -71 35 35 -71 71 rlineto
          30 37 17 46 52 vvcurveto
          52 -17 46 -31 38 vhcurveto
          72 72 -35 35 -72 -72 rlineto
          30 -38 -45 17 -52 hhcurveto
          -52 -46 -17 -30 -37 hvcurveto
          -72 72 -35 -35 72 -72 rlineto
          -31 -38 -16 -46 -52 vvcurveto
          -52 17 -46 30 -37 vhcurveto
          3 135 rmoveto
          92 75 76 92 92 76 -76 -92 -92 -76 -75 -92 -92 -75 75 92 vhcurveto
          endchar
        </CharString>
        <CharString name="d">
          -24 -10 65 432 53 250 1 callgsubr
          hintmask 11111000
          -98 callsubr
          hintmask 11110100
          -63 callsubr
          endchar
        </CharString>
        <CharString name="dagger">
          -62 -239 -21 689 124 227 -20 hstemhm
          80 245 -2 131 hintmask 11110000
          128 429 rmoveto
          33 callsubr
          -108 -40 -246 -45 -167 vhcurveto
          40 hlineto
          45 167 92 246 58 108 rrcurveto
          -8 callsubr
          hintmask 11101000
          -8 callgsubr
          hintmask 11110000
          -39 -42 -36 -42 -27 19 -19 29 hvcurveto
          endchar
        </CharString>
        <CharString name="daggerdbl">
          -27 -239 -21 227 124 338 124 227 -20 hstemhm
          100 131 -131 245 -115 244 -131 131 hintmask 11110100
          363 261 rmoveto
          -8 callsubr
          hintmask 11111001
          -8 callgsubr
          -39 -42 -36 -42 -27 19 -19 29 33 callsubr
          hintmask 11110010
          10 -29 7 -29 -33 vvcurveto
          -33 -6 -37 -13 -49 vhcurveto
          8 -88 -20 32 -46 hhcurveto
          -40 -40 -37 -43 -26 19 -18 28 45 37 33 8 93 hvcurveto
          hintmask 11111001
          -38 -129 -61 -31 -64 vvcurveto
          -26 19 -18 29 50 33 46 51 vhcurveto
          21 -3 21 30 vvcurveto
          25 2 31 10 43 vhcurveto
          -9 88 18 -32 46 hhcurveto
          39 42 36 42 27 -19 19 -29 -46 -36 -32 -8 -92 hvcurveto
          27 99 33 55 52 56 rrcurveto
          endchar
        </CharString>
        <CharString name="dcaron">
          -24 -10 65 432 53 140 100 10 1 callgsubr
          219 121 hintmask 11111101
          -98 callsubr
          hintmask 11111011
          -63 callsubr
          291 97 -56 callgsubr
        </CharString>
        <CharString name="dcroat">
          -24 -10 65 432 53 99 53 98 1 callgsubr
          hintmask 11111100
          410 486 rmoveto
          37 -23 -17 17 -46 hhcurveto
          -138 -175 -220 -174 -93 53 -63 68 65 80 49 88 50 hvcurveto
          8 -2 rlineto
          -4 -15 -3 -17 -14 vvcurveto
          -57 27 -32 48 68 53 61 131 45 vhcurveto
          -38 9 rlineto
          -80 -26 -38 -54 -29 hhcurveto
          -14 -11 11 30 43 15 75 57 209 hvcurveto
          58 214 rlineto
          76 hlineto
          15 53 rlineto
          -76 hlineto
          38 138 rlineto
          -193 hlineto
          -11 -40 rlineto
          69 23 -7 -20 -11 -6 -24 -10 -36 hvcurveto
          -113 hlineto
          -15 -53 rlineto
          113 hlineto
          -122 -152 rmoveto
          hintmask 11111010
          -63 callsubr
          endchar
        </CharString>
        <CharString name="ddotbelow">
          -24 -17 callgsubr
          96 65 432 53 250 40 hstemhm
          11 97 37 124 59 85 -32 32 hintmask 11111110
          -98 callsubr
          hintmask 11111101
          -63 callsubr
          -186 -655 -100 callsubr
        </CharString>
        <CharString name="degree">
          -280 540 30 179 31 hstem
          139 30 179 31 vstem
          139 660 rmoveto
          -66 54 -54 66 66 54 54 66 66 -54 54 -66 -66 -54 -54 -66 vhcurveto
          30 hmoveto
          49 41 40 49 49 40 -40 -49 -49 -40 -41 -49 -49 -41 41 49 vhcurveto
          endchar
        </CharString>
        <CharString name="dieresis">
          -299 651 116 hstem
          19 709 -97 callgsubr
        </CharString>
        <CharString name="dieresis.cap">
          -299 859 101 hstem
          20 910 -96 callgsubr
        </CharString>
        <CharString name="divide">
          -20 97 131 85 50 84 131 hstem
          243 131 vstem
          243 162 rmoveto
          -28 callgsubr
          350 vmoveto
          -28 callgsubr
          297 -149 33 callgsubr
        </CharString>
        <CharString name="dollar">
          -38 -125 -21 136 53 501 -20 341 -20 hstemhm
          22 85 25 98 184 89 -23 81 hintmask 11111110
          141 -146 rmoveto
          57 hlineto
          33 136 rlineto
          4 hlineto
          146 122 111 132 115 -84 59 -74 54 hvcurveto
          64 265 rlineto
          hintmask 11111101
          46 -9 25 -27 -40 vvcurveto
          -40 -24 -36 -31 -9 vhcurveto
          -15 8 11 -6 22 hhcurveto
          56 39 39 58 69 -56 52 -84 14 hvcurveto
          22 89 rlineto
          -57 hlineto
          -21 -85 rlineto
          -132 -4 -101 -89 -113 vvcurveto
          -92 66 -56 69 -52 vhcurveto
          -79 -325 rlineto
          -51 15 -30 37 53 vvcurveto
          46 24 40 37 15 vhcurveto
          15 -12 -17 9 -20 hhcurveto
          -51 -46 -56 -61 -77 66 -67 87 -21 hvcurveto
          hintmask 11111110
          239 188 rmoveto
          -79 -73 -60 -97 -3 vhcurveto
          71 294 rlineto
          54 -43 45 -45 -64 vvcurveto
          -184 428 rmoveto
          63 49 44 73 7 vhcurveto
          -55 -229 rlineto
          -39 33 -28 34 48 vvcurveto
          endchar
        </CharString>
        <CharString name="dotaccent">
          -458 681 124 hstem
          20 124 vstem
          20 743 -100 callsubr
        </CharString>
        <CharString name="dotaccent.cap">
          -457 852 107 hstem
          30 107 vstem
          30 904 -61 callsubr
        </CharString>
        <CharString name="dotbelow">
          -458 -17 callgsubr
          hstem
          20 124 vstem
          20 -168 -100 callsubr
        </CharString>
        <CharString name="dotlessi">
          -20 callsubr
          hstem
          49 100 8 113 vstem
          -102 callgsubr
          endchar
        </CharString>
        <CharString name="dotlessj">
          -323 -37 callsubr
          135 579 86 hstemhm
          143 113 hintmask 10110000
          11 -113 rmoveto
          -52 -13 -26 -35 -32 hhcurveto
          hintmask 01110000
          -98 callgsubr
          endchar
        </CharString>
        <CharString name="e">
          -26 callgsubr
          hstem
          14 98 237 94 vstem
          -104 callgsubr
          endchar
        </CharString>
        <CharString name="eacute">
          -26 callgsubr
          263 -20 hstem
          14 98 237 94 vstem
          -104 callgsubr
          3 158 -32 callsubr
          endchar
        </CharString>
        <CharString name="ebreve">
          -26 callgsubr
          106 31 callsubr
          14 98 123 40 74 94 hintmask 11011110
          -104 callgsubr
          164 283 rmoveto
          hintmask 11101110
          15 callgsubr
          hintmask 11011110
          -74 callsubr
        </CharString>
        <CharString name="ecaron">
          -26 callgsubr
          240 -20 hstem
          14 98 237 94 vstem
          -104 callgsubr
          73 158 -78 callgsubr
        </CharString>
        <CharString name="ecircumflex">
          -26 callgsubr
          240 -20 hstem
          14 98 237 94 vstem
          -104 callgsubr
          18 287 -89 callgsubr
        </CharString>
        <CharString name="edieresis">
          -26 callgsubr
          111 116 hstem
          14 98 237 94 vstem
          -104 callgsubr
          -95 216 -97 callgsubr
        </CharString>
        <CharString name="edotaccent">
          -26 callgsubr
          141 124 hstemhm
          14 98 186 124 -73 94 hintmask 11110100
          -104 callgsubr
          hintmask 11111000
          -16 250 -100 callsubr
        </CharString>
        <CharString name="edotbelow">
          -166 -17 callgsubr
          96 55 448 47 hstemhm
          14 98 -55 124 168 94 hintmask 11110100
          -104 callgsubr
          hintmask 11101100
          -257 -661 -100 callsubr
        </CharString>
        <CharString name="egrave">
          -26 callgsubr
          263 -20 hstem
          14 98 237 94 vstem
          -104 callgsubr
          125 158 -82 callsubr
        </CharString>
        <CharString name="eight">
          17 -10 53 685 52 hstemhm
          43 101 2 104 189 104 -41 95 hintmask 11110100
          416 429 rmoveto
          102 19 79 82 89 vvcurveto
          92 -89 69 -116 -132 -114 -91 -112 -65 38 -62 69 -46 vhcurveto
          -141 -40 -69 -73 -109 vvcurveto
          -120 84 -72 139 vhcurveto
          hintmask 11111000
          161 116 97 135 81 -38 71 -89 55 hvcurveto
          -74 -80 rmoveto
          64 -44 33 -48 -65 vvcurveto
          -87 -69 -62 -98 -84 -44 46 86 95 48 69 98 44 vhcurveto
          47 93 rmoveto
          -58 38 -29 52 45 vvcurveto
          69 59 48 75 vhcurveto
          hintmask 11110100
          75 43 -48 -65 -69 -44 -53 -80 -43 hvcurveto
          endchar
        </CharString>
        <CharString name="eightinferior">
          -327 -10 26 264 26 hstemhm
          -20 6 callsubr
          hintmask 11010100
          139 166 -57 callgsubr
          hintmask 11101000
          -84 callsubr
          hintmask 11010100
          -55 callgsubr
          endchar
        </CharString>
        <CharString name="eightsuperior">
          -326 464 26 264 26 hstemhm
          107 6 callsubr
          hintmask 11010100
          266 640 -57 callgsubr
          hintmask 11101000
          -56 -16 -28 -30 -43 vvcurveto
          -48 36 -29 58 68 48 39 54 32 -15 29 -36 22 vhcurveto
          -34 -32 rmoveto
          26 -16 13 -21 -26 vvcurveto
          -32 -28 -23 -39 -34 -17 19 34 36 19 26 39 16 vhcurveto
          19 37 rmoveto
          hintmask 11010100
          -55 callgsubr
          endchar
        </CharString>
        <CharString name="ellipsis">
          100 -10 140 hstem
          -1 140 90 140 90 140 cntrmask 01110000
          68 -10 20 callgsubr
          230 hmoveto
          -55 callsubr
          230 hmoveto
          -55 callsubr
          endchar
        </CharString>
        <CharString name="emacron">
          -26 callgsubr
          162 50 hstem
          14 98 237 94 vstem
          -104 callgsubr
          174 209 -60 callsubr
        </CharString>
        <CharString name="emdash">
          492 248 83 hstem
          1018 248 rmoveto
          23 83 rlineto
          -958 hlineto
          -23 -83 rlineto
          endchar
        </CharString>
        <CharString name="endash">
          104 248 83 hstem
          630 248 rmoveto
          23 83 rlineto
          -570 hlineto
          -23 -83 rlineto
          endchar
        </CharString>
        <CharString name="eng">
          -32 -37 callsubr
          135 146 -21 488 52 53 callsubr
          198 96 hintmask 10111100
          299 -113 rmoveto
          -54 -15 -26 -33 -28 hhcurveto
          hintmask 01111100
          -42 14 75 -56 hhcurveto
          -30 -19 -22 -34 -46 40 -33 54 88 97 98 128 38 hvcurveto
          117 393 17 69 33 vvcurveto
          51 -33 28 -58 -81 -69 -55 -118 -67 vhcurveto
          -3 3 rlineto
          12 27 5 28 35 vvcurveto
          58 -16 22 -43 -74 -57 -65 -136 -47 vhcurveto
          30 -15 rlineto
          81 26 54 80 30 hhcurveto
          11 6 -10 -16 -27 -15 -55 -48 -148 hvcurveto
          -74 -229 rlineto
          88 hlineto
          74 200 rlineto
          144 53 110 144 62 hhcurveto
          17 11 -12 -19 -17 -9 -34 -144 -519 hvcurveto
          endchar
        </CharString>
        <CharString name="eogonek">
          -166 36 callgsubr
          55 448 47 hstemhm
          -14 79 -51 98 237 94 hintmask 11110100
          211 -59 callsubr
          36 37 46 56 34 hvcurveto
          83 1 73 48 57 94 -32 21 rcurveline
          -68 -45 -56 -41 -49 hhcurveto
          hintmask 11101100
          -50 -27 38 71 18 1 18 3 19 hvcurveto
          178 40 149 111 93 vvcurveto
          51 -45 36 -64 -152 -168 -203 -184 -82 33 -55 59 -18 vhcurveto
          hintmask 11110100
          -76 -37 -44 -54 40 callgsubr
          74 645 rmoveto
          23 12 -14 -28 -80 -95 -82 -128 -35 hvcurveto
          122 34 84 117 70 hhcurveto
          endchar
        </CharString>
        <CharString name="equal">
          15 252 50 120 50 hstem
          538 302 51 callgsubr
          64 220 51 callgsubr
          endchar
        </CharString>
        <CharString name="eth">
          -41 -10 45 414 49 289 -20 hstemhm
          21 120 258 146 -107 107 hintmask 11111000
          301 449 rmoveto
          63 35 -44 -75 -103 -60 -192 -123 -49 -26 42 75 108 54 189 106 hvcurveto
          -76 297 rmoveto
          62 -24 34 -19 24 -23 -139 -71 rcurveline
          19 -38 149 75 rlineto
          hintmask 11110100
          44 -55 19 -71 1 -106 -4 -2 rcurveline
          56 -14 -46 30 -71 hhcurveto
          -141 -141 -149 -169 -112 72 -78 111 175 166 194 246 104 -32 87 -70 60 hvcurveto
          134 68 -20 38 -149 -75 -40 28 -58 22 -58 18 rlinecurve
          endchar
        </CharString>
        <CharString name="etilde">
          -26 callgsubr
          112 3 callgsubr
          14 98 237 94 hintmask 11010110
          -104 callgsubr
          -91 167 -49 callgsubr
          hintmask 11101110
          -90 callsubr
          hintmask 11010110
          17 -39 -27 7 -20 -56 callsubr
        </CharString>
        <CharString name="exclam">
          -305 -10 126 664 -20 hstem
          57 126 vstem
          164 207 rmoveto
          11 73 31 121 37 93 rrcurveto
          48 120 16 41 50 vvcurveto
          53 -18 22 -37 -46 -20 -33 -85 -9 vhcurveto
          -48 -455 rlineto
          -10 -217 rmoveto
          36 callsubr
          34 -27 30 -36 -36 -27 -29 -36 37 callsubr
          hvcurveto
          endchar
        </CharString>
        <CharString name="exclamdown">
          -304 11 -21 664 126 hstem
          173 126 vstem
          192 563 rmoveto
          -11 -73 -31 -121 -37 -93 rrcurveto
          -48 -120 -16 -41 -50 vvcurveto
          -53 18 -22 37 46 20 33 85 9 vhcurveto
          47 455 rlineto
          11 217 rmoveto
          -35 -29 -27 -35 -34 27 -30 36 36 27 29 36 36 -29 25 -33 hvcurveto
          endchar
        </CharString>
        <CharString name="f">
          -288 -37 callsubr
          130 580 46 193 141 -45 45 hstemhm
          hintmask 10101000
          48 callsubr
          98 45 callgsubr
          -101 12 callsubr
          hintmask 10110000
          -63 callgsubr
          hhcurveto
          hintmask 01110000
          -51 callgsubr
        </CharString>
        <CharString name="f_b">
          207 -37 callsubr
          130 120 51 409 46 -10 53 236 45 9 -20 hstemhm
          323 95 277 99 hintmask 1011001110000000
          626 829 rmoveto
          -113 -25 rlineto
          hintmask 1011010110000000
          10 -20 -30 6 -31 hhcurveto
          -125 -80 -97 -227 -62 -86 callgsubr
          hintmask 0111010110000000
          -52 callgsubr
          -7 0 -8 -5 -18 hvcurveto
          -118 -378 -11 callsubr
          vhcurveto
          hintmask 1010101110000000
          4 callsubr
          -30 -403 -44 callsubr
          endchar
        </CharString>
        <CharString name="f_f">
          11 9 callgsubr
          hintmask 10011000
          48 callsubr
          189 hlineto
          -144 -563 rlineto
          43 callsubr
          hintmask 01010110
          -44 callgsubr
          118 45 callgsubr
          -121 -40 callgsubr
          hintmask 00110110
          -87 callgsubr
          295 423 -45 callsubr
        </CharString>
        <CharString name="f_f_b">
          489 -37 callsubr
          130 120 51 409 46 -10 53 196 45 -5 45 9 -20 hstemhm
          605 95 277 99 hintmask 1011010111000000
          908 829 rmoveto
          -113 -25 rlineto
          hintmask 1011001011000000
          -4 callsubr
          hintmask 1011010111000000
          26 -35 -55 13 -55 hhcurveto
          -125 -60 -70 -214 -60 -86 callgsubr
          hintmask 0111010111000000
          -88 callgsubr
          189 -38 callgsubr
          hintmask 1011001011000000
          -75 callsubr
          -9 -1 -12 -3 -10 hvcurveto
          -119 -380 -11 callsubr
          vhcurveto
          hintmask 1010110111000000
          4 callsubr
          -30 -403 -44 callsubr
          hintmask 1011010111000000
          -304 455 -25 callgsubr
          endchar
        </CharString>
        <CharString name="f_f_h">
          527 -37 callsubr
          130 120 75 -44 -21 450 46 -9 53 195 45 -5 45 10 -20 hstemhm
          861 95 7 89 hintmask 1010011011100000
          931 311 -95 callsubr
          114 386 -108 -26 rlineto
          hintmask 1010100101100000
          -4 callsubr
          hintmask 1010101011100000
          26 -35 -55 13 -55 hhcurveto
          -125 -60 -70 -214 -60 -86 callgsubr
          hintmask 0110101011100000
          -88 callgsubr
          189 -38 callgsubr
          hintmask 1001100101100000
          -75 callsubr
          -9 44 callsubr
          hvcurveto
          -199 -682 rlineto
          84 hlineto
          23 69 rlineto
          hintmask 1010011011100000
          -50 callgsubr
          hintmask 1010101011100000
          -484 185 -25 callgsubr
          endchar
        </CharString>
        <CharString name="f_f_i">
          271 -37 callsubr
          115 -115 130 120 77 383 46 193 141 -95 45 5 45 hstemhm
          hintmask 10011011
          602 450 rmoveto
          -41 callgsubr
          -32 -45 -10 -91 hhcurveto
          -66 hlineto
          187 38 51 102 55 hhcurveto
          hintmask 10011100
          -33 callsubr
          hintmask 10011011
          21 -31 -48 12 -57 hhcurveto
          -125 -60 -70 -214 -60 -86 callgsubr
          hintmask 00111100
          -88 callgsubr
          189 hlineto
          -144 -563 rlineto
          hintmask 10011100
          43 callsubr
          hintmask 01011011
          -44 callgsubr
          -81 46 -45 callsubr
        </CharString>
        <CharString name="f_f_j">
          236 9 callgsubr
          hintmask 10010110
          794 387 rmoveto
          12 48 4 27 17 vvcurveto
          23 -11 4 -20 vhcurveto
          -31 -44 -10 -88 hhcurveto
          -77 -40 callgsubr
          hintmask 00111000
          -88 callgsubr
          189 hlineto
          -144 -563 rlineto
          hintmask 10011000
          43 callsubr
          hintmask 01011000
          -44 callgsubr
          91 hlineto
          56 25 -7 -35 47 callgsubr
          hintmask 10010110
          -52 -13 -21 -35 -27 9 callsubr
          -240 530 -45 callsubr
        </CharString>
        <CharString name="f_f_k">
          477 25 callgsubr
          194 45 -5 45 10 -20 hstemhm
          948 100 hintmask 1010011011000000
          943 -70 callsubr
          104 385 -105 -26 rlineto
          hintmask 1010100101000000
          -4 callsubr
          hintmask 1010101011000000
          26 -35 -55 13 -55 hhcurveto
          -125 -60 -70 -214 -60 -86 callgsubr
          hintmask 0110101011000000
          -88 callgsubr
          189 -38 callgsubr
          hintmask 1010100101000000
          -75 callsubr
          -7 -1 -8 -2 -8 hvcurveto
          -183 -689 -22 callgsubr
          hintmask 1001101011000000
          -60 25 17 -18 -15 callgsubr
          hintmask 1010101011000000
          -50 -35 -27 -25 -20 hhcurveto
          -496 416 -25 callgsubr
          301 -228 rmoveto
          hintmask 1010011011000000
          110 30 74 95 55 hhcurveto
          26 15 -15 -26 -54 -84 -70 -116 -40 hvcurveto
          endchar
        </CharString>
        <CharString name="f_f_l">
          277 -37 callsubr
          130 120 77 383 46 239 45 -5 45 9 -20 hstemhm
          hintmask 10111010
          636 -24 callgsubr
          hintmask 10110100
          -4 callsubr
          hintmask 10111010
          26 -35 -55 13 -55 hhcurveto
          -125 -60 -70 -214 -60 -86 callgsubr
          hintmask 01111010
          -88 callgsubr
          189 -38 callgsubr
          hintmask 10110100
          -75 callsubr
          -10 -2 -11 -3 -12 hvcurveto
          -319 -183 rmoveto
          -190 hlineto
          hintmask 10111010
          182 47 38 57 72 hhcurveto
          37 43 -20 -37 20 hvcurveto
          -25 -48 -22 -60 -20 -74 rrcurveto
          endchar
        </CharString>
        <CharString name="f_f_t">
          311 -37 callsubr
          115 -115 130 120 77 383 46 -46 132 107 141 -95 45 5 45 hstemhm
          hintmask 1001101000000000
          914 450 rmoveto
          -13 callsubr
          hintmask 1001011000000000
          26 86 rlineto
          -92 hlineto
          hintmask 1001100110000000
          -26 -86 rlineto
          -188 hlineto
          187 38 51 102 55 hhcurveto
          hintmask 1001101000000000
          -33 callsubr
          hintmask 1001100110000000
          21 -31 -48 12 -57 hhcurveto
          -125 -60 -70 -214 -60 -86 callgsubr
          hintmask 0011101000000000
          -88 callgsubr
          189 hlineto
          -144 -563 rlineto
          hintmask 1001101000000000
          43 callsubr
          hintmask 0101100110000000
          -44 callgsubr
          185 hlineto
          -75 -248 rlineto
          -23 -78 -8 -42 -27 -82 callgsubr
          84 278 rcurveline
          -358 46 -45 callsubr
        </CharString>
        <CharString name="f_h">
          245 -37 callsubr
          130 120 75 -44 -21 450 46 -9 53 235 45 10 -20 hstemhm
          579 95 7 89 hintmask 1010010111000000
          649 311 -95 callsubr
          114 386 -108 -26 rlineto
          hintmask 1010101011000000
          10 -20 -30 6 -31 hhcurveto
          -125 -80 -97 -227 -62 -86 callgsubr
          hintmask 0101101011000000
          -52 callgsubr
          -9 44 callsubr
          hvcurveto
          -199 -682 rlineto
          84 hlineto
          23 69 rlineto
          hintmask 1010011011000000
          -50 callgsubr
          endchar
        </CharString>
        <CharString name="f_i">
          -8 -37 callsubr
          130 120 77 383 46 193 141 -45 45 hstemhm
          hintmask 10110100
          48 callsubr
          77 hlineto
          -41 callgsubr
          -30 -41 -10 -78 hhcurveto
          -88 12 callsubr
          hintmask 10111000
          -63 callgsubr
          hhcurveto
          hintmask 01111000
          -51 callgsubr
        </CharString>
        <CharString name="f_j">
          -54 -37 callsubr
          135 575 46 193 141 -45 45 hstemhm
          hintmask 10110000
          48 callsubr
          94 hlineto
          49 21 -9 -33 47 callgsubr
          -56 -14 -20 -31 -27 hhcurveto
          hintmask 01101000
          9 callsubr
          107 421 rlineto
          12 48 4 27 17 vvcurveto
          23 -11 4 -20 vhcurveto
          -29 -40 -10 -75 hhcurveto
          -88 12 callsubr
          hintmask 10110000
          -63 callgsubr
          -51 callgsubr
        </CharString>
        <CharString name="f_k">
          195 25 callgsubr
          234 45 10 -20 hstemhm
          666 100 hintmask 1010010110000000
          661 -70 callsubr
          104 385 -105 -26 rlineto
          hintmask 1010101010000000
          10 -20 -30 6 -31 hhcurveto
          -125 -80 -97 -227 -62 -86 callgsubr
          hintmask 0110101010000000
          -52 callgsubr
          -7 -1 -8 -2 -8 hvcurveto
          -183 -689 -22 callgsubr
          hintmask 1001101010000000
          -60 25 17 -18 -15 callgsubr
          hintmask 1010011010000000
          -52 callsubr
          endchar
        </CharString>
        <CharString name="f_l">
          -5 -37 callsubr
          130 120 77 383 46 279 45 9 -20 hstemhm
          hintmask 10110100
          354 -24 callgsubr
          hintmask 10111000
          10 -20 -30 6 -31 hhcurveto
          -125 -80 -97 -227 -62 -86 callgsubr
          hintmask 01111000
          -52 callgsubr
          -10 -2 -11 -3 -12 hvcurveto
          endchar
        </CharString>
        <CharString name="f_t">
          19 -37 callsubr
          130 120 77 383 46 -46 132 107 141 -45 45 hstemhm
          hintmask 10110100
          48 callsubr
          175 hlineto
          -75 -248 rlineto
          -23 -78 -8 -42 -27 -82 callgsubr
          84 278 rcurveline
          109 hlineto
          -13 callsubr
          hintmask 10101100
          26 86 rlineto
          -92 hlineto
          hintmask 10110010
          -26 -86 rlineto
          -178 12 callsubr
          hintmask 10110100
          -63 callgsubr
          hhcurveto
          hintmask 01110100
          -51 callgsubr
        </CharString>
        <CharString name="five">
          -12 -10 52 198 44 157 50 170 101 19 -20 hstemhm
          31 95 309 118 hintmask 11110110
          318 491 rmoveto
          -35 -50 -7 -8 -18 hvcurveto
          -4 6 67 197 rlineto
          -10 42 58 -8 39 hhcurveto
          88 58 39 80 28 hvcurveto
          hintmask 11101110
          -6 1 rlineto
          hintmask 11110110
          -12 -34 -60 -7 -73 hhcurveto
          -71 -60 7 11 -32 hvcurveto
          -125 -368 rlineto
          -1 -3 -1 -6 -4 vvcurveto
          -10 7 -7 8 vhcurveto
          25 31 59 96 hhcurveto
          92 48 -56 -105 -138 -81 -100 -111 -71 -46 40 63 54 33 41 43 hvcurveto
          25 -5 -28 19 -32 hhcurveto
          -58 -48 -62 -73 -96 82 -63 124 174 142 125 153 129 -100 94 -135 hvcurveto
          endchar
        </CharString>
        <CharString name="fiveeighths">
          57 6 callgsubr
          158 26 -26 118 58 25 66 42 -3 -20 31 -20 hstemhm
          106 43 124 52 40 6 callsubr
          hintmask 0111010101101010
          696 -67 callgsubr
          442 166 -57 callgsubr
          hintmask 1011011001110100
          -84 callsubr
          hintmask 1011011001101010
          -55 callgsubr
          -278 491 -25 callsubr
          hintmask 1011010011110100
          -3 1 rlineto
          hintmask 1011011001110100
          10 callsubr
          -50 -143 rlineto
          -1 -3 -3 -8 -36 callgsubr
          hintmask 1010111001110100
          -29 callsubr
        </CharString>
        <CharString name="fiveinferior">
          -337 -10 26 -26 118 58 25 66 42 8 -20 hstemhm
          -22 43 124 52 hintmask 10110110
          98 191 -25 callsubr
          hintmask 10101110
          -3 1 rlineto
          hintmask 10110110
          10 callsubr
          -46 -132 rlineto
          -3 -8 -5 -14 -36 callgsubr
          hintmask 01110110
          -29 callsubr
        </CharString>
        <CharString name="fivesuperior">
          -336 464 26 -26 118 58 25 66 42 8 -20 hstemhm
          105 43 124 52 hintmask 10110110
          225 665 -25 callsubr
          hintmask 10101110
          -3 1 rlineto
          hintmask 10110110
          10 callsubr
          -50 -143 rlineto
          -1 -3 -3 -8 -36 callgsubr
          hintmask 01110110
          -29 callsubr
        </CharString>
        <CharString name="florin">
          -162 -145 49 -49 166 469 41 138 161 -40 40 hstemhm
          -45 82 442 74 hintmask 10110110
          77 -96 rmoveto
          -25 -15 15 25 26 13 20 19 4 hvcurveto
          hintmask 01101110
          19 -9 -12 8 -21 hhcurveto
          -42 -30 -32 -44 -55 42 -35 66 102 53 82 216 35 hvcurveto
          55 337 rlineto
          88 hlineto
          8 41 rlineto
          -90 hlineto
          172 20 40 87 59 hhcurveto
          27 19 -18 -25 -27 -20 -25 -24 -4 hvcurveto
          hintmask 10110110
          -16 9 12 -6 20 hhcurveto
          44 33 31 42 51 -50 37 -69 -108 -59 -88 -211 -35 hvcurveto
          -85 hlineto
          -8 -41 rlineto
          86 hlineto
          -87 -503 rlineto
          -53 -9 -19 -30 -33 hhcurveto
          endchar
        </CharString>
        <CharString name="four">
          -44 21 -21 285 61 434 -20 hstem
          535 780 rmoveto
          -44 hlineto
          -465 -444 -13 -51 rlineto
          295 hlineto
          -72 -285 rlineto
          104 hlineto
          69 285 rlineto
          123 hlineto
          15 61 rlineto
          -123 hlineto
          -307 hmoveto
          277 263 3 -1 -72 -262 rlineto
          endchar
        </CharString>
        <CharString name="fourinferior">
          -363 21 -21 114 24 174 -20 hstem
          180 312 3 callsubr
          -29 -114 rlineto
          42 hlineto
          -40 callsubr
          endchar
        </CharString>
        <CharString name="foursuperior">
          -362 489 -21 114 24 174 -20 hstem
          306 780 3 callsubr
          -29 -114 rlineto
          42 hlineto
          -40 callsubr
          endchar
        </CharString>
        <CharString name="fraction">
          -582 44 callgsubr
          380 -67 callgsubr
          endchar
        </CharString>
        <CharString name="g">
          -47 callgsubr
          5 callgsubr
          202 29 callsubr
          hintmask 1011000110100000
          435 -73 -31 callsubr
          hintmask 1010100110010000
          -47 callsubr
          hintmask 1011000110001000
          -6 callsubr
          hintmask 1010001110100000
          -5 callsubr
          hintmask 1010010101100000
          -51 callsubr
          hintmask 1011000110100000
          -71 callgsubr
          hintmask 0110010101100000
          -85 callgsubr
          endchar
        </CharString>
        <CharString name="gbreve">
          -47 callgsubr
          126 69 -69 130 5 callgsubr
          64 40 98 29 callsubr
          hintmask 1011000101101100
          435 -73 -31 callsubr
          hintmask 1010100101101010
          -47 callsubr
          hintmask 1011000101101001
          -6 callsubr
          hintmask 1010001101101100
          -5 callsubr
          hintmask 1010010101011100
          -51 callsubr
          hintmask 1011000101101100
          -71 callgsubr
          hintmask 0110010011011100
          -85 callgsubr
          237 585 rmoveto
          hintmask 1011000101101100
          15 callgsubr
          hintmask 1011000011101100
          -74 callsubr
        </CharString>
        <CharString name="gcircumflex">
          -47 callgsubr
          260 -20 5 callgsubr
          202 29 callsubr
          hintmask 1011000111010000
          435 -73 -31 callsubr
          hintmask 1010100111001000
          -47 callsubr
          hintmask 1011000111000100
          -29 callgsubr
          hintmask 1011000111010000
          -71 callgsubr
          hintmask 0110010110110000
          -85 callgsubr
          91 589 -89 callgsubr
        </CharString>
        <CharString name="gcommaaccent">
          -47 callgsubr
          131 100 96 -20 5 callgsubr
          127 122 -47 29 callsubr
          hintmask 1011000111101000
          377 847 rmoveto
          -69 -37 -26 -37 -43 vvcurveto
          -50 23 -29 40 35 24 22 31 28 -18 19 -26 -11 -9 -3 -5 -6 vhcurveto
          29 20 24 45 25 vhcurveto
          hintmask 1011000111100100
          36 -894 -31 callsubr
          hintmask 1010100111100010
          -47 callsubr
          hintmask 1011000111100001
          -6 callsubr
          hintmask 1010001111101000
          -5 callsubr
          hintmask 1010010111011000
          -51 callsubr
          hintmask 1011000111100100
          -71 callgsubr
          hintmask 0110010111010100
          -85 callgsubr
          endchar
        </CharString>
        <CharString name="gdotaccent">
          -47 callgsubr
          161 124 5 callgsubr
          127 124 -49 29 callsubr
          hintmask 1011000111001000
          435 -73 -31 callsubr
          hintmask 1010100111000100
          -47 callsubr
          hintmask 1011000111000010
          -29 callgsubr
          hintmask 1011000111001000
          -71 callgsubr
          hintmask 0110010110101000
          -85 callgsubr
          hintmask 1011000111010000
          57 552 -100 callsubr
        </CharString>
        <CharString name="germandbls">
          -36 -37 callsubr
          130 120 46 -46 128 318 26 -26 51 293 50 hstemhm
          421 105 -59 100 hintmask 1010101010000000
          -24 -113 rmoveto
          -55 -14 -27 -32 -32 hhcurveto
          hintmask 0110011010000000
          -48 23 70 -55 hhcurveto
          -30 -19 -21 -32 -48 40 -29 66 114 68 94 239 58 hvcurveto
          125 519 rlineto
          136 33 30 52 59 hhcurveto
          68 32 -26 -63 -18 -5 -18 -3 -22 hvcurveto
          -98 -29 -57 -48 -95 hhcurveto
          -13 -51 rlineto
          hintmask 1010101100000000
          108 48 -49 -109 -130 -64 -112 -74 hvcurveto
          hintmask 1001101100000000
          -58 44 82 -49 hhcurveto
          -29 -25 -30 -35 -39 34 -24 56 140 130 143 155 107 -59 67 -96 hvcurveto
          2 5 rlineto
          hintmask 1010101010000000
          113 21 81 90 105 vvcurveto
          91 -64 56 -104 -121 -90 -90 -154 -38 vhcurveto
          endchar
        </CharString>
        <CharString name="grave">
          -347 672 -21 152 -20 hstem
          234 651 -82 callsubr
        </CharString>
        <CharString name="grave.cap">
          -327 871 -21 110 -20 hstem
          260 850 23 callgsubr
          -72 callgsubr
        </CharString>
        <CharString name="greater">
          -1 93 -21 528 -20 hstem
          122 126 rmoveto
          -54 vlineto
          458 232 rlineto
          64 vlineto
          -458 232 rlineto
          -56 vlineto
          413 -208 rlineto
          endchar
        </CharString>
        <CharString name="guillemotleft">
          -144 28 callgsubr
          157 104 -7 callsubr
          299 -158 -7 callsubr
          endchar
        </CharString>
        <CharString name="guillemotright">
          -144 28 callgsubr
          421 262 -7 callgsubr
          41 158 -7 callgsubr
          endchar
        </CharString>
        <CharString name="guilsinglleft">
          -315 28 callgsubr
          157 104 -7 callsubr
          endchar
        </CharString>
        <CharString name="guilsinglright">
          -315 28 callgsubr
          250 262 -7 callgsubr
          endchar
        </CharString>
        <CharString name="h">
          34 callsubr
          250 48 callgsubr
          hintmask 10111100
          356 311 -95 callsubr
          114 386 rlineto
          -204 hlineto
          -1 callsubr
          -27 -9 -33 vhcurveto
          hintmask 01111100
          -198 -678 rlineto
          84 hlineto
          23 69 rlineto
          -50 callgsubr
          endchar
        </CharString>
        <CharString name="hbar">
          34 callsubr
          90 50 110 48 callgsubr
          hintmask 10111110
          356 311 -95 callsubr
          55 186 rlineto
          120 hlineto
          13 50 rlineto
          -119 hlineto
          45 150 rlineto
          -204 hlineto
          -1 callsubr
          -26 -9 -32 vhcurveto
          -89 hlineto
          -13 -50 rlineto
          88 hlineto
          hintmask 01111110
          -184 -630 rlineto
          84 hlineto
          23 69 rlineto
          -50 callgsubr
          endchar
        </CharString>
        <CharString name="hcircumflex">
          34 callsubr
          111 179 -50 -20 30 48 callgsubr
          hintmask 10101111
          437 780 rmoveto
          hintmask 10110011
          -134 -129 rlineto
          45 hlineto
          117 68 81 -68 rlineto
          45 hlineto
          hintmask 10101111
          -64 129 rlineto
          -171 -469 -95 callsubr
          rlineto
          hintmask 10110011
          114 386 rlineto
          -204 hlineto
          hintmask 01101111
          -1 callsubr
          -27 -9 -33 vhcurveto
          -198 -678 rlineto
          84 hlineto
          23 69 rlineto
          -50 callgsubr
          endchar
        </CharString>
        <CharString name="hdotbelow">
          -48 -17 callgsubr
          96 75 -44 -21 487 53 250 40 hstemhm
          72 124 90 95 7 89 hintmask 11011111
          356 311 -95 callsubr
          114 386 rlineto
          -204 hlineto
          -1 callsubr
          -27 -9 -33 vhcurveto
          hintmask 10111111
          -198 -678 rlineto
          84 hlineto
          23 69 rlineto
          -50 callgsubr
          -284 -479 -100 callsubr
        </CharString>
        <CharString name="hungarumlaut">
          -149 651 152 hstem
          67 651 -64 callsubr
        </CharString>
        <CharString name="hungarumlaut.cap">
          -149 850 110 hstem
          80 850 rmoveto
          -65 callgsubr
          247 hmoveto
          -65 callgsubr
          endchar
        </CharString>
        <CharString name="hyphen">
          -157 248 83 hstem
          369 248 rmoveto
          23 83 rlineto
          -309 hlineto
          -23 -83 rlineto
          endchar
        </CharString>
        <CharString name="i">
          -20 callsubr
          164 126 hstemhm
          49 100 8 113 -54 126 hintmask 11111000
          -80 callgsubr
          hintmask 11110100
          -68 callsubr
          endchar
        </CharString>
        <CharString name="iacute">
          -20 callsubr
          263 -20 hstem
          49 100 8 113 vstem
          -102 callgsubr
          90 321 -32 callsubr
          endchar
        </CharString>
        <CharString name="ibreve">
          -20 callsubr
          106 31 callsubr
          49 100 -10 40 -22 113 hintmask 11011010
          -102 callgsubr
          251 446 rmoveto
          hintmask 11101010
          15 callgsubr
          hintmask 11010100
          -74 callsubr
        </CharString>
        <CharString name="icircumflex">
          -20 callsubr
          240 -20 hstem
          49 100 8 113 vstem
          -102 callgsubr
          105 450 -89 callgsubr
        </CharString>
        <CharString name="idieresis">
          -20 callsubr
          111 116 hstem
          49 100 8 113 vstem
          -102 callgsubr
          -8 379 -97 callgsubr
        </CharString>
        <CharString name="idotbelow">
          -278 -17 callgsubr
          96 42 callsubr
          126 hstemhm
          49 100 -100 120 -12 113 -54 126 hintmask 11111010
          -80 callgsubr
          hintmask 11110101
          -68 callsubr
          -233 -872 -100 callsubr
        </CharString>
        <CharString name="igrave">
          -20 callsubr
          263 -20 hstem
          49 100 8 113 vstem
          -102 callgsubr
          212 321 -82 callsubr
        </CharString>
        <CharString name="ij">
          21 -37 callsubr
          135 115 42 callsubr
          126 hstemhm
          49 100 4 117 -54 126 145 35 callsubr
          hintmask 1011111010000000
          -80 callgsubr
          hintmask 1011110101000000
          -68 callsubr
          303 hmoveto
          -68 callsubr
          -27 callgsubr
          hintmask 0111111010000000
          -98 callgsubr
          endchar
        </CharString>
        <CharString name="imacron">
          -20 callsubr
          162 50 hstem
          49 100 8 113 vstem
          -102 callgsubr
          261 372 -60 callsubr
        </CharString>
        <CharString name="iogonek">
          -279 36 callgsubr
          42 callsubr
          126 hstemhm
          -59 79 29 100 8 113 -54 126 hintmask 11111110
          166 -59 callsubr
          36 37 46 56 34 hvcurveto
          86 5 77 95 31 64 -30 17 rcurveline
          -27 -15 -53 -77 -39 hhcurveto
          -15 -6 11 12 19 16 45 5 14 hvcurveto
          37 101 rlineto
          37 102 26 63 39 vvcurveto
          50 -17 17 -33 -69 -93 -93 -60 -31 vhcurveto
          29 -18 rlineto
          21 11 48 64 28 hhcurveto
          7 7 -5 -18 -18 -7 -31 -19 -52 hvcurveto
          -45 -128 rlineto
          -24 -68 -13 -41 -38 vvcurveto
          -27 6 -17 13 -10 vhcurveto
          -80 -37 -47 -55 12 callgsubr
          83 856 rmoveto
          hintmask 11111101
          -68 callsubr
          endchar
        </CharString>
        <CharString name="itilde">
          -20 callsubr
          112 3 callgsubr
          49 100 8 113 hintmask 11010110
          -102 callgsubr
          -4 330 -49 callgsubr
          hintmask 11101110
          -90 callsubr
          hintmask 11010110
          17 -39 -27 7 -20 -56 callsubr
        </CharString>
        <CharString name="j">
          -323 -37 callsubr
          135 579 86 164 126 hstemhm
          143 35 callsubr
          hintmask 10110100
          237 704 rmoveto
          -68 callsubr
          -27 callgsubr
          hintmask 01111000
          -98 callgsubr
          endchar
        </CharString>
        <CharString name="jcircumflex">
          -323 -260 60 654 86 240 -20 hstem
          143 113 vstem
          11 -113 rmoveto
          -52 -13 -26 -35 -32 -98 callgsubr
          106 449 -89 callgsubr
        </CharString>
        <CharString name="k">
          -109 0 38 callsubr
          362 100 hintmask 10101100
          357 -70 callsubr
          104 385 -199 -10 rlineto
          hintmask 10110100
          4 callgsubr
          -193 -717 -22 callgsubr
          hintmask 01110100
          -59 25 17 -19 -15 callgsubr
          hintmask 10110100
          -52 callsubr
          endchar
        </CharString>
        <CharString name="kcommaaccent">
          -109 -12 callgsubr
          54 38 callsubr
          103 122 137 100 hintmask 1110101110000000
          357 -70 callsubr
          104 385 -199 -10 rlineto
          hintmask 1110110110000000
          4 callgsubr
          -193 -717 -22 callgsubr
          hintmask 1101110110000000
          -59 25 17 -19 -15 callgsubr
          hintmask 1110110110000000
          -52 callsubr
          -32 -518 rmoveto
          -96 callsubr
        </CharString>
        <CharString name="kgreenlandic">
          -80 0 80 -69 -21 483 68 -41 41 hstemhm
          391 100 hintmask 10011000
          386 -70 callsubr
          26 95 -199 -10 4 callgsubr
          -115 -427 -22 callgsubr
          hintmask 01101000
          -60 25 17 -18 -15 callgsubr
          hintmask 10101000
          -52 callsubr
          endchar
        </CharString>
        <CharString name="l">
          -309 -10 77 723 34 5 -20 hstemhm
          23 95 hintmask 10110000
          -91 callgsubr
          rlineto
          hintmask 11010000
          -43 callgsubr
          endchar
        </CharString>
        <CharString name="lacute">
          -309 -10 77 723 34 136 -20 hstem
          23 95 vstem
          -91 callgsubr
          -43 callgsubr
          46 159 -76 callsubr
          -89 callsubr
        </CharString>
        <CharString name="lcaron">
          -309 -10 77 613 100 10 34 5 -20 hstemhm
          23 95 236 121 hintmask 11011100
          -91 callgsubr
          rlineto
          hintmask 11101100
          -43 callgsubr
          161 -107 -56 callgsubr
        </CharString>
        <CharString name="lcommaaccent">
          -309 -12 callgsubr
          44 77 723 34 5 -20 hstemhm
          -4 122 -95 95 hintmask 11101010
          -91 callgsubr
          rlineto
          hintmask 11110010
          -43 callgsubr
          -160 -941 -12 callsubr
        </CharString>
        <CharString name="ldot">
          -248 -10 77 301 124 298 34 5 -20 hstemhm
          23 95 171 124 hintmask 11011100
          -91 callgsubr
          rlineto
          hintmask 11101100
          -43 callgsubr
          106 -261 -100 callsubr
        </CharString>
        <CharString name="less">
          -4 93 -21 528 -20 hstem
          101 336 rmoveto
          413 208 rlineto
          56 vlineto
          -458 -232 rlineto
          -64 vlineto
          458 -232 rlineto
          54 vlineto
          endchar
        </CharString>
        <CharString name="logicalnot">
          54 131 -21 203 50 hstem
          504 50 vstem
          504 110 rmoveto
          50 253 -458 -50 408 hlineto
          endchar
        </CharString>
        <CharString name="lslash">
          -294 -10 77 723 34 5 -20 hstemhm
          38 95 hintmask 10110000
          65 202 rmoveto
          -20 -78 -7 -42 -27 vvcurveto
          -46 22 -19 46 62 92 83 91 41 vhcurveto
          -30 17 rlineto
          -30 -16 -58 -84 -43 hhcurveto
          -15 -6 11 12 19 6 27 10 36 hvcurveto
          77 285 96 51 17 65 -95 -51 84 307 -183 -9 rlineto
          hintmask 11010000
          -43 callgsubr
          -62 -226 -91 -49 -17 -65 90 48 rlineto
          endchar
        </CharString>
        <CharString name="m">
          248 2 callgsubr
          53 callsubr
          185 81 64 101 16 84 hintmask 10111110
          663 333 rmoveto
          -69 -198 -10 -33 -33 vvcurveto
          -48 21 -31 33 56 105 92 89 45 vhcurveto
          -26 14 rlineto
          -80 -64 -39 -37 -20 hhcurveto
          -7 -3 5 14 23 4 15 46 137 hvcurveto
          36 107 14 46 38 vvcurveto
          60 -26 27 -52 -70 -57 -50 -127 -75 vhcurveto
          -2 3 rlineto
          13 47 4 19 19 vvcurveto
          55 -31 34 -52 -69 -67 -59 -114 -61 vhcurveto
          -3 3 rlineto
          12 31 5 29 32 vvcurveto
          56 -16 22 -43 -74 -57 -65 -136 -47 vhcurveto
          30 -15 rlineto
          85 29 52 76 29 hhcurveto
          11 6 -10 -18 -26 -13 -46 -50 -156 hvcurveto
          hintmask 01111110
          -74 -229 rlineto
          88 hlineto
          84 227 rlineto
          127 47 105 134 53 hhcurveto
          16 9 -12 -21 -28 -16 -56 -56 -170 hvcurveto
          -66 -201 rlineto
          94 hlineto
          82 234 19 47 41 65 rrcurveto
          91 57 51 51 36 hhcurveto
          14 6 -8 -21 -17 -3 -10 -35 -99 hvcurveto
          endchar
        </CharString>
        <CharString name="macron">
          -312 702 50 hstem
          283 702 -60 callsubr
        </CharString>
        <CharString name="macron.cap">
          -312 880 50 hstem
          283 880 -60 callsubr
        </CharString>
        <CharString name="minus">
          35 313 50 hstem
          566 363 33 callgsubr
        </CharString>
        <CharString name="mu">
          63 38 callgsubr
          184 113 70 85 hintmask 11101100
          143 -78 callsubr
        </CharString>
        <CharString name="multiply">
          -79 168 -21 382 -20 hstem
          119 147 rmoveto
          155 155 154 -154 35 35 -154 154 155 155 -37 37 -155 -155 -154 154 -35 -35 154 -154 -155 -155 rlineto
          endchar
        </CharString>
        <CharString name="n">
          5 2 callgsubr
          20 callsubr
          hintmask 10111100
          425 -105 callsubr
          hintmask 01111100
          -66 callgsubr
          endchar
        </CharString>
        <CharString name="nacute">
          5 2 callgsubr
          263 -20 20 callsubr
          hintmask 10111110
          425 -105 callsubr
          hintmask 01111110
          -66 callgsubr
          -85 163 -32 callsubr
          endchar
        </CharString>
        <CharString name="napostrophe">
          167 2 callgsubr
          290 -20 hstemhm
          315 80 88 100 10 96 hintmask 10111110
          566 -105 callsubr
          hintmask 01111110
          -66 callgsubr
          -409 123 -2 callgsubr
        </CharString>
        <CharString name="ncaron">
          5 2 callgsubr
          240 -20 20 callsubr
          hintmask 10111110
          425 -105 callsubr
          hintmask 01111110
          -66 callgsubr
          -15 163 -78 callgsubr
        </CharString>
        <CharString name="ncommaaccent">
          5 -12 callgsubr
          44 78 -47 -21 488 52 53 callsubr
          -80 123 45 100 10 96 hintmask 1110110110000000
          425 -105 callsubr
          hintmask 1101101110000000
          -66 callgsubr
          -223 -738 rmoveto
          -96 callsubr
        </CharString>
        <CharString name="ndotaccent">
          5 2 callgsubr
          141 124 30 callgsubr
          -100 134 -24 96 hintmask 10111101
          425 -105 callsubr
          hintmask 01111010
          -66 callgsubr
          -73 255 -100 callsubr
        </CharString>
        <CharString name="nine">
          12 -10 45 -45 164 138 49 394 45 hstemhm
          48 103 -38 119 268 101 hintmask 10110110
          113 501 rmoveto
          -125 84 -84 125 49 44 13 27 44 vhcurveto
          3 -2 rlineto
          -173 -44 -107 -122 -107 hhcurveto
          hintmask 01111010
          -41 -12 21 43 37 -21 18 -28 -33 -21 -23 -34 -61 67 -46 89 205 192 246 264 172 -82 108 -131 hvcurveto
          hintmask 10110110
          -146 -129 -130 -149 hvcurveto
          227 -160 rmoveto
          -71 -37 52 102 135 70 105 92 69 37 -59 -108 -136 -64 -91 -96 hvcurveto
          endchar
        </CharString>
        <CharString name="nineinferior">
          -329 -10 23 -23 71 46 24 152 23 hstemhm
          -16 231 -205 53 107 45 hintmask 10110110
          10 190 -46 callgsubr
        </CharString>
        <CharString name="ninesuperior">
          -330 464 23 -23 71 46 24 152 23 hstemhm
          110 231 -205 53 107 45 hintmask 10110110
          136 664 -46 callgsubr
        </CharString>
        <CharString name="ntilde">
          5 2 callgsubr
          112 76 -28 74 -4 -20 20 callsubr
          hintmask 1011011110000000
          425 -105 callsubr
          hintmask 0110101110000000
          -66 callgsubr
          -179 172 -49 callgsubr
          hintmask 1011011110000000
          -90 callsubr
          hintmask 1010101110000000
          17 -39 -27 7 -20 -56 callsubr
        </CharString>
        <CharString name="numbersign">
          48 21 -21 255 50 170 50 245 -20 hstem
          620 305 rmoveto
          -137 hlineto
          23 170 rlineto
          135 hlineto
          8 50 rlineto
          -134 hlineto
          34 245 rlineto
          -60 hlineto
          -34 -245 rlineto
          -151 hlineto
          35 245 rlineto
          -60 hlineto
          -35 -245 rlineto
          -144 hlineto
          -8 -50 rlineto
          143 hlineto
          -24 -170 rlineto
          -142 hlineto
          -8 -50 rlineto
          140 hlineto
          -38 -255 rlineto
          60 hlineto
          38 255 rlineto
          151 hlineto
          -35 -255 rlineto
          59 hlineto
          37 255 rlineto
          139 hlineto
          -167 220 rmoveto
          -23 -170 rlineto
          -151 hlineto
          24 170 rlineto
          endchar
        </CharString>
        <CharString name="o">
          13 callsubr
          hstem
          24 105 251 96 vstem
          -100 callgsubr
          endchar
        </CharString>
        <CharString name="oacute">
          13 callsubr
          263 -20 hstem
          24 105 251 96 vstem
          -100 callgsubr
          115 611 -32 callsubr
          endchar
        </CharString>
        <CharString name="obreve">
          13 callsubr
          106 31 callsubr
          24 105 113 40 98 96 hintmask 11011110
          -100 callgsubr
          292 736 rmoveto
          hintmask 11101110
          15 callgsubr
          hintmask 11011110
          -74 callsubr
        </CharString>
        <CharString name="ocircumflex">
          13 callsubr
          240 -20 hstem
          24 105 251 96 vstem
          -100 callgsubr
          158 740 -89 callgsubr
        </CharString>
        <CharString name="odieresis">
          13 callsubr
          111 116 hstem
          24 105 251 96 vstem
          -100 callgsubr
          42 669 -97 callgsubr
        </CharString>
        <CharString name="odotbelow">
          -99 -17 callgsubr
          96 50 453 47 hstemhm
          24 105 -42 124 169 96 hintmask 11110100
          -100 callgsubr
          hintmask 11101100
          -106 -208 -100 callsubr
        </CharString>
        <CharString name="oe">
          170 -10 55 448 47 15 callsubr
          68 237 94 vstem
          675 154 rmoveto
          -68 -45 -56 -41 -49 hhcurveto
          -50 -27 38 71 18 1 18 3 19 hvcurveto
          178 40 149 111 93 vvcurveto
          51 -45 36 -64 -72 -75 -46 -67 -60 vhcurveto
          70 -24 -56 43 -72 hhcurveto
          -146 -141 -175 -174 -126 73 -75 90 62 62 35 53 50 hvcurveto
          -57 20 46 -31 66 hhcurveto
          83 74 49 94 57 hvcurveto
          -514 -93 rmoveto
          -37 -27 28 74 148 92 203 90 42 27 -23 -70 -151 -97 -209 -90 hvcurveto
          457 453 rmoveto
          23 12 -14 -28 -80 -95 -82 -128 -35 hvcurveto
          2 8 rlineto
          119 35 82 112 69 hhcurveto
          endchar
        </CharString>
        <CharString name="ogonek">
          -357 -234 60 184 -20 hstem
          0 79 vstem
          225 -59 callsubr
          42 51 55 72 35 hvcurveto
          4 -53 vlineto
          -94 -37 -55 -59 -63 -54 callsubr
          endchar
        </CharString>
        <CharString name="ograve">
          13 callsubr
          263 -20 hstem
          24 105 251 96 vstem
          -100 callgsubr
          237 611 -82 callsubr
        </CharString>
        <CharString name="ohungarumlaut">
          13 callsubr
          111 152 hstem
          24 105 251 96 vstem
          -100 callgsubr
          20 611 -64 callsubr
        </CharString>
        <CharString name="omacron">
          13 callsubr
          162 50 hstem
          24 105 251 96 vstem
          -100 callgsubr
          318 662 -60 callsubr
        </CharString>
        <CharString name="one">
          -148 0 40 563 42 -26 26 135 -20 hstemhm
          hintmask 11010000
          426 780 rmoveto
          -37 hlineto
          -71 -72 -81 -64 -115 hhcurveto
          -6 -42 rlineto
          hintmask 10110000
          77 47 16 22 hhcurveto
          11 4 -3 -10 -4 -1 -6 -1 -6 hvcurveto
          -102 -411 rlineto
          -110 -27 -45 -29 -93 -69 callgsubr
          370 hlineto
          11 40 rlineto
          -82 -25 34 53 39 14 49 13 53 hvcurveto
          endchar
        </CharString>
        <CharString name="oneeighth">
          30 6 callgsubr
          162 26 callsubr
          338 6 callsubr
          hintmask 0111100101000000
          669 -67 callgsubr
          hintmask 1011010101000000
          -83 callsubr
          261 -414 -57 callgsubr
          hintmask 1011101010000000
          -84 callsubr
          hintmask 1011100101000000
          -55 callgsubr
          endchar
        </CharString>
        <CharString name="onehalf">
          34 0 39 138 136 -27 27 155 26 callsubr
          380 45 101 52 hintmask 11011011
          669 -67 callgsubr
          hintmask 11010111
          -83 callsubr
          172 -537 rmoveto
          123 86 47 56 54 vvcurveto
          -42 callgsubr
          hintmask 10111011
          -58 callgsubr
          endchar
        </CharString>
        <CharString name="oneinferior">
          -349 0 21 0 220 71 -20 hstemhm
          hintmask 01100000
          162 312 rmoveto
          -20 hlineto
          -26 -28 -30 -23 -44 hhcurveto
          -7 -22 rlineto
          30 19 7 9 hhcurveto
          4 2 -2 -4 -1 0 -3 -1 -2 hvcurveto
          -40 -159 rlineto
          -44 -11 -17 -12 -38 hhcurveto
          hintmask 10100000
          -5 -21 rlineto
          153 hlineto
          5 21 rlineto
          -32 -10 14 21 15 4 19 6 22 hvcurveto
          endchar
        </CharString>
        <CharString name="onequarter">
          12 0 138 -24 24 330 26 callsubr
          hintmask 10110000
          668 -67 callgsubr
          hintmask 01101000
          -83 callsubr
          307 -268 3 callsubr
          hintmask 10110000
          -29 -114 rlineto
          42 hlineto
          hintmask 01110000
          -40 callsubr
          endchar
        </CharString>
        <CharString name="onesuperior">
          -349 468 21 0 220 71 -20 hstemhm
          hintmask 01100000
          287 780 rmoveto
          -20 hlineto
          -26 -28 -30 -23 -44 hhcurveto
          -7 -22 rlineto
          30 19 7 9 hhcurveto
          4 2 -2 -4 -1 0 -3 -1 -2 hvcurveto
          -40 -159 rlineto
          -43 -11 -17 -13 -38 hhcurveto
          hintmask 10100000
          -5 -21 rlineto
          153 hlineto
          5 21 rlineto
          -32 -10 14 21 15 5 21 5 20 hvcurveto
          endchar
        </CharString>
        <CharString name="onethird">
          30 -10 26 5 -21 141 165 -103 103 -25 25 162 26 callsubr
          339 45 26 23 84 34 -34 49 hintmask 0110011011010000
          669 -67 callgsubr
          hintmask 1010010111100000
          -83 callsubr
          263 -498 -31 callgsubr
          -69 callsubr
          hintmask 1001011011010000
          -73 callsubr
          hintmask 1000111011010000
          -39 callgsubr
          hintmask 1010011011010000
          -45 callgsubr
        </CharString>
        <CharString name="oogonek">
          -99 -234 60 667 47 hstemhm
          24 85 -85 105 251 96 hintmask 11101000
          255 -59 callsubr
          37 38 46 57 34 hvcurveto
          138 14 134 182 161 vvcurveto
          116 -69 76 -96 -146 -141 -175 -174 -107 52 -70 70 -18 vhcurveto
          -74 -37 -42 -52 40 callgsubr
          -91 192 rmoveto
          hintmask 11011000
          -37 -27 28 74 148 92 203 90 42 27 -23 -70 -151 -97 -209 -90 hvcurveto
          endchar
        </CharString>
        <CharString name="ordfeminine">
          -243 507 40 1 -20 221 31 -5 -20 hstemhm
          129 62 92 53 -21 21 hintmask 10101010
          293 749 rmoveto
          13 9 -8 -23 -57 -54 -114 -43 -16 -11 15 27 60 57 100 45 hvcurveto
          46 -1 rmoveto
          22 -8 -13 10 -23 hhcurveto
          -76 -90 -111 -88 -48 26 -26 36 35 37 25 34 18 hvcurveto
          4 hlineto
          hintmask 10101100
          -1 -11 -1 -10 -7 vvcurveto
          -22 9 -9 17 30 39 29 48 30 vhcurveto
          -13 15 rlineto
          hintmask 01011100
          -31 -22 -17 -20 -11 hhcurveto
          -7 -2 7 7 21 19 67 18 49 hvcurveto
          28 76 rlineto
          -51 hlineto
          endchar
        </CharString>
        <CharString name="ordmasculine">
          -284 507 30 215 28 hstem
          133 67 115 63 vstem
          224 507 rmoveto
          77 77 95 83 58 -38 37 -54 -78 -75 -87 -86 -62 42 -38 49 hvcurveto
          8 30 rmoveto
          -18 -14 14 36 71 40 94 41 21 13 -11 -36 -70 -42 -98 -41 hvcurveto
          endchar
        </CharString>
        <CharString name="oslash">
          -99 -40 -21 51 50 453 47 52 16 callgsubr
          47 -12 41 -20 32 hvcurveto
          98 124 rlineto
          -69 hlineto
          -66 -84 rlineto
          21 -27 -32 11 -37 hhcurveto
          -146 -141 -175 -174 -51 12 -43 20 -33 hvcurveto
          -99 -125 rlineto
          68 hlineto
          67 84 rlineto
          -21 26 33 -12 36 hhcurveto
          6 50 rmoveto
          -25 -19 12 29 -11 hvcurveto
          242 306 rlineto
          -150 -5 -95 -197 -87 hhcurveto
          118 453 rmoveto
          26 20 -9 -24 12 hvcurveto
          -240 -304 rlineto
          147 5 90 190 87 hhcurveto
          endchar
        </CharString>
        <CharString name="oslashacute">
          -100 -40 -21 51 50 453 47 263 16 callgsubr
          47 -12 41 -20 32 hvcurveto
          98 124 rlineto
          -69 hlineto
          -66 -84 rlineto
          21 -27 -32 11 -37 hhcurveto
          -146 -141 -175 -174 -51 12 -43 20 -33 hvcurveto
          -99 -125 rlineto
          68 hlineto
          67 84 rlineto
          -21 26 33 -12 36 hhcurveto
          6 50 rmoveto
          -25 -19 12 29 -11 hvcurveto
          242 306 rlineto
          -150 -5 -95 -197 -87 hhcurveto
          118 453 rmoveto
          26 20 -9 -24 12 hvcurveto
          -240 -304 rlineto
          147 5 90 190 87 hhcurveto
          8 158 -32 callsubr
          endchar
        </CharString>
        <CharString name="otilde">
          13 callsubr
          112 3 callgsubr
          24 105 251 96 hintmask 11010110
          -100 callgsubr
          21 620 -49 callgsubr
          hintmask 11101110
          -90 callsubr
          hintmask 11010110
          17 -39 -27 7 -20 -56 callsubr
        </CharString>
        <CharString name="p">
          -59 -250 40 700 49 -49 175 hstemhm
          421 104 hintmask 11010000
          42 347 rmoveto
          40 43 47 38 51 26 -181 -618 rcurveline
          -33 callgsubr
          hintmask 10110000
          35 133 rlineto
          -76 hlineto
          -47 -160 -67 -28 -64 -46 -49 -56 rlinecurve
          305 115 -3 callgsubr
        </CharString>
        <CharString name="paragraph">
          -74 -37 callsubr
          130 862 38 hstemhm
          hintmask 10100000
          480 573 rmoveto
          149 37 14 10 61 hhcurveto
          10 38 rlineto
          -166 hlineto
          -193 -141 -98 -171 -118 90 -51 91 14 15 1 3 14 hvcurveto
          -116 -449 rlineto
          -52 -14 -26 -35 -31 hhcurveto
          hintmask 01100000
          -51 callgsubr
        </CharString>
        <CharString name="parenleft">
          -285 -173 -21 1025 -20 hstem
          32 90 vstem
          419 831 rmoveto
          -249 -198 -138 -233 -233 vvcurveto
          -128 43 -122 85 -111 vhcurveto
          38 28 rlineto
          -52 81 -24 85 101 vvcurveto
          284 97 191 224 227 vhcurveto
          endchar
        </CharString>
        <CharString name="parenright">
          -287 -173 -21 1025 -20 hstem
          224 86 vstem
          153 803 rmoveto
          48 -102 23 -78 -86 vvcurveto
          -269 -152 -275 -187 -159 vhcurveto
          23 -28 rlineto
          255 198 147 241 237 vvcurveto
          123 -39 118 -79 108 vhcurveto
          endchar
        </CharString>
        <CharString name="percent">
          61 -3 callsubr
          hintmask 0111011101000000
          694 -67 callgsubr
          127 465 14 callsubr
          hvcurveto
          hintmask 1011101101000000
          -32 callgsubr
          hintmask 1011101011000000
          -14 callgsubr
          hvcurveto
          -70 callgsubr
          endchar
        </CharString>
        <CharString name="period">
          -360 -10 140 hstem
          -1 140 vstem
          68 -10 20 callgsubr
          endchar
        </CharString>
        <CharString name="periodcentered">
          -347 209 131 hstem
          61 131 vstem
          61 274 rmoveto
          -28 callgsubr
          endchar
        </CharString>
        <CharString name="perthousand">
          366 -3 callsubr
          64 54 135 55 hintmask 0111011101110000
          694 -67 callgsubr
          127 465 14 callsubr
          hvcurveto
          hintmask 1011101101110000
          -32 callgsubr
          hintmask 1011101011110000
          -14 callgsubr
          hvcurveto
          -70 callgsubr
          241 -290 rmoveto
          75 83 112 102 40 callsubr
          hvcurveto
          -70 callgsubr
          endchar
        </CharString>
        <CharString name="plus">
          -44 125 -21 209 50 209 -20 hstem
          263 52 vstem
          315 104 10 callgsubr
          endchar
        </CharString>
        <CharString name="plusminus">
          37 95 50 298 50 209 -20 hstem
          299 52 vstem
          351 234 10 callgsubr
          260 -89 33 callgsubr
        </CharString>
        <CharString name="q">
          -87 -250 40 200 60 438 52 hstem
          15 104 vstem
          230 -164 rmoveto
          -35 -10 -23 -11 -55 hhcurveto
          -6 -40 rlineto
          258 hlineto
          6 40 rlineto
          -59 1 -18 11 24 vvcurveto
          8 2 9 5 18 vhcurveto
          184 679 rlineto
          -76 hlineto
          -24 -71 rlineto
          50 -29 -31 21 -46 hhcurveto
          -140 -153 -206 -181 -103 48 -60 83 63 55 34 63 36 hvcurveto
          3 -2 rlineto
          10 403 rmoveto
          37 21 -36 -73 -147 -105 -182 -89 -39 -19 33 63 147 108 195 86 hvcurveto
          endchar
        </CharString>
        <CharString name="question">
          -154 -10 126 75 43 299 248 -48 48 hstemhm
          133 63 -63 82 -82 126 -126 152 137 64 hintmask 1110001010000000
          195 -10 rmoveto
          36 28 28 34 hvcurveto
          hintmask 1110100010000000
          35 -28 29 -35 -35 -28 -28 -36 -35 27 -27 35 vhcurveto
          -53 300 rmoveto
          -64 32 -35 58 48 37 25 53 26 vhcurveto
          -27 16 rlineto
          -35 -19 -23 -16 -32 hhcurveto
          -30 -16 14 26 hvcurveto
          110 290 35 202 vvcurveto
          96 -66 64 -101 -102 -83 -66 -81 -57 42 -44 54 vhcurveto
          hintmask 1110000110000000
          34 21 18 31 hvcurveto
          hintmask 1101010010000000
          58 -70 -34 54 vvcurveto
          42 43 31 56 63 45 -40 -55 vhcurveto
          -137 -280 -21 -190 vvcurveto
          endchar
        </CharString>
        <CharString name="questiondown">
          -152 -10 48 -48 248 299 43 75 126 hstemhm
          21 64 137 152 -126 126 -82 82 -63 63 hintmask 1011101000000000
          312 781 rmoveto
          -36 -28 -28 -34 hvcurveto
          hintmask 0111100010000000
          -35 28 -29 35 35 28 28 36 35 -27 27 -35 vhcurveto
          53 -300 rmoveto
          64 -32 35 -58 -48 -37 -25 -53 -26 vhcurveto
          27 -16 rlineto
          35 19 23 16 32 hhcurveto
          30 16 -14 -26 hvcurveto
          -110 -290 -35 -202 vvcurveto
          -96 66 -64 101 102 83 66 81 57 -42 44 -54 vhcurveto
          hintmask 1011110000000000
          -34 -21 -18 -31 hvcurveto
          hintmask 1011100100000000
          -58 70 34 -54 vvcurveto
          -42 -43 -31 -56 -63 -45 40 55 vhcurveto
          137 280 21 190 vvcurveto
          endchar
        </CharString>
        <CharString name="quotedbl">
          -263 585 -21 266 -20 hstem
          183 564 rmoveto
          -10 callsubr
          181 hmoveto
          -10 callsubr
          endchar
        </CharString>
        <CharString name="quotedblbase">
          -170 -144 43 callgsubr
          -8 139 53 139 vstem
          -42 -165 -79 callsubr
          208 -27 -79 callsubr
          endchar
        </CharString>
        <CharString name="quotedblleft">
          -179 41 callsubr
          53 139 vstem
          501 830 -41 callsubr
          -208 27 -41 callsubr
          endchar
        </CharString>
        <CharString name="quotedblright">
          -181 580 43 callgsubr
          179 139 53 139 vstem
          145 559 -79 callsubr
          208 -27 -79 callsubr
          endchar
        </CharString>
        <CharString name="quoteleft">
          -371 41 callsubr
          vstem
          309 830 -41 callsubr
          endchar
        </CharString>
        <CharString name="quoteright">
          -373 580 43 callgsubr
          179 139 vstem
          145 559 -79 callsubr
          endchar
        </CharString>
        <CharString name="quotesinglbase">
          -362 -144 43 callgsubr
          -8 139 vstem
          -42 -165 -79 callsubr
          endchar
        </CharString>
        <CharString name="quotesingle">
          -415 585 -21 266 -20 hstem
          183 564 rmoveto
          -10 callsubr
          endchar
        </CharString>
        <CharString name="r">
          -159 21 49 callsubr
          160 90 hintmask 10101000
          -77 callsubr
          hintmask 11001000
          -62 callgsubr
          hintmask 10011000
          -9 callgsubr
          endchar
        </CharString>
        <CharString name="racute">
          -159 21 0 callsubr
          283 -20 hstemhm
          160 90 hintmask 10101100
          -77 callsubr
          hintmask 11001100
          -62 callgsubr
          hintmask 10011100
          -9 callgsubr
          265 260 -32 callsubr
          endchar
        </CharString>
        <CharString name="rcaron">
          -159 21 0 callsubr
          260 -20 hstemhm
          160 90 hintmask 10101100
          -77 callsubr
          hintmask 11001100
          -62 callgsubr
          hintmask 10011100
          -9 callgsubr
          335 260 -78 callgsubr
        </CharString>
        <CharString name="rcommaaccent">
          -159 -12 callgsubr
          75 49 callsubr
          -2 122 40 90 hintmask 11101011
          -77 callsubr
          hintmask 11110011
          -62 callgsubr
          hintmask 11100111
          -9 callgsubr
          4 -641 rmoveto
          -96 callsubr
        </CharString>
        <CharString name="rdotbelow">
          -159 -17 callgsubr
          127 49 callsubr
          -25 124 61 90 hintmask 11010110
          -77 callsubr
          hintmask 11100110
          -62 callgsubr
          hintmask 11001110
          -9 callgsubr
          -46 -559 -100 callsubr
        </CharString>
        <CharString name="registered">
          296 -10 48 145 22 -22 233 174 25 117 48 hstemhm
          91 48 194 70 140 83 191 48 hintmask 1101111110000000
          -46 callsubr
          -191 121 rmoveto
          67 -61 41 -107 vhcurveto
          -175 -25 hlineto
          43 -2 7 -10 -51 vvcurveto
          -259 vlineto
          -51 -8 -10 -48 -2 vhcurveto
          -22 198 22 vlineto
          -64 -8 12 54 hvcurveto
          112 vlineto
          32 10 -4 -25 18 hvcurveto
          138 -171 rlineto
          108 22 hlineto
          -30 5 -18 10 -19 23 -124 150 rcurveline
          75 12 33 42 60 vvcurveto
          -223 69 rmoveto
          5 2 4 7 vhcurveto
          46 hlineto
          59 26 -22 -59 hvcurveto
          hintmask 1011111110000000
          -62 -33 -26 -67 vhcurveto
          -40 hlineto
          endchar
        </CharString>
        <CharString name="ring">
          -408 656 40 92 42 hstem
          16 42 96 43 vstem
          16 718 -65 callsubr
          endchar
        </CharString>
        <CharString name="ring.cap">
          -452 830 31 67 32 hstem
          17 32 70 33 vstem
          17 878 -48 callgsubr
        </CharString>
        <CharString name="s">
          -241 -10 46 callgsubr
          77 91 37 89 hintmask 10101100
          -80 callsubr
          hintmask 01011100
          -76 callgsubr
          37 23 29 29 vhcurveto
          hintmask 10101100
          -58 callsubr
          endchar
        </CharString>
        <CharString name="s_p">
          266 -250 40 200 44 -44 156 263 130 -42 42 1 -20 128 50 -19 51 40 -20 hstemhm
          77 91 37 89 -74 50 476 104 hintmask 1101001011101000
          -80 callsubr
          hintmask 1010101011101000
          -76 callgsubr
          hintmask 1100101011011000
          19 callgsubr
          hintmask 1101000111011000
          50 -19 -88 61 hhcurveto
          26 17 17 28 26 -14 24 -22 15 hvcurveto
          -32 22 -17 25 36 vvcurveto
          47 29 30 45 vhcurveto
          hintmask 1101001011101000
          44 39 -31 64 hhcurveto
          33 27 14 22 21 hvcurveto
          -52 -179 -39 -16 -43 -23 -28 -31 rlinecurve
          27 -28 19 19 25 16 24 12 rlinecurve
          -181 -618 rlineto
          -33 callgsubr
          66 238 rlineto
          -76 hlineto
          -47 -25 -39 -25 -41 hhcurveto
          hintmask 1100010111011000
          -1 callgsubr
          -100 -70 -65 -88 hvcurveto
          568 103 -3 callgsubr
        </CharString>
        <CharString name="s_t">
          99 -10 44 -44 77 -77 156 263 131 -93 46 4 43 108 50 -19 51 39 -20 hstemhm
          77 91 37 89 -74 50 124 96 hintmask 1001001011101000
          -80 callsubr
          hintmask 0010111011101000
          -76 callgsubr
          hintmask 1000111011011000
          19 callgsubr
          hintmask 1001000111011000
          50 -19 -88 61 hhcurveto
          26 17 17 28 26 -14 23 -22 16 hvcurveto
          -33 21 -16 26 36 vvcurveto
          47 29 30 45 vhcurveto
          hintmask 0100111011101000
          -53 callgsubr
          hintmask 1001000111011000
          -1 callgsubr
          -4 hlineto
          -96 -70 -65 -88 hvcurveto
          endchar
        </CharString>
        <CharString name="sacute">
          -241 -10 -22 callsubr
          263 -81 callsubr
          162 264 -32 callsubr
          endchar
        </CharString>
        <CharString name="scaron">
          -241 -10 -22 callsubr
          240 -81 callsubr
          232 264 -78 callgsubr
        </CharString>
        <CharString name="schwa">
          -165 -10 47 448 55 hstem
          -12 94 237 98 vstem
          92 376 rmoveto
          68 45 56 41 49 hhcurveto
          50 27 -38 -71 -18 -1 -18 -3 -19 hvcurveto
          -178 -40 -149 -111 -93 vvcurveto
          -51 45 -36 64 152 168 203 184 103 -52 60 -91 -83 -74 -49 -94 -57 vhcurveto
          57 -360 rmoveto
          -23 -12 14 28 80 95 82 128 35 hvcurveto
          -122 -34 -84 -117 -70 hhcurveto
          endchar
        </CharString>
        <CharString name="scircumflex">
          -241 -10 -22 callsubr
          240 -81 callsubr
          177 393 -89 callgsubr
        </CharString>
        <CharString name="sdotbelow">
          -241 -17 callgsubr
          96 46 callgsubr
          46 122 -91 91 37 89 hintmask 11010011
          -80 callsubr
          hintmask 10101011
          -76 callgsubr
          37 23 29 29 vhcurveto
          hintmask 11010011
          -58 callsubr
          hintmask 11010101
          -31 -555 -100 callsubr
        </CharString>
        <CharString name="section">
          -1 -173 46 -46 201 600 202 -40 40 hstemhm
          -1 122 12 100 4 93 -31 31 -31 82 20 101 3 108 hintmask 0101110011100000
          121 -47 rmoveto
          52 -18 23 -39 -40 -25 -27 -43 -87 85 -44 97 136 185 80 225 vhcurveto
          175 -121 232 154 vvcurveto
          68 31 29 33 46 14 -26 -32 vhcurveto
          -13 -3 -15 -11 vvcurveto
          hintmask 1010111001100000
          -53 29 -12 26 33 23 28 42 83 -83 49 -88 -140 -169 -80 -221 vhcurveto
          -146 104 -245 -136 vvcurveto
          -84 -22 -45 -46 -29 -19 23 57 vhcurveto
          280 136 rmoveto
          -109 -41 -78 -97 -24 vhcurveto
          53 38 14 46 74 159 -97 258 136 vvcurveto
          88 33 57 78 37 vhcurveto
          hintmask 1010110101100000
          -43 -46 -2 -36 -68 -139 102 -250 -143 vvcurveto
          endchar
        </CharString>
        <CharString name="semicolon">
          -316 -154 -21 175 130 45 callsubr
          hintmask 11101000
          166 300 20 callgsubr
          -79 -297 51 callsubr
          hintmask 11110000
          2 callsubr
        </CharString>
        <CharString name="servicemark">
          190 462 20 -3 -21 86 -20 226 20 4 -20 26 -20 hstemhm
          164 43 109 23 -23 49 64 29 246 47 hintmask 1011001101100000
          589 544 -17 callsubr
          hintmask 0111001101100000
          24 callsubr
          hintmask 1011001011100000
          -9 callsubr
          -440 -72 rmoveto
          14 hlineto
          11 20 rlineto
          -19 23 23 -9 31 hhcurveto
          53 57 29 61 hvcurveto
          103 -158 -18 77 vvcurveto
          27 23 12 25 40 17 -30 -30 10 vhcurveto
          hintmask 1010101101100000
          17 79 -11 hlineto
          -11 -18 rlineto
          hintmask 1010011101100000
          17 -21 -20 7 -22 hhcurveto
          -47 -43 -30 -54 hvcurveto
          -110 152 30 -80 vvcurveto
          -31 -27 -16 -33 -52 -26 34 39 -7 vhcurveto
          -18 hlineto
          endchar
        </CharString>
        <CharString name="seven">
          -98 11 -21 690 90 36 -20 hstem
          499 680 rmoveto
          -281 -400 rlineto
          -135 -192 -21 -31 -26 vvcurveto
          -25 20 -16 28 39 29 31 115 64 vhcurveto
          171 306 103 192 80 116 3 20 rcurveline
          -303 hlineto
          -53 -20 8 20 hvcurveto
          4 1 1 3 vvcurveto
          -30 hlineto
          -93 -237 rlineto
          43 hlineto
          21 39 rlineto
          66 35 16 6 97 hhcurveto
          endchar
        </CharString>
        <CharString name="seveneighths">
          28 6 callgsubr
          423 41 14 -20 hstemhm
          336 6 callsubr
          hintmask 0111001010000000
          667 -67 callgsubr
          442 166 -57 callgsubr
          hintmask 1011010100000000
          -84 callsubr
          hintmask 1011001010000000
          -55 callgsubr
          -165 555 -49 callsubr
          hintmask 1010110100000000
          -2 callsubr
          hintmask 1011010100000000
          23 12 16 1 31 hhcurveto
          endchar
        </CharString>
        <CharString name="seveninferior">
          -376 11 -21 271 41 14 -20 hstemhm
          hintmask 11000000
          161 261 -49 callsubr
          hintmask 10100000
          -2 callsubr
          hintmask 11000000
          23 12 16 1 31 hhcurveto
          endchar
        </CharString>
        <CharString name="sevensuperior">
          -377 479 -21 271 41 14 -20 hstemhm
          hintmask 11000000
          286 729 -49 callsubr
          hintmask 10100000
          -2 callsubr
          hintmask 11000000
          23 12 16 1 31 hhcurveto
          endchar
        </CharString>
        <CharString name="six">
          13 -10 45 404 49 128 164 -45 45 hstemhm
          71 101 268 119 -38 103 hintmask 11011100
          559 279 rmoveto
          125 -84 84 -125 -49 -44 -13 -27 -44 vhcurveto
          -3 2 rlineto
          167 44 107 118 107 hhcurveto
          hintmask 11101010
          41 12 -21 -43 -37 21 -18 28 33 21 23 34 61 -67 46 -89 -205 -192 -246 -264 -172 82 -108 131 hvcurveto
          hintmask 11101100
          146 129 135 154 hvcurveto
          -227 160 rmoveto
          71 37 -52 -102 -141 -70 -109 -92 -69 -37 59 108 142 64 95 96 hvcurveto
          endchar
        </CharString>
        <CharString name="sixinferior">
          -329 -10 23 152 24 46 71 -23 23 hstemhm
          -11 45 107 53 -20 46 hintmask 11011100
          194 106 -48 callsubr
        </CharString>
        <CharString name="sixsuperior">
          -331 464 23 152 24 46 71 -23 23 hstemhm
          116 45 107 53 -20 46 hintmask 11011100
          321 580 -48 callsubr
        </CharString>
        <CharString name="slash">
          -232 44 callgsubr
          457 770 rmoveto
          -62 hlineto
          -424 -770 rlineto
          69 hlineto
          endchar
        </CharString>
        <CharString name="space">
          -347 endchar
        </CharString>
        <CharString name="sterling">
          60 -10 55 -55 99 20 56 216 50 298 51 hstemhm
          -18 66 180 118 228 101 hintmask 10111111
          511 780 rmoveto
          -164 -119 -130 -180 hvcurveto
          -39 -120 vlineto
          -14 -50 rlineto
          139 hlineto
          3 -25 1 -28 -52 vvcurveto
          -65 -7 -38 -19 -41 vhcurveto
          21 -32 -36 12 -35 hhcurveto
          -71 -55 -46 -61 -44 28 -24 53 56 64 28 41 37 hvcurveto
          -52 87 45 -17 54 hhcurveto
          99 64 55 109 29 hvcurveto
          -9 4 rlineto
          hintmask 01111111
          -48 -49 -51 -21 -67 hhcurveto
          -43 -70 9 13 -49 hvcurveto
          52 66 34 108 96 vvcurveto
          204 hlineto
          14 50 rlineto
          -217 103 hlineto
          125 52 70 94 54 27 -21 -43 -26 -13 -37 -12 -9 vhcurveto
          hintmask 10111111
          -7 6 20 -5 16 hhcurveto
          49 35 39 55 64 -64 41 -100 hvcurveto
          -330 -697 rmoveto
          -25 -29 -31 -13 -33 hhcurveto
          -27 -13 8 17 23 22 16 31 22 25 -8 -18 33 hvcurveto
          endchar
        </CharString>
        <CharString name="t">
          -257 -10 77 28 callsubr
          hstemhm
          hintmask 11000000
          344 447 rmoveto
          -13 callsubr
          hintmask 10100000
          21 callsubr
          hintmask 11000000
          -52 -172 11 callgsubr
          -23 -78 -8 -43 -26 -82 callgsubr
          83 275 rcurveline
          endchar
        </CharString>
        <CharString name="tbar">
          -256 -10 77 261 53 66 46 -46 218 hstemhm
          hintmask 11100000
          345 447 rmoveto
          -13 callsubr
          hintmask 11010000
          21 callsubr
          hintmask 11100000
          -52 -172 -24 callsubr
          -20 -66 rlineto
          -75 hlineto
          -15 -53 rlineto
          74 hlineto
          -38 -126 rlineto
          -23 -78 -8 -43 -26 -82 callgsubr
          47 156 rcurveline
          113 hlineto
          15 53 rlineto
          -112 hlineto
          20 66 rlineto
          endchar
        </CharString>
        <CharString name="tcaron">
          -257 -10 77 28 callsubr
          15 100 hstemhm
          381 121 hintmask 11011000
          344 447 rmoveto
          -13 callsubr
          hintmask 10111000
          21 callsubr
          hintmask 11011000
          -52 -172 11 callgsubr
          -23 -78 -8 -43 -26 -82 callgsubr
          83 275 rcurveline
          136 137 -56 callgsubr
        </CharString>
        <CharString name="tdotbelow">
          -257 -17 callgsubr
          96 77 28 callsubr
          hstemhm
          2 124 -88 88 hintmask 11101000
          344 447 rmoveto
          -13 callsubr
          hintmask 11011000
          21 callsubr
          hintmask 11100100
          -52 -172 11 callgsubr
          -23 -78 -8 -43 -26 -82 callgsubr
          83 275 rcurveline
          hintmask 11101000
          -233 -615 -100 callsubr
        </CharString>
        <CharString name="thorn">
          -82 -250 40 200 51 445 53 251 34 5 -20 hstemhm
          406 99 hintmask 11101100
          164 -10 rmoveto
          162 179 217 190 87 -46 55 -81 -65 -61 -36 -61 -39 hvcurveto
          -3 2 127 385 -192 -9 rlineto
          hintmask 11110100
          -8 -30 rlineto
          52 24 -11 -24 -12 -8 -28 -7 -24 hvcurveto
          -257 -855 rlineto
          -35 -10 -22 -11 -56 hhcurveto
          -6 -40 rlineto
          283 hlineto
          6 40 rlineto
          -69 1 -24 12 33 vvcurveto
          10 3 13 5 20 vhcurveto
          37 145 3 1 rlineto
          -24 18 24 -11 31 hhcurveto
          16 51 -44 callsubr
          endchar
        </CharString>
        <CharString name="three">
          -5 -10 52 198 44 445 51 hstemhm
          24 100 31 91 -58 58 165 118 -74 74 -74 110 hintmask 1111100100000000
          411 219 rmoveto
          -106 -69 -71 -103 -73 -42 34 58 58 42 48 49 vhcurveto
          26 -5 -28 18 -35 hhcurveto
          -67 -56 -64 -75 -92 84 -63 123 164 134 110 135 86 -54 66 -91 24 hvcurveto
          6 vlineto
          hintmask 1111100010000000
          101 23 80 93 93 vvcurveto
          94 -75 60 -117 -125 -93 -70 -94 -56 34 -37 51 31 27 15 23 10 vhcurveto
          -39 -23 24 41 60 49 43 70 62 28 -35 -76 hvcurveto
          hintmask 1111011000000000
          -234 -267 70 -67 vvcurveto
          -13 11 -7 21 vhcurveto
          22 34 8 23 hhcurveto
          64 48 -67 -89 hvcurveto
          endchar
        </CharString>
        <CharString name="threeeighths">
          56 6 callgsubr
          158 0 callgsubr
          -10 -20 hstemhm
          107 -16 callsubr
          30 6 callsubr
          hintmask 011100001110100010100000
          695 -67 callgsubr
          442 166 -57 callgsubr
          hintmask 101101000110100101000000
          -84 callsubr
          hintmask 101101000110100010100000
          -55 callgsubr
          -236 382 -31 callgsubr
          hintmask 101011000110010101000000
          -69 callsubr
          hintmask 101100100110001101000000
          -73 callsubr
          hintmask 101100010101010101000000
          -39 callgsubr
          hintmask 101101000110100101000000
          -45 callgsubr
        </CharString>
        <CharString name="threeinferior">
          -335 -10 0 callgsubr
          hstemhm
          -28 -16 callsubr
          hintmask 1010011010000000
          132 82 -66 callsubr
        </CharString>
        <CharString name="threequarters">
          38 0 138 -24 24 326 0 callgsubr
          -10 -20 hstemhm
          106 -16 callsubr
          hintmask 1010000111010000
          694 -67 callgsubr
          488 312 rmoveto
          -23 hlineto
          -186 -178 rlineto
          hintmask 0110100011010000
          -5 -20 rlineto
          118 hlineto
          hintmask 1010100011010000
          -29 -114 rlineto
          42 hlineto
          hintmask 0110100011010000
          -40 callsubr
          -213 418 -31 callgsubr
          hintmask 1001100011001000
          -69 callsubr
          hintmask 1010010011000100
          -73 callsubr
          hintmask 1010001010101000
          -39 callgsubr
          hintmask 1010100011010000
          -45 callgsubr
        </CharString>
        <CharString name="threesuperior">
          -335 464 0 callgsubr
          hstemhm
          98 -16 callsubr
          hintmask 1010011010000000
          258 556 -66 callsubr
        </CharString>
        <CharString name="tilde">
          -241 652 3 callgsubr
          hintmask 01000000
          54 660 -49 callgsubr
          hintmask 10100000
          -90 callsubr
          hintmask 01000000
          17 -39 -27 7 -20 -56 callsubr
        </CharString>
        <CharString name="tilde.cap">
          -241 838 29 callgsubr
          hintmask 01000000
          54 846 rmoveto
          29 9 11 11 22 hhcurveto
          hintmask 10000000
          -67 callsubr
          hintmask 00100000
          -48 -51 46 -60 -56 callsubr
        </CharString>
        <CharString name="trademark">
          317 462 20 -3 -21 86 -20 224 22 hstemhm
          178 20 104 57 189 29 246 47 hintmask 10111111
          480 770 rmoveto
          -302 -76 20 hlineto
          51 2 27 3 35 hhcurveto
          34 6 -3 -10 hvcurveto
          -204 vlineto
          -34 -7 -13 -45 -2 vhcurveto
          -20 161 20 vlineto
          -45 2 -7 12 35 vvcurveto
          204 vlineto
          10 6 3 39 41 14 -12 -42 4 vhcurveto
          21 hlineto
          224 -150 -17 callsubr
          hintmask 01111111
          24 callsubr
          hintmask 10111111
          -9 callsubr
          endchar
        </CharString>
        <CharString name="two">
          3 0 98 345 53 232 53 hstem
          119 101 252 118 vstem
          165 103 rmoveto
          306 219 119 139 136 vvcurveto
          111 -84 73 -126 -144 -117 -96 -119 -73 44 -50 65 41 33 20 33 12 vhcurveto
          -60 -34 35 60 75 61 62 78 70 43 -51 -77 -139 -118 -142 -334 -266 hvcurveto
          -9 -53 rlineto
          464 hlineto
          63 173 rlineto
          -37 hlineto
          -58 -37 -30 -17 -65 hhcurveto
          -204 hlineto
          endchar
        </CharString>
        <CharString name="twoinferior">
          -339 0 39 138 136 -27 27 hstemhm
          10 45 101 52 hintmask 11011000
          38 43 rmoveto
          123 86 47 56 54 vvcurveto
          -42 callgsubr
          hintmask 10111000
          -58 callgsubr
          endchar
        </CharString>
        <CharString name="twosuperior">
          -340 468 39 30 -20 128 136 -27 27 hstemhm
          135 45 101 52 hintmask 11101100
          163 511 rmoveto
          122 84 48 58 54 vvcurveto
          -42 callgsubr
          hintmask 11011100
          -58 callgsubr
          endchar
        </CharString>
        <CharString name="twothirds">
          39 -10 26 -26 118 -87 -21 141 165 -103 103 -25 25 162 39 30 -20 128 136 -27 27 -11 -20 hstemhm
          152 45 101 52 -2 -16 callsubr
          hintmask 001100110011101010000000
          678 -67 callgsubr
          116 511 rmoveto
          122 84 48 58 54 vvcurveto
          hintmask 100100111001101010000000
          -42 callgsubr
          hintmask 100100110101101010000000
          -58 callgsubr
          328 -425 rmoveto
          -40 -28 -26 -41 vhcurveto
          hintmask 010100111001011001000000
          -29 -17 11 21 23 17 19 20 hvcurveto
          -69 callsubr
          hintmask 100010111001101000100000
          -73 callsubr
          hintmask 100001111001100101000000
          -39 callgsubr
          hintmask 100100111001101010000000
          -45 callgsubr
        </CharString>
        <CharString name="u">
          -35 callsubr
          1 callsubr
          hintmask 10111100
          -106 callgsubr
          hintmask 11011100
          -83 callgsubr
          endchar
        </CharString>
        <CharString name="uacute">
          -35 callsubr
          283 -20 1 callsubr
          hintmask 10111110
          -106 callgsubr
          hintmask 11011110
          -83 callgsubr
          160 589 -32 callsubr
          endchar
        </CharString>
        <CharString name="ubreve">
          -35 callsubr
          126 69 -69 130 19 callsubr
          -17 40 32 85 hintmask 1011011010000000
          -106 callgsubr
          hintmask 1100111010000000
          -83 callgsubr
          321 714 rmoveto
          hintmask 1011011010000000
          15 callgsubr
          hintmask 1010110110000000
          -74 callsubr
        </CharString>
        <CharString name="ucircumflex">
          -35 callsubr
          260 -20 1 callsubr
          hintmask 10111110
          -106 callgsubr
          hintmask 11011110
          -83 callgsubr
          175 718 -89 callgsubr
        </CharString>
        <CharString name="udieresis">
          -35 callsubr
          131 116 1 callsubr
          hintmask 10111110
          -106 callgsubr
          hintmask 11011110
          -83 callgsubr
          62 647 -97 callgsubr
        </CharString>
        <CharString name="udotbelow">
          -29 -17 callgsubr
          96 75 465 -20 30 -20 hstemhm
          45 103 -48 124 -64 104 55 85 hintmask 11011011
          -106 callgsubr
          hintmask 11100101
          -83 callgsubr
          -69 -230 -100 callsubr
        </CharString>
        <CharString name="ugrave">
          -35 callsubr
          283 -20 1 callsubr
          hintmask 10111110
          -106 callgsubr
          hintmask 11011110
          -83 callgsubr
          282 589 -82 callsubr
        </CharString>
        <CharString name="uhungarumlaut">
          -35 callsubr
          131 152 1 callsubr
          hintmask 10111110
          -106 callgsubr
          hintmask 11011110
          -83 callgsubr
          65 589 -64 callsubr
        </CharString>
        <CharString name="umacron">
          -35 callsubr
          182 50 1 callsubr
          hintmask 10111110
          -106 callgsubr
          hintmask 11011110
          -83 callgsubr
          331 640 -60 callsubr
        </CharString>
        <CharString name="underscore">
          109 -143 68 hstem
          525 -143 rmoveto
          23 68 rlineto
          -570 hlineto
          -23 -68 rlineto
          endchar
        </CharString>
        <CharString name="uni00A0">
          -347 endchar
        </CharString>
        <CharString name="uni00AD">
          -134 248 83 hstem
          390 248 rmoveto
          83 -309 -83 vlineto
          endchar
        </CharString>
        <CharString name="uni015E">
          -24 -14 callsubr
          62 47 callsubr
          146 98 7 85 92 89 hintmask 1011011110000000
          -92 callsubr
          hintmask 1010111110000000
          -13 callgsubr
          44 -47 48 -27 56 -8 rlinecurve
          -72 -106 -50 callsubr
          hintmask 0111011110000000
          -68 callgsubr
          40 62 rlineto
          137 5 108 107 132 -77 callgsubr
          endchar
        </CharString>
        <CharString name="uni015F">
          -241 -14 callsubr
          62 44 375 131 -43 43 hstemhm
          77 100 -85 85 28 89 hintmask 1011101010000000
          -80 callsubr
          39 -4 -17 20 -28 hhcurveto
          -30 -20 -24 -38 -42 29 -32 47 -13 hvcurveto
          -74 -109 1 -3 rlineto
          1 6 16 1 13 hhcurveto
          hintmask 1011100110000000
          43 24 -14 -27 -36 -33 -27 -32 hvcurveto
          hintmask 0111011010000000
          -68 callgsubr
          40 62 rlineto
          5 hlineto
          91 85 75 90 hvcurveto
          39 callsubr
          hintmask 1011101010000000
          -58 callsubr
          endchar
        </CharString>
        <CharString name="uni0162">
          158 -14 callsubr
          72 34 callgsubr
          341 85 hintmask 10110110
          -16 callgsubr
          hintmask 10111010
          -57 callsubr
          hintmask 10110110
          108 57 86 63 117 hhcurveto
          38 17 -16 -38 -16 -3 -20 -6 -24 hvcurveto
          -122 -456 rlineto
          -104 -28 -38 -14 31 callgsubr
          169 hlineto
          -77 -112 -50 callsubr
          hintmask 01111010
          -68 callgsubr
          46 72 rlineto
          126 hlineto
          12 40 rlineto
          -84 -31 15 43 18 8 22 8 30 hvcurveto
          endchar
        </CharString>
        <CharString name="uni0163">
          -257 -14 callsubr
          -41 180 28 callsubr
          hstemhm
          107 85 hintmask 10101010
          344 447 rmoveto
          -13 callsubr
          hintmask 10100110
          21 callsubr
          hintmask 10101010
          -52 -172 11 callgsubr
          -23 -78 -8 -43 -26 vvcurveto
          -35 12 -20 26 -7 vhcurveto
          -72 -105 -50 callsubr
          hintmask 01101010
          -68 callgsubr
          42 66 63 16 80 74 41 80 rlinecurve
          -29 17 rlineto
          hintmask 10011010
          -30 -18 -66 -84 -47 hhcurveto
          -15 -5 11 12 hvcurveto
          1 19 6 27 11 36 83 275 rcurveline
          endchar
        </CharString>
        <CharString name="uni01C4">
          886 0 44 676 50 -50 240 hstemhm
          681 116 hintmask 11010000
          152 -61 callgsubr
          -115 -442 -103 callgsubr
          1295 520 -94 callgsubr
          350 801 rmoveto
          hintmask 10110000
          -86 callsubr
        </CharString>
        <CharString name="uni01C5">
          733 8 callsubr
          10 -20 hstemhm
          681 116 0 89 0 52 callsubr
          hintmask 1001010110100100
          152 -61 callgsubr
          -115 -442 -103 callgsubr
          1023 177 -54 callgsubr
          hintmask 1001100010100100
          -71 callsubr
          hintmask 0100011010101000
          -90 callgsubr
          hintmask 0011100010010000
          49 callgsubr
          59 38 -91 92 hhcurveto
          78 72 68 98 27 hvcurveto
          -34 13 rlineto
          hintmask 0100100010010000
          -63 -24 -27 -21 -38 hhcurveto
          hintmask 1001100001010000
          -30 callgsubr
          194 496 -78 callgsubr
        </CharString>
        <CharString name="uni01C6">
          495 -10 65 -65 -39 callsubr
          25 53 -10 -20 270 -20 30 1 callgsubr
          235 52 callsubr
          hintmask 1001011011110010
          -98 callsubr
          hintmask 1001011011101010
          -63 callsubr
          691 -79 rmoveto
          60 58 6 11 22 vvcurveto
          hintmask 1001010111110010
          19 -11 12 -18 vhcurveto
          -44 11 -68 -46 hhcurveto
          hintmask 1001100011110010
          -71 callsubr
          hintmask 0011011011110100
          -90 callgsubr
          49 callgsubr
          hhcurveto
          hintmask 0100100011110010
          -64 callgsubr
          hintmask 1001100011110010
          -30 callgsubr
          194 496 -78 callgsubr
        </CharString>
</ttFont>
